<?xml version="1.0" encoding="UTF-8"?>
<svg version="1.1" xmlns="http://www.w3.org/2000/svg" width="1200" height="630">
<path d="M0 0 C21.12 0 42.24 0 64 0 C64 0.33 64 0.66 64 1 C68.95 1.33 73.9 1.66 79 2 C79 2.66 79 3.32 79 4 C82.63 4 86.26 4 90 4 C90 4.66 90 5.32 90 6 C93.3 6 96.6 6 100 6 C100 6.66 100 7.32 100 8 C102.64 8 105.28 8 108 8 C108 8.66 108 9.32 108 10 C110.64 10 113.28 10 116 10 C116 10.66 116 11.32 116 12 C118.31 12 120.62 12 123 12 C123 12.33 123 12.66 123 13 C124.98 13.33 126.96 13.66 129 14 C129 14.66 129 15.32 129 16 C130.98 16 132.96 16 135 16 C135 16.66 135 17.32 135 18 C136.65 18 138.3 18 140 18 C140 18.66 140 19.32 140 20 C140.9075 19.95875 141.815 19.9175 142.75 19.875 C145.8782046 19.99531556 147.38614006 20.3914708 150 22 C150 22.66 150 23.32 150 24 C151.65 24 153.3 24 155 24 C155 24.66 155 25.32 155 26 C156.65 26 158.3 26 160 26 C160 26.66 160 27.32 160 28 C161.32 28 162.64 28 164 28 C164 28.66 164 29.32 164 30 C165.32 30 166.64 30 168 30 C168 30.66 168 31.32 168 32 C169.32 32 170.64 32 172 32 C172 32.66 172 33.32 172 34 C173.32 34 174.64 34 176 34 C176 34.66 176 35.32 176 36 C177.32 36 178.64 36 180 36 C180 36.66 180 37.32 180 38 C180.598125 38.144375 181.19625 38.28875 181.8125 38.4375 C183.56150404 38.8872439 185.28677023 39.42892341 187 40 C187 40.66 187 41.32 187 42 C187.99 42 188.98 42 190 42 C190 42.66 190 43.32 190 44 C191.32 44 192.64 44 194 44 C194 44.66 194 45.32 194 46 C194.99 46 195.98 46 197 46 C197 46.66 197 47.32 197 48 C197.99 48 198.98 48 200 48 C200 48.66 200 49.32 200 50 C200.99 50 201.98 50 203 50 C203 50.66 203 51.32 203 52 C203.99 52 204.98 52 206 52 C206 52.66 206 53.32 206 54 C206.99 54 207.98 54 209 54 C209 54.66 209 55.32 209 56 C209.99 56 210.98 56 212 56 C212 56.66 212 57.32 212 58 C212.66 58 213.32 58 214 58 C214 58.66 214 59.32 214 60 C215.32 60.33 216.64 60.66 218 61 C218 61.99 218 62.98 218 64 C218.66 64 219.32 64 220 64 C220 65.32 220 66.64 220 68 C220.66 68 221.32 68 222 68 C222 70.64 222 73.28 222 76 C221.34 76 220.68 76 220 76 C220 77.98 220 79.96 220 82 C219.34 82 218.68 82 218 82 C218 82.66 218 83.32 218 84 C217.34 84 216.68 84 216 84 C216 84.66 216 85.32 216 86 C215.34 86 214.68 86 214 86 C214 86.66 214 87.32 214 88 C213.34 88 212.68 88 212 88 C212 88.66 212 89.32 212 90 C211.34 90 210.68 90 210 90 C210 90.66 210 91.32 210 92 C209.34 92 208.68 92 208 92 C208 92.66 208 93.32 208 94 C207.34 94 206.68 94 206 94 C206 94.66 206 95.32 206 96 C205.34 96 204.68 96 204 96 C204 96.66 204 97.32 204 98 C203.34 98 202.68 98 202 98 C202 98.66 202 99.32 202 100 C201.34 100 200.68 100 200 100 C200 100.66 200 101.32 200 102 C199.34 102 198.68 102 198 102 C198 102.66 198 103.32 198 104 C197.34 104 196.68 104 196 104 C196 104.66 196 105.32 196 106 C195.34 106 194.68 106 194 106 C194 106.66 194 107.32 194 108 C193.34 108 192.68 108 192 108 C192 108.66 192 109.32 192 110 C191.34 110 190.68 110 190 110 C190 110.66 190 111.32 190 112 C189.34 112 188.68 112 188 112 C188 112.66 188 113.32 188 114 C187.34 114 186.68 114 186 114 C186 114.66 186 115.32 186 116 C185.34 116 184.68 116 184 116 C184 116.66 184 117.32 184 118 C183.34 118 182.68 118 182 118 C182 118.66 182 119.32 182 120 C181.34 120 180.68 120 180 120 C180 120.66 180 121.32 180 122 C179.34 122 178.68 122 178 122 C178 122.66 178 123.32 178 124 C177.34 124 176.68 124 176 124 C176 124.66 176 125.32 176 126 C175.34 126 174.68 126 174 126 C174 126.66 174 127.32 174 128 C173.34 128 172.68 128 172 128 C172 128.66 172 129.32 172 130 C171.34 130 170.68 130 170 130 C170 130.66 170 131.32 170 132 C169.34 132 168.68 132 168 132 C168 132.66 168 133.32 168 134 C167.34 134 166.68 134 166 134 C166 134.66 166 135.32 166 136 C165.34 136 164.68 136 164 136 C164 136.66 164 137.32 164 138 C163.34 138 162.68 138 162 138 C162 138.66 162 139.32 162 140 C161.34 140 160.68 140 160 140 C160 140.66 160 141.32 160 142 C159.34 142 158.68 142 158 142 C158 142.66 158 143.32 158 144 C157.34 144 156.68 144 156 144 C156 144.66 156 145.32 156 146 C155.34 146 154.68 146 154 146 C154 146.66 154 147.32 154 148 C153.34 148 152.68 148 152 148 C152 148.66 152 149.32 152 150 C151.34 150 150.68 150 150 150 C150 150.66 150 151.32 150 152 C149.34 152 148.68 152 148 152 C148 152.66 148 153.32 148 154 C147.34 154 146.68 154 146 154 C146 154.66 146 155.32 146 156 C145.34 156 144.68 156 144 156 C144 156.66 144 157.32 144 158 C143.34 158 142.68 158 142 158 C142 158.66 142 159.32 142 160 C141.01 160 140.02 160 139 160 C139 160.66 139 161.32 139 162 C137.35 162 135.7 162 134 162 C134 162.66 134 163.32 134 164 C131.69 164 129.38 164 127 164 C127 163.34 127 162.68 127 162 C125.35 162 123.7 162 122 162 C122 161.34 122 160.68 122 160 C121.401875 159.855625 120.80375 159.71125 120.1875 159.5625 C118.43849596 159.1127561 116.71322977 158.57107659 115 158 C115 157.34 115 156.68 115 156 C113.68 156 112.36 156 111 156 C111 155.34 111 154.68 111 154 C109.68 154 108.36 154 107 154 C107 153.34 107 152.68 107 152 C105.68 152 104.36 152 103 152 C103 151.34 103 150.68 103 150 C101.35 150 99.7 150 98 150 C98 149.34 98 148.68 98 148 C96.35 148 94.7 148 93 148 C93 147.34 93 146.68 93 146 C91.02 146 89.04 146 87 146 C87 145.67 87 145.34 87 145 C85.02 144.67 83.04 144.34 81 144 C81 143.34 81 142.68 81 142 C78.69 142 76.38 142 74 142 C74 141.34 74 140.68 74 140 C70.7 140 67.4 140 64 140 C64 139.67 64 139.34 64 139 C59.71 138.67 55.42 138.34 51 138 C51 137.67 51 137.34 51 137 C38.46 137 25.92 137 13 137 C13 137.33 13 137.66 13 138 C8.38 138 3.76 138 -1 138 C-1 138.66 -1 139.32 -1 140 C-3.97 140 -6.94 140 -10 140 C-10 140.66 -10 141.32 -10 142 C-12.31 142.33 -14.62 142.66 -17 143 C-17 143.33 -17 143.66 -17 144 C-19.31 144 -21.62 144 -24 144 C-24 144.66 -24 145.32 -24 146 C-25.65 146.33 -27.3 146.66 -29 147 C-29 147.33 -29 147.66 -29 148 C-30.65 148.33 -32.3 148.66 -34 149 C-34 149.33 -34 149.66 -34 150 C-35.65 150 -37.3 150 -39 150 C-39 150.66 -39 151.32 -39 152 C-40.65 152 -42.3 152 -44 152 C-44 152.66 -44 153.32 -44 154 C-51.42857143 157.28571429 -51.42857143 157.28571429 -55 158 C-55 158.66 -55 159.32 -55 160 C-55.99 160 -56.98 160 -58 160 C-58 160.66 -58 161.32 -58 162 C-59.32 162 -60.64 162 -62 162 C-62 162.66 -62 163.32 -62 164 C-62.66 164.66 -63.32 165.32 -64 166 C-65.32 166 -66.64 166 -68 166 C-68 166.66 -68 167.32 -68 168 C-68.66 168 -69.32 168 -70 168 C-70 168.66 -70 169.32 -70 170 C-70.99 170 -71.98 170 -73 170 C-73 170.66 -73 171.32 -73 172 C-73.99 172 -74.98 172 -76 172 C-76 172.66 -76 173.32 -76 174 C-76.66 174 -77.32 174 -78 174 C-78 174.66 -78 175.32 -78 176 C-78.66 176 -79.32 176 -80 176 C-80 176.66 -80 177.32 -80 178 C-80.99 178 -81.98 178 -83 178 C-83 178.66 -83 179.32 -83 180 C-83.66 180 -84.32 180 -85 180 C-85 180.66 -85 181.32 -85 182 C-85.66 182.66 -86.32 183.32 -87 184 C-87.99 184 -88.98 184 -90 184 C-90 184.66 -90 185.32 -90 186 C-90.66 186 -91.32 186 -92 186 C-92 186.66 -92 187.32 -92 188 C-92.66 188 -93.32 188 -94 188 C-94.33 189.32 -94.66 190.64 -95 192 C-95.66 192 -96.32 192 -97 192 C-97.33 193.32 -97.66 194.64 -98 196 C-98.66 196 -99.32 196 -100 196 C-100 196.66 -100 197.32 -100 198 C-100.66 198 -101.32 198 -102 198 C-102 198.66 -102 199.32 -102 200 C-102.66 200 -103.32 200 -104 200 C-104 200.66 -104 201.32 -104 202 C-104.66 202 -105.32 202 -106 202 C-106 203.32 -106 204.64 -106 206 C-106.66 206 -107.32 206 -108 206 C-108 206.66 -108 207.32 -108 208 C-108.66 208 -109.32 208 -110 208 C-110 208.66 -110 209.32 -110 210 C-110.66 210 -111.32 210 -112 210 C-112 211.32 -112 212.64 -112 214 C-112.66 214 -113.32 214 -114 214 C-114 214.66 -114 215.32 -114 216 C-114.66 216 -115.32 216 -116 216 C-116 217.32 -116 218.64 -116 220 C-116.66 220 -117.32 220 -118 220 C-118 221.32 -118 222.64 -118 224 C-118.66 224 -119.32 224 -120 224 C-120.12375 224.5775 -120.2475 225.155 -120.375 225.75 C-121.20548992 228.73976372 -122.6122213 231.27006363 -124.0625 234 C-124.99500661 235.98934744 -125.54074016 237.85678743 -126 240 C-126.66 240 -127.32 240 -128 240 C-128 241.32 -128 242.64 -128 244 C-128.66 244 -129.32 244 -130 244 C-130 245.98 -130 247.96 -130 250 C-130.66 250 -131.32 250 -132 250 C-132 251.32 -132 252.64 -132 254 C-132.66 254 -133.32 254 -134 254 C-133.95875 255.010625 -133.9175 256.02125 -133.875 257.0625 C-134.00573843 261.18076052 -134.73250786 264.11830533 -136 268 C-136.66 268 -137.32 268 -138 268 C-138 271.3 -138 274.6 -138 278 C-138.66 278 -139.32 278 -140 278 C-139.98259766 279.39025391 -139.98259766 279.39025391 -139.96484375 280.80859375 C-139.95582031 282.00613281 -139.94679688 283.20367187 -139.9375 284.4375 C-139.92589844 285.63246094 -139.91429687 286.82742188 -139.90234375 288.05859375 C-140 291 -140 291 -141 292 C-141.10095564 294.65456193 -141.13970998 297.28255176 -141.1328125 299.9375 C-141.13376923 300.732771 -141.13472595 301.52804199 -141.13571167 302.34741211 C-141.13639343 304.0320646 -141.13453943 305.71671971 -141.13037109 307.40136719 C-141.12502275 309.98899197 -141.13031619 312.57644316 -141.13671875 315.1640625 C-141.13605797 316.79687539 -141.1347768 318.42968816 -141.1328125 320.0625 C-141.13584885 321.23123657 -141.13584885 321.23123657 -141.13894653 322.42358398 C-141.4583958 326.007942 -141.4583958 326.007942 -140 329 C-139.92741054 331.18639453 -139.91626217 333.37500389 -139.9375 335.5625 C-139.94652344 336.76003906 -139.95554687 337.95757812 -139.96484375 339.19140625 C-139.98224609 340.58166016 -139.98224609 340.58166016 -140 342 C-139.34 342 -138.68 342 -138 342 C-137.67 344.97 -137.34 347.94 -137 351 C-136.67 351 -136.34 351 -136 351 C-136 353.31 -136 355.62 -136 358 C-135.34 358 -134.68 358 -134 358 C-132.70756464 362.1196377 -131.73747375 365.66831683 -132 370 C-131.34 370 -130.68 370 -130 370 C-130 371.98 -130 373.96 -130 376 C-129.34 376 -128.68 376 -128 376 C-128 377.32 -128 378.64 -128 380 C-127.34 380 -126.68 380 -126 380 C-126 381.32 -126 382.64 -126 384 C-125.34 384 -124.68 384 -124 384 C-124 385.32 -124 386.64 -124 388 C-123.34 388 -122.68 388 -122 388 C-122 389.32 -122 390.64 -122 392 C-121.34 392 -120.68 392 -120 392 C-120 393.32 -120 394.64 -120 396 C-119.34 396 -118.68 396 -118 396 C-118 397.32 -118 398.64 -118 400 C-117.34 400 -116.68 400 -116 400 C-114.00214565 404.1205746 -113.82164485 407.45194365 -114 412 C-114.66 412 -115.32 412 -116 412 C-116 413.98 -116 415.96 -116 418 C-116.66 418 -117.32 418 -118 418 C-118 418.66 -118 419.32 -118 420 C-118.66 420 -119.32 420 -120 420 C-120 420.66 -120 421.32 -120 422 C-120.66 422 -121.32 422 -122 422 C-122 422.66 -122 423.32 -122 424 C-122.66 424 -123.32 424 -124 424 C-124 424.66 -124 425.32 -124 426 C-124.66 426 -125.32 426 -126 426 C-126 426.66 -126 427.32 -126 428 C-126.66 428 -127.32 428 -128 428 C-128 428.66 -128 429.32 -128 430 C-128.66 430 -129.32 430 -130 430 C-130 430.66 -130 431.32 -130 432 C-130.66 432 -131.32 432 -132 432 C-132 432.66 -132 433.32 -132 434 C-132.66 434 -133.32 434 -134 434 C-134 434.66 -134 435.32 -134 436 C-134.66 436 -135.32 436 -136 436 C-136 436.66 -136 437.32 -136 438 C-136.66 438 -137.32 438 -138 438 C-138 438.66 -138 439.32 -138 440 C-138.66 440 -139.32 440 -140 440 C-140 440.66 -140 441.32 -140 442 C-140.66 442 -141.32 442 -142 442 C-142 442.66 -142 443.32 -142 444 C-142.66 444 -143.32 444 -144 444 C-144 444.66 -144 445.32 -144 446 C-144.66 446 -145.32 446 -146 446 C-146 446.66 -146 447.32 -146 448 C-146.66 448 -147.32 448 -148 448 C-148 448.66 -148 449.32 -148 450 C-148.66 450 -149.32 450 -150 450 C-150 450.66 -150 451.32 -150 452 C-150.66 452 -151.32 452 -152 452 C-152 452.66 -152 453.32 -152 454 C-152.66 454 -153.32 454 -154 454 C-154 454.66 -154 455.32 -154 456 C-154.66 456 -155.32 456 -156 456 C-156 456.66 -156 457.32 -156 458 C-156.66 458 -157.32 458 -158 458 C-158 458.66 -158 459.32 -158 460 C-158.66 460 -159.32 460 -160 460 C-160 460.66 -160 461.32 -160 462 C-160.66 462 -161.32 462 -162 462 C-162 462.66 -162 463.32 -162 464 C-162.66 464 -163.32 464 -164 464 C-164 464.66 -164 465.32 -164 466 C-164.66 466 -165.32 466 -166 466 C-166 466.66 -166 467.32 -166 468 C-166.66 468 -167.32 468 -168 468 C-168 468.66 -168 469.32 -168 470 C-168.66 470 -169.32 470 -170 470 C-170 470.66 -170 471.32 -170 472 C-170.66 472 -171.32 472 -172 472 C-172 472.66 -172 473.32 -172 474 C-172.66 474 -173.32 474 -174 474 C-174 474.66 -174 475.32 -174 476 C-174.66 476 -175.32 476 -176 476 C-176 476.66 -176 477.32 -176 478 C-176.66 478 -177.32 478 -178 478 C-178 478.66 -178 479.32 -178 480 C-178.66 480 -179.32 480 -180 480 C-180 480.66 -180 481.32 -180 482 C-180.66 482 -181.32 482 -182 482 C-182 482.66 -182 483.32 -182 484 C-182.66 484 -183.32 484 -184 484 C-184 484.66 -184 485.32 -184 486 C-184.66 486 -185.32 486 -186 486 C-186 486.66 -186 487.32 -186 488 C-186.66 488 -187.32 488 -188 488 C-188 488.66 -188 489.32 -188 490 C-188.66 490 -189.32 490 -190 490 C-190 490.66 -190 491.32 -190 492 C-190.66 492 -191.32 492 -192 492 C-192 492.66 -192 493.32 -192 494 C-192.66 494 -193.32 494 -194 494 C-194 494.66 -194 495.32 -194 496 C-194.99 496 -195.98 496 -197 496 C-197 496.66 -197 497.32 -197 498 C-198.65 498 -200.3 498 -202 498 C-202 498.66 -202 499.32 -202 500 C-204.31 500 -206.62 500 -209 500 C-209 499.34 -209 498.68 -209 498 C-210.65 498 -212.3 498 -214 498 C-214 497.34 -214 496.68 -214 496 C-214.99 496 -215.98 496 -217 496 C-217 495.34 -217 494.68 -217 494 C-217.66 493.67 -218.32 493.34 -219 493 C-219.495 491.515 -219.495 491.515 -220 490 C-220.66 490 -221.32 490 -222 490 C-222 489.34 -222 488.68 -222 488 C-222.66 488 -223.32 488 -224 488 C-224 486.68 -224 485.36 -224 484 C-224.66 484 -225.32 484 -226 484 C-226 483.34 -226 482.68 -226 482 C-226.66 482 -227.32 482 -228 482 C-228 480.68 -228 479.36 -228 478 C-228.66 478 -229.32 478 -230 478 C-230 477.34 -230 476.68 -230 476 C-230.66 476 -231.32 476 -232 476 C-232 474.68 -232 473.36 -232 472 C-232.66 472 -233.32 472 -234 472 C-234 470.68 -234 469.36 -234 468 C-234.66 468 -235.32 468 -236 468 C-236 467.34 -236 466.68 -236 466 C-236.66 466 -237.32 466 -238 466 C-238 464.68 -238 463.36 -238 462 C-238.66 462 -239.32 462 -240 462 C-240 460.68 -240 459.36 -240 458 C-240.66 458 -241.32 458 -242 458 C-242 456.68 -242 455.36 -242 454 C-242.66 454 -243.32 454 -244 454 C-244 452.68 -244 451.36 -244 450 C-244.66 450 -245.32 450 -246 450 C-246 448.68 -246 447.36 -246 446 C-246.66 446 -247.32 446 -248 446 C-248 444.68 -248 443.36 -248 442 C-248.66 442 -249.32 442 -250 442 C-250 440.68 -250 439.36 -250 438 C-250.66 438 -251.32 438 -252 438 C-252 436.68 -252 435.36 -252 434 C-252.66 434 -253.32 434 -254 434 C-254.33 432.35 -254.66 430.7 -255 429 C-255.33 429 -255.66 429 -256 429 C-256 427.35 -256 425.7 -256 424 C-256.66 424 -257.32 424 -258 424 C-258 422.02 -258 420.04 -258 418 C-258.66 418 -259.32 418 -260 418 C-260 416.68 -260 415.36 -260 414 C-260.66 414 -261.32 414 -262 414 C-262 412.02 -262 410.04 -262 408 C-262.66 408 -263.32 408 -264 408 C-265.5912689 403.126739 -266.21192221 399.19209404 -266 394 C-266.66 394 -267.32 394 -268 394 C-268.33 391.69 -268.66 389.38 -269 387 C-269.33 387 -269.66 387 -270 387 C-270 384.03 -270 381.06 -270 378 C-270.66 378 -271.32 378 -272 378 C-272.33 375.03 -272.66 372.06 -273 369 C-273.33 369 -273.66 369 -274 369 C-274.06058594 368.21753906 -274.12117188 367.43507813 -274.18359375 366.62890625 C-274.30927734 365.11103516 -274.30927734 365.11103516 -274.4375 363.5625 C-274.55931641 362.04849609 -274.55931641 362.04849609 -274.68359375 360.50390625 C-274.73211468 358.06359221 -274.73211468 358.06359221 -276 357 C-276.26998901 353.7901307 -276.44611437 350.58769141 -276.60546875 347.37109375 C-276.4970552 343.89055723 -276.4970552 343.89055723 -278 341 C-278.0940067 339.03630847 -278.11743381 337.06920801 -278.11352539 335.10327148 C-278.11344986 333.84203964 -278.11337433 332.5808078 -278.11329651 331.28135681 C-278.1081891 329.89460206 -278.10297309 328.50784771 -278.09765625 327.12109375 C-278.09579201 325.71004791 -278.09436814 324.29900143 -278.09336853 322.88795471 C-278.08954379 319.16759465 -278.0797139 315.4472734 -278.06866455 311.72692871 C-278.05844948 307.93319219 -278.05387071 304.13944942 -278.04882812 300.34570312 C-278.03809158 292.89711769 -278.0210157 285.44856428 -278 278 C-277.34 278 -276.68 278 -276 278 C-276.01160156 276.92878906 -276.02320313 275.85757812 -276.03515625 274.75390625 C-276.04453299 273.35677257 -276.05363331 271.95963701 -276.0625 270.5625 C-276.07087891 269.85544922 -276.07925781 269.14839844 -276.08789062 268.41992188 C-276.09653588 266.61306441 -276.05220011 264.80612397 -276 263 C-275.67 262.67 -275.34 262.34 -275 262 C-274.79162581 260.17093765 -274.63250341 258.33611866 -274.5 256.5 C-274.11111111 251.11111111 -274.11111111 251.11111111 -273 250 C-272.76807135 248.48530552 -272.58784762 246.96245438 -272.4375 245.4375 C-272.31181641 244.19806641 -272.31181641 244.19806641 -272.18359375 242.93359375 C-272.09271484 241.97646484 -272.09271484 241.97646484 -272 241 C-271.67 241 -271.34 241 -271 241 C-270.505 237.04 -270.505 237.04 -270 233 C-269.34 233 -268.68 233 -268 233 C-268 230.69 -268 228.38 -268 226 C-267.34 226 -266.68 226 -266 226 C-266 223.36 -266 220.72 -266 218 C-265.34 218 -264.68 218 -264 218 C-264 216.02 -264 214.04 -264 212 C-263.34 212 -262.68 212 -262 212 C-262 210.02 -262 208.04 -262 206 C-261.34 206 -260.68 206 -260 206 C-260 204.35 -260 202.7 -260 201 C-259.67 201 -259.34 201 -259 201 C-258.67 199.35 -258.34 197.7 -258 196 C-257.34 196 -256.68 196 -256 196 C-256.04125 195.278125 -256.0825 194.55625 -256.125 193.8125 C-255.99078695 190.79270631 -255.24829381 188.73064271 -254 186 C-253.34 186 -252.68 186 -252 186 C-252 184.68 -252 183.36 -252 182 C-251.34 182 -250.68 182 -250 182 C-250 180.68 -250 179.36 -250 178 C-249.34 178 -248.68 178 -248 178 C-248 176.68 -248 175.36 -248 174 C-247.34 174 -246.68 174 -246 174 C-246 172.68 -246 171.36 -246 170 C-245.34 170 -244.68 170 -244 170 C-244 168.68 -244 167.36 -244 166 C-243.34 166 -242.68 166 -242 166 C-242 164.68 -242 163.36 -242 162 C-241.34 162 -240.68 162 -240 162 C-240 160.68 -240 159.36 -240 158 C-239.34 158 -238.68 158 -238 158 C-238 156.68 -238 155.36 -238 154 C-237.34 154 -236.68 154 -236 154 C-235.67 153.01 -235.34 152.02 -235 151 C-234.67 150.01 -234.34 149.02 -234 148 C-233.34 148 -232.68 148 -232 148 C-232 146.68 -232 145.36 -232 144 C-231.34 144 -230.68 144 -230 144 C-230 143.34 -230 142.68 -230 142 C-229.34 142 -228.68 142 -228 142 C-228 140.68 -228 139.36 -228 138 C-227.34 138 -226.68 138 -226 138 C-226 137.34 -226 136.68 -226 136 C-225.34 136 -224.68 136 -224 136 C-224 134.68 -224 133.36 -224 132 C-223.34 132 -222.68 132 -222 132 C-222 131.34 -222 130.68 -222 130 C-221.34 130 -220.68 130 -220 130 C-220 128.68 -220 127.36 -220 126 C-219.34 126 -218.68 126 -218 126 C-218 125.34 -218 124.68 -218 124 C-217.34 124 -216.68 124 -216 124 C-216 123.34 -216 122.68 -216 122 C-215.34 122 -214.68 122 -214 122 C-213.855625 121.38125 -213.71125 120.7625 -213.5625 120.125 C-213 118 -213 118 -212 116 C-211.34 116 -210.68 116 -210 116 C-210 115.34 -210 114.68 -210 114 C-209.34 114 -208.68 114 -208 114 C-208 113.34 -208 112.68 -208 112 C-207.34 112 -206.68 112 -206 112 C-205.34 110.02 -204.68 108.04 -204 106 C-203.34 106 -202.68 106 -202 106 C-202 105.34 -202 104.68 -202 104 C-201.34 104 -200.68 104 -200 104 C-200 103.34 -200 102.68 -200 102 C-199.34 102 -198.68 102 -198 102 C-198 101.34 -198 100.68 -198 100 C-197.34 100 -196.68 100 -196 100 C-196 99.34 -196 98.68 -196 98 C-195.34 98 -194.68 98 -194 98 C-194 97.34 -194 96.68 -194 96 C-193.34 96 -192.68 96 -192 96 C-192 95.34 -192 94.68 -192 94 C-191.34 94 -190.68 94 -190 94 C-190 93.34 -190 92.68 -190 92 C-189.34 92 -188.68 92 -188 92 C-188 91.34 -188 90.68 -188 90 C-187.34 90 -186.68 90 -186 90 C-186 89.34 -186 88.68 -186 88 C-185.34 88 -184.68 88 -184 88 C-184 87.34 -184 86.68 -184 86 C-183.34 86 -182.68 86 -182 86 C-182 85.34 -182 84.68 -182 84 C-181.34 84 -180.68 84 -180 84 C-180 83.34 -180 82.68 -180 82 C-179.34 82 -178.68 82 -178 82 C-178 81.34 -178 80.68 -178 80 C-177.34 80 -176.68 80 -176 80 C-176 79.34 -176 78.68 -176 78 C-175.34 78 -174.68 78 -174 78 C-174 77.34 -174 76.68 -174 76 C-173.01 76 -172.02 76 -171 76 C-171 75.34 -171 74.68 -171 74 C-170.01 74 -169.02 74 -168 74 C-168 73.34 -168 72.68 -168 72 C-167.34 72 -166.68 72 -166 72 C-166 71.34 -166 70.68 -166 70 C-165.34 70 -164.68 70 -164 70 C-164 69.34 -164 68.68 -164 68 C-163.34 68 -162.68 68 -162 68 C-162 67.34 -162 66.68 -162 66 C-161.01 66 -160.02 66 -159 66 C-159 65.34 -159 64.68 -159 64 C-158.01 64 -157.02 64 -156 64 C-156 63.34 -156 62.68 -156 62 C-155.34 62 -154.68 62 -154 62 C-154 61.34 -154 60.68 -154 60 C-153.01 60 -152.02 60 -151 60 C-151 59.34 -151 58.68 -151 58 C-150.01 58 -149.02 58 -148 58 C-148 57.34 -148 56.68 -148 56 C-147.01 56 -146.02 56 -145 56 C-145 55.34 -145 54.68 -145 54 C-144.01 54 -143.02 54 -142 54 C-142 53.34 -142 52.68 -142 52 C-141.01 52 -140.02 52 -139 52 C-139 51.34 -139 50.68 -139 50 C-138.01 50 -137.02 50 -136 50 C-136 49.34 -136 48.68 -136 48 C-135.01 48 -134.02 48 -133 48 C-133 47.34 -133 46.68 -133 46 C-132.01 46 -131.02 46 -130 46 C-130 45.34 -130 44.68 -130 44 C-128.68 44 -127.36 44 -126 44 C-126 43.34 -126 42.68 -126 42 C-125.01 42 -124.02 42 -123 42 C-123 41.34 -123 40.68 -123 40 C-122.01 40 -121.02 40 -120 40 C-120 39.34 -120 38.68 -120 38 C-118.68 38 -117.36 38 -116 38 C-116 37.34 -116 36.68 -116 36 C-114.68 36 -113.36 36 -112 36 C-112 35.34 -112 34.68 -112 34 C-110.68 34 -109.36 34 -108 34 C-108 33.34 -108 32.68 -108 32 C-106.68 32 -105.36 32 -104 32 C-104 31.34 -104 30.68 -104 30 C-102.68 30 -101.36 30 -100 30 C-100 29.34 -100 28.68 -100 28 C-98.68 28 -97.36 28 -96 28 C-96 27.34 -96 26.68 -96 26 C-94.35 26 -92.7 26 -91 26 C-91 25.34 -91 24.68 -91 24 C-87.86501708 22.14223235 -85.62528568 21.79859524 -82 22 C-82 21.34 -82 20.68 -82 20 C-80.02 20 -78.04 20 -76 20 C-76 19.34 -76 18.68 -76 18 C-74.35 18 -72.7 18 -71 18 C-71 17.34 -71 16.68 -71 16 C-69.02 16 -67.04 16 -65 16 C-65 15.34 -65 14.68 -65 14 C-63.02 14 -61.04 14 -59 14 C-59 13.34 -59 12.68 -59 12 C-56.69 12 -54.38 12 -52 12 C-52 11.34 -52 10.68 -52 10 C-48.535 9.505 -48.535 9.505 -45 9 C-45 8.67 -45 8.34 -45 8 C-42.03 8 -39.06 8 -36 8 C-36 7.34 -36 6.68 -36 6 C-31.545 5.505 -31.545 5.505 -27 5 C-27 4.67 -27 4.34 -27 4 C-23.04 4 -19.08 4 -15 4 C-15 3.34 -15 2.68 -15 2 C-10.05 1.67 -5.1 1.34 0 1 C0 0.67 0 0.34 0 0 Z " fill="#4F64FE" transform="translate(569,5)"/>
<path d="M0 0 C2.97 0 5.94 0 9 0 C9 0.66 9 1.32 9 2 C10.32 2 11.64 2 13 2 C13 2.66 13 3.32 13 4 C14.32 4 15.64 4 17 4 C17 4.66 17 5.32 17 6 C17.99 6 18.98 6 20 6 C20 6.66 20 7.32 20 8 C21.32 8 22.64 8 24 8 C24 8.66 24 9.32 24 10 C25.32 10 26.64 10 28 10 C28 10.66 28 11.32 28 12 C28.7425 11.95875 29.485 11.9175 30.25 11.875 C33.08758952 12.00398134 34.58773938 12.57051222 37 14 C37 14.66 37 15.32 37 16 C38.65 16 40.3 16 42 16 C42 16.66 42 17.32 42 18 C43.98 18 45.96 18 48 18 C48 18.66 48 19.32 48 20 C50.31 20 52.62 20 55 20 C55 20.33 55 20.66 55 21 C57.31 21.33 59.62 21.66 62 22 C62 22.66 62 23.32 62 24 C65.3 24 68.6 24 72 24 C72 24.33 72 24.66 72 25 C78.93 25.495 78.93 25.495 86 26 C86 26.66 86 27.32 86 28 C97.22 28 108.44 28 120 28 C120 27.34 120 26.68 120 26 C124.62 26 129.24 26 134 26 C134 25.34 134 24.68 134 24 C136.97 23.67 139.94 23.34 143 23 C143 22.67 143 22.34 143 22 C145.64 22 148.28 22 151 22 C151 21.34 151 20.68 151 20 C153.97 19.505 153.97 19.505 157 19 C157 18.67 157 18.34 157 18 C158.98 18 160.96 18 163 18 C163 17.34 163 16.68 163 16 C164.98 16 166.96 16 169 16 C169 15.34 169 14.68 169 14 C170.32 14 171.64 14 173 14 C173 13.34 173 12.68 173 12 C176.13498292 10.14223235 178.37471432 9.79859524 182 10 C182 9.34 182 8.68 182 8 C185 6 185 6 189 6 C189 5.34 189 4.68 189 4 C190.32 4 191.64 4 193 4 C193 3.34 193 2.68 193 2 C194.32 2 195.64 2 197 2 C197 1.34 197 0.68 197 0 C199.97 0 202.94 0 206 0 C206 0.66 206 1.32 206 2 C207.65 2 209.3 2 211 2 C211.66 3.32 212.32 4.64 213 6 C213.66 6 214.32 6 215 6 C215 6.66 215 7.32 215 8 C215.66 8 216.32 8 217 8 C217 8.66 217 9.32 217 10 C217.66 10 218.32 10 219 10 C219 10.66 219 11.32 219 12 C219.66 12 220.32 12 221 12 C221 12.66 221 13.32 221 14 C221.66 14 222.32 14 223 14 C223 14.66 223 15.32 223 16 C223.66 16 224.32 16 225 16 C225 16.66 225 17.32 225 18 C225.66 18 226.32 18 227 18 C227 18.66 227 19.32 227 20 C227.66 20 228.32 20 229 20 C229 20.66 229 21.32 229 22 C229.66 22 230.32 22 231 22 C231 22.66 231 23.32 231 24 C231.66 24 232.32 24 233 24 C233 24.66 233 25.32 233 26 C233.66 26 234.32 26 235 26 C235 26.66 235 27.32 235 28 C235.66 28 236.32 28 237 28 C237 28.66 237 29.32 237 30 C237.66 30 238.32 30 239 30 C239 30.66 239 31.32 239 32 C239.66 32 240.32 32 241 32 C241 32.66 241 33.32 241 34 C241.66 34 242.32 34 243 34 C243 34.66 243 35.32 243 36 C243.66 36 244.32 36 245 36 C245 36.66 245 37.32 245 38 C245.66 38 246.32 38 247 38 C247 38.66 247 39.32 247 40 C247.66 40 248.32 40 249 40 C249 40.66 249 41.32 249 42 C249.66 42 250.32 42 251 42 C251 42.66 251 43.32 251 44 C251.66 44 252.32 44 253 44 C253 44.66 253 45.32 253 46 C253.66 46 254.32 46 255 46 C255 46.66 255 47.32 255 48 C255.66 48 256.32 48 257 48 C257 48.66 257 49.32 257 50 C257.66 50 258.32 50 259 50 C259 50.66 259 51.32 259 52 C259.66 52 260.32 52 261 52 C261 52.66 261 53.32 261 54 C261.66 54 262.32 54 263 54 C263 54.66 263 55.32 263 56 C263.66 56 264.32 56 265 56 C265 56.66 265 57.32 265 58 C265.66 58 266.32 58 267 58 C267 58.66 267 59.32 267 60 C267.66 60 268.32 60 269 60 C269 60.66 269 61.32 269 62 C269.66 62 270.32 62 271 62 C271 62.66 271 63.32 271 64 C271.66 64 272.32 64 273 64 C273 64.66 273 65.32 273 66 C273.66 66 274.32 66 275 66 C275 66.66 275 67.32 275 68 C275.66 68 276.32 68 277 68 C277 68.66 277 69.32 277 70 C277.66 70 278.32 70 279 70 C279 70.66 279 71.32 279 72 C279.66 72 280.32 72 281 72 C281 72.66 281 73.32 281 74 C281.66 74 282.32 74 283 74 C283 74.66 283 75.32 283 76 C283.66 76 284.32 76 285 76 C285 76.66 285 77.32 285 78 C285.66 78 286.32 78 287 78 C287 78.66 287 79.32 287 80 C287.66 80 288.32 80 289 80 C289 80.66 289 81.32 289 82 C289.66 82 290.32 82 291 82 C293.3992233 86.64849515 293.19957409 90.91086074 293 96 C292.34 96 291.68 96 291 96 C291 97.32 291 98.64 291 100 C290.34 100 289.68 100 289 100 C288.67 101.32 288.34 102.64 288 104 C287.01 104 286.02 104 285 104 C285 104.66 285 105.32 285 106 C284.34 106 283.68 106 283 106 C283 106.66 283 107.32 283 108 C282.01 108 281.02 108 280 108 C280 108.66 280 109.32 280 110 C279.01 110 278.02 110 277 110 C277 110.66 277 111.32 277 112 C276.01 112 275.02 112 274 112 C274 112.66 274 113.32 274 114 C273.01 114 272.02 114 271 114 C271 114.66 271 115.32 271 116 C270.01 116 269.02 116 268 116 C268 116.66 268 117.32 268 118 C267.01 118 266.02 118 265 118 C265 118.66 265 119.32 265 120 C263.68 120 262.36 120 261 120 C261 120.66 261 121.32 261 122 C260.01 122 259.02 122 258 122 C258 122.66 258 123.32 258 124 C256.68 124 255.36 124 254 124 C254 124.66 254 125.32 254 126 C253.01 126 252.02 126 251 126 C251 126.66 251 127.32 251 128 C249.68 128 248.36 128 247 128 C247 128.66 247 129.32 247 130 C245.68 130 244.36 130 243 130 C243 130.66 243 131.32 243 132 C241.68 132 240.36 132 239 132 C239 132.66 239 133.32 239 134 C237.68 134 236.36 134 235 134 C235 134.66 235 135.32 235 136 C233.68 136 232.36 136 231 136 C231 136.66 231 137.32 231 138 C229.35 138 227.7 138 226 138 C226 138.66 226 139.32 226 140 C224.35 140 222.7 140 221 140 C221 140.66 221 141.32 221 142 C217.5980513 144.09350689 214.94727588 144.17942163 211 144 C211 144.66 211 145.32 211 146 C209.35 146.33 207.7 146.66 206 147 C206 147.33 206 147.66 206 148 C204.02 148 202.04 148 200 148 C200 148.66 200 149.32 200 150 C198.02 150.33 196.04 150.66 194 151 C194 151.33 194 151.66 194 152 C191.69 152 189.38 152 187 152 C187 152.66 187 153.32 187 154 C184.36 154 181.72 154 179 154 C179 154.66 179 155.32 179 156 C176.36 156 173.72 156 171 156 C171 156.66 171 157.32 171 158 C167.7 158 164.4 158 161 158 C161 158.66 161 159.32 161 160 C157.37 160 153.74 160 150 160 C150 160.66 150 161.32 150 162 C144.72 162 139.44 162 134 162 C134 162.66 134 163.32 134 164 C113.21 164 92.42 164 71 164 C71 163.67 71 163.34 71 163 C66.05 162.67 61.1 162.34 56 162 C56 161.34 56 160.68 56 160 C52.04 160 48.08 160 44 160 C44 159.67 44 159.34 44 159 C41.03 158.67 38.06 158.34 35 158 C35 157.34 35 156.68 35 156 C32.03 156 29.06 156 26 156 C26 155.67 26 155.34 26 155 C23.69 154.67 21.38 154.34 19 154 C19 153.34 19 152.68 19 152 C16.69 152 14.38 152 12 152 C12 151.34 12 150.68 12 150 C10.02 150 8.04 150 6 150 C6 149.34 6 148.68 6 148 C4.02 148 2.04 148 0 148 C0 147.34 0 146.68 0 146 C-1.98 146 -3.96 146 -6 146 C-6 145.67 -6 145.34 -6 145 C-7.65 144.67 -9.3 144.34 -11 144 C-11 143.34 -11 142.68 -11 142 C-12.65 142 -14.3 142 -16 142 C-16 141.34 -16 140.68 -16 140 C-16.7425 140.04125 -17.485 140.0825 -18.25 140.125 C-21.08758952 139.99601866 -22.58773938 139.42948778 -25 138 C-25 137.34 -25 136.68 -25 136 C-26.32 136 -27.64 136 -29 136 C-29 135.34 -29 134.68 -29 134 C-30.32 134 -31.64 134 -33 134 C-33 133.34 -33 132.68 -33 132 C-34.32 132 -35.64 132 -37 132 C-37 131.34 -37 130.68 -37 130 C-38.32 130 -39.64 130 -41 130 C-41 129.34 -41 128.68 -41 128 C-42.32 128 -43.64 128 -45 128 C-45 127.34 -45 126.68 -45 126 C-46.32 126 -47.64 126 -49 126 C-49 125.34 -49 124.68 -49 124 C-49.99 124 -50.98 124 -52 124 C-52 123.34 -52 122.68 -52 122 C-52.598125 121.855625 -53.19625 121.71125 -53.8125 121.5625 C-55.56150404 121.1127561 -57.28677023 120.57107659 -59 120 C-59 119.34 -59 118.68 -59 118 C-59.99 118 -60.98 118 -62 118 C-62 117.34 -62 116.68 -62 116 C-62.99 116 -63.98 116 -65 116 C-65 115.34 -65 114.68 -65 114 C-65.61875 113.855625 -66.2375 113.71125 -66.875 113.5625 C-69 113 -69 113 -71 112 C-71 111.34 -71 110.68 -71 110 C-71.61875 109.855625 -72.2375 109.71125 -72.875 109.5625 C-75 109 -75 109 -77 108 C-77 107.34 -77 106.68 -77 106 C-77.99 106 -78.98 106 -80 106 C-80 105.34 -80 104.68 -80 104 C-80.99 104 -81.98 104 -83 104 C-83 103.34 -83 102.68 -83 102 C-83.66 102 -84.32 102 -85 102 C-86.75163456 98.22777911 -87.22490027 95.333361 -87.125 91.1875 C-87.10695313 90.21167969 -87.08890625 89.23585938 -87.0703125 88.23046875 C-87.04710937 87.49441406 -87.02390625 86.75835938 -87 86 C-86.34 86 -85.68 86 -85 86 C-85 84.68 -85 83.36 -85 82 C-84.34 82 -83.68 82 -83 82 C-83 81.34 -83 80.68 -83 80 C-82.34 80 -81.68 80 -81 80 C-81 79.34 -81 78.68 -81 78 C-80.34 78 -79.68 78 -79 78 C-79 77.34 -79 76.68 -79 76 C-78.34 76 -77.68 76 -77 76 C-77 75.34 -77 74.68 -77 74 C-76.34 74 -75.68 74 -75 74 C-75 73.34 -75 72.68 -75 72 C-74.34 72 -73.68 72 -73 72 C-73 71.34 -73 70.68 -73 70 C-72.34 70 -71.68 70 -71 70 C-71 69.34 -71 68.68 -71 68 C-70.34 68 -69.68 68 -69 68 C-69 67.34 -69 66.68 -69 66 C-68.34 66 -67.68 66 -67 66 C-67 65.34 -67 64.68 -67 64 C-66.34 64 -65.68 64 -65 64 C-65 63.34 -65 62.68 -65 62 C-64.34 62 -63.68 62 -63 62 C-63 61.34 -63 60.68 -63 60 C-62.34 60 -61.68 60 -61 60 C-61 59.34 -61 58.68 -61 58 C-60.34 58 -59.68 58 -59 58 C-59 57.34 -59 56.68 -59 56 C-58.34 56 -57.68 56 -57 56 C-57 55.34 -57 54.68 -57 54 C-56.34 54 -55.68 54 -55 54 C-55 53.34 -55 52.68 -55 52 C-54.34 52 -53.68 52 -53 52 C-53 51.34 -53 50.68 -53 50 C-52.34 50 -51.68 50 -51 50 C-51 49.34 -51 48.68 -51 48 C-50.34 48 -49.68 48 -49 48 C-49 47.34 -49 46.68 -49 46 C-48.34 46 -47.68 46 -47 46 C-47 45.34 -47 44.68 -47 44 C-46.34 44 -45.68 44 -45 44 C-45 43.34 -45 42.68 -45 42 C-44.34 42 -43.68 42 -43 42 C-43 41.34 -43 40.68 -43 40 C-42.34 40 -41.68 40 -41 40 C-41 39.34 -41 38.68 -41 38 C-40.34 38 -39.68 38 -39 38 C-39 37.34 -39 36.68 -39 36 C-38.34 36 -37.68 36 -37 36 C-37 35.34 -37 34.68 -37 34 C-36.34 34 -35.68 34 -35 34 C-35 33.34 -35 32.68 -35 32 C-34.34 32 -33.68 32 -33 32 C-33 31.34 -33 30.68 -33 30 C-32.34 30 -31.68 30 -31 30 C-31 29.34 -31 28.68 -31 28 C-30.34 28 -29.68 28 -29 28 C-29 27.34 -29 26.68 -29 26 C-28.34 26 -27.68 26 -27 26 C-27 25.34 -27 24.68 -27 24 C-26.34 24 -25.68 24 -25 24 C-25 23.34 -25 22.68 -25 22 C-24.34 22 -23.68 22 -23 22 C-23 21.34 -23 20.68 -23 20 C-22.34 20 -21.68 20 -21 20 C-21 19.34 -21 18.68 -21 18 C-20.34 18 -19.68 18 -19 18 C-19 17.34 -19 16.68 -19 16 C-18.34 16 -17.68 16 -17 16 C-17 15.34 -17 14.68 -17 14 C-16.34 14 -15.68 14 -15 14 C-15 13.34 -15 12.68 -15 12 C-14.34 12 -13.68 12 -13 12 C-13 11.34 -13 10.68 -13 10 C-12.34 10 -11.68 10 -11 10 C-11 9.34 -11 8.68 -11 8 C-10.34 8 -9.68 8 -9 8 C-9 7.34 -9 6.68 -9 6 C-8.34 6 -7.68 6 -7 6 C-7 5.34 -7 4.68 -7 4 C-6.34 4 -5.68 4 -5 4 C-5 3.34 -5 2.68 -5 2 C-3.35 2 -1.7 2 0 2 C0 1.34 0 0.68 0 0 Z " fill="#1E0156" transform="translate(498,461)"/>
<path d="M0 0 C10.56 0 21.12 0 32 0 C32 0.66 32 1.32 32 2 C34.97 2 37.94 2 41 2 C41 2.33 41 2.66 41 3 C43.97 3.495 43.97 3.495 47 4 C47 4.66 47 5.32 47 6 C48.65 6 50.3 6 52 6 C52 6.66 52 7.32 52 8 C53.32 8 54.64 8 56 8 C56 8.66 56 9.32 56 10 C57.32 10 58.64 10 60 10 C60 10.66 60 11.32 60 12 C60.99 12 61.98 12 63 12 C63 12.66 63 13.32 63 14 C63.99 14 64.98 14 66 14 C66 14.66 66 15.32 66 16 C66.99 16 67.98 16 69 16 C69 16.66 69 17.32 69 18 C69.99 18 70.98 18 72 18 C72 18.66 72 19.32 72 20 C72.66 20 73.32 20 74 20 C74 20.66 74 21.32 74 22 C74.66 22 75.32 22 76 22 C76 22.66 76 23.32 76 24 C76.66 24 77.32 24 78 24 C78 24.66 78 25.32 78 26 C78.66 26 79.32 26 80 26 C80 26.66 80 27.32 80 28 C80.66 28 81.32 28 82 28 C82 28.66 82 29.32 82 30 C82.66 30 83.32 30 84 30 C84 30.66 84 31.32 84 32 C84.66 32 85.32 32 86 32 C86 32.66 86 33.32 86 34 C86.66 34 87.32 34 88 34 C88 34.66 88 35.32 88 36 C88.66 36 89.32 36 90 36 C90 37.32 90 38.64 90 40 C90.66 40 91.32 40 92 40 C92 40.66 92 41.32 92 42 C92.66 42 93.32 42 94 42 C94 43.32 94 44.64 94 46 C94.66 46 95.32 46 96 46 C96 47.32 96 48.64 96 50 C96.66 50 97.32 50 98 50 C98 51.32 98 52.64 98 54 C98.66 54 99.32 54 100 54 C100 55.98 100 57.96 100 60 C100.66 60 101.32 60 102 60 C102 61.98 102 63.96 102 66 C102.66 66 103.32 66 104 66 C104 68.97 104 71.94 104 75 C104.66 75 105.32 75 106 75 C106 84.57 106 94.14 106 104 C105.34 104 104.68 104 104 104 C104 107.3 104 110.6 104 114 C103.34 114 102.68 114 102 114 C102 115.98 102 117.96 102 120 C101.34 120 100.68 120 100 120 C100 121.98 100 123.96 100 126 C99.34 126 98.68 126 98 126 C98 127.32 98 128.64 98 130 C97.34 130 96.68 130 96 130 C96 131.32 96 132.64 96 134 C95.34 134 94.68 134 94 134 C93.855625 134.61875 93.71125 135.2375 93.5625 135.875 C93 138 93 138 92 140 C91.34 140 90.68 140 90 140 C89.01 142.97 89.01 142.97 88 146 C87.34 146 86.68 146 86 146 C86 146.66 86 147.32 86 148 C85.34 148 84.68 148 84 148 C84 148.66 84 149.32 84 150 C83.34 150 82.68 150 82 150 C82 150.66 82 151.32 82 152 C81.34 152 80.68 152 80 152 C80 152.66 80 153.32 80 154 C79.34 154 78.68 154 78 154 C78 154.66 78 155.32 78 156 C77.34 156 76.68 156 76 156 C76 156.66 76 157.32 76 158 C75.34 158 74.68 158 74 158 C74 158.66 74 159.32 74 160 C73.34 160.66 72.68 161.32 72 162 C70.68 162 69.36 162 68 162 C68 162.66 68 163.32 68 164 C67.34 164 66.68 164 66 164 C66 164.66 66 165.32 66 166 C64.68 166 63.36 166 62 166 C62 166.66 62 167.32 62 168 C61.01 168 60.02 168 59 168 C59 168.66 59 169.32 59 170 C57.68 170 56.36 170 55 170 C55 170.66 55 171.32 55 172 C53.68 172 52.36 172 51 172 C51 172.66 51 173.32 51 174 C49.35 174 47.7 174 46 174 C46 174.66 46 175.32 46 176 C43.69 176 41.38 176 39 176 C39 176.66 39 177.32 39 178 C36.03 178 33.06 178 30 178 C30 178.66 30 179.32 30 180 C20.76 180 11.52 180 2 180 C2 179.34 2 178.68 2 178 C-1.3 178 -4.6 178 -8 178 C-8 177.67 -8 177.34 -8 177 C-9.98 176.67 -11.96 176.34 -14 176 C-14 175.34 -14 174.68 -14 174 C-15.65 174 -17.3 174 -19 174 C-19 173.34 -19 172.68 -19 172 C-20.65 172 -22.3 172 -24 172 C-24 171.34 -24 170.68 -24 170 C-24.99 170 -25.98 170 -27 170 C-27 169.34 -27 168.68 -27 168 C-28.32 168 -29.64 168 -31 168 C-31 167.34 -31 166.68 -31 166 C-31.99 166 -32.98 166 -34 166 C-34 165.34 -34 164.68 -34 164 C-34.99 164 -35.98 164 -37 164 C-37 163.34 -37 162.68 -37 162 C-37.99 162 -38.98 162 -40 162 C-40 161.34 -40 160.68 -40 160 C-40.66 160 -41.32 160 -42 160 C-42 159.34 -42 158.68 -42 158 C-42.66 158 -43.32 158 -44 158 C-44 157.34 -44 156.68 -44 156 C-44.66 156 -45.32 156 -46 156 C-46 155.34 -46 154.68 -46 154 C-46.66 154 -47.32 154 -48 154 C-48 153.34 -48 152.68 -48 152 C-48.66 152 -49.32 152 -50 152 C-50 151.34 -50 150.68 -50 150 C-50.66 150 -51.32 150 -52 150 C-52 149.34 -52 148.68 -52 148 C-52.66 148 -53.32 148 -54 148 C-54 147.34 -54 146.68 -54 146 C-54.66 146 -55.32 146 -56 146 C-56 145.34 -56 144.68 -56 144 C-56.66 144 -57.32 144 -58 144 C-58 142.68 -58 141.36 -58 140 C-58.66 140 -59.32 140 -60 140 C-60 139.34 -60 138.68 -60 138 C-60.66 138 -61.32 138 -62 138 C-62 136.68 -62 135.36 -62 134 C-62.66 134 -63.32 134 -64 134 C-64 132.68 -64 131.36 -64 130 C-64.66 130 -65.32 130 -66 130 C-66 128.68 -66 127.36 -66 126 C-66.66 126 -67.32 126 -68 126 C-68 124.35 -68 122.7 -68 121 C-68.66 121 -69.32 121 -70 121 C-70.495 118.03 -70.495 118.03 -71 115 C-71.33 115 -71.66 115 -72 115 C-72 112.03 -72 109.06 -72 106 C-72.66 106 -73.32 106 -74 106 C-74 95.44 -74 84.88 -74 74 C-73.34 74 -72.68 74 -72 74 C-72.02320313 73.43152344 -72.04640625 72.86304688 -72.0703125 72.27734375 C-72.19191688 67.07441352 -71.67723492 62.92687757 -70 58 C-69.34 58 -68.68 58 -68 58 C-68 56.68 -68 55.36 -68 54 C-67.34 54 -66.68 54 -66 54 C-66 52.68 -66 51.36 -66 50 C-65.34 50 -64.68 50 -64 50 C-64 48.68 -64 47.36 -64 46 C-63.34 46 -62.68 46 -62 46 C-62 44.68 -62 43.36 -62 42 C-61.34 42 -60.68 42 -60 42 C-60 41.34 -60 40.68 -60 40 C-59.34 40 -58.68 40 -58 40 C-58 38.68 -58 37.36 -58 36 C-57.34 36 -56.68 36 -56 36 C-56 35.34 -56 34.68 -56 34 C-55.34 34 -54.68 34 -54 34 C-54 33.34 -54 32.68 -54 32 C-53.34 32 -52.68 32 -52 32 C-51.67 30.68 -51.34 29.36 -51 28 C-50.34 28 -49.68 28 -49 28 C-49 27.34 -49 26.68 -49 26 C-48.34 26 -47.68 26 -47 26 C-47 25.34 -47 24.68 -47 24 C-46.34 23.34 -45.68 22.68 -45 22 C-44.01 22 -43.02 22 -42 22 C-42 21.34 -42 20.68 -42 20 C-41.34 20 -40.68 20 -40 20 C-40 19.34 -40 18.68 -40 18 C-39.34 18 -38.68 18 -38 18 C-38 17.34 -38 16.68 -38 16 C-36.68 16 -35.36 16 -34 16 C-34 15.34 -34 14.68 -34 14 C-33.34 13.34 -32.68 12.68 -32 12 C-30.68 12 -29.36 12 -28 12 C-28 11.34 -28 10.68 -28 10 C-26.68 10 -25.36 10 -24 10 C-24 9.34 -24 8.68 -24 8 C-22.68 8 -21.36 8 -20 8 C-20 7.34 -20 6.68 -20 6 C-18.35 6 -16.7 6 -15 6 C-15 5.34 -15 4.68 -15 4 C-13.02 4 -11.04 4 -9 4 C-9 3.34 -9 2.68 -9 2 C-6.03 2 -3.06 2 0 2 C0 1.34 0 0.68 0 0 Z " fill="#1E0256" transform="translate(585,225)"/>
<path d="M0 0 C1.32 0.66 2.64 1.32 4 2 C3.99476318 3.11560303 3.98952637 4.23120605 3.98413086 5.38061523 C3.96608225 9.50479333 3.95456851 13.62896791 3.94506836 17.75317383 C3.94002782 19.54094021 3.93319546 21.32870245 3.92456055 23.11645508 C3.9124827 25.68051168 3.90676906 28.24451397 3.90234375 30.80859375 C3.89718246 31.6127623 3.89202118 32.41693085 3.88670349 33.24546814 C3.88650785 35.16401715 3.93798017 37.08245368 4 39 C4.33 39.33 4.66 39.66 5 40 C5.07258946 42.18639453 5.08373783 44.37500389 5.0625 46.5625 C5.05347656 47.76003906 5.04445313 48.95757812 5.03515625 50.19140625 C5.02355469 51.11824219 5.01195312 52.04507813 5 53 C5.66 53 6.32 53 7 53 C7.33 55.97 7.66 58.94 8 62 C8.33 62 8.66 62 9 62 C9 64.31 9 66.62 9 69 C9.66 69 10.32 69 11 69 C12.29243536 73.1196377 13.26252625 76.66831683 13 81 C13.66 81 14.32 81 15 81 C15 82.98 15 84.96 15 87 C15.66 87 16.32 87 17 87 C17 88.32 17 89.64 17 91 C17.66 91 18.32 91 19 91 C19 92.32 19 93.64 19 95 C19.66 95 20.32 95 21 95 C21 96.32 21 97.64 21 99 C21.66 99 22.32 99 23 99 C23 100.32 23 101.64 23 103 C23.66 103 24.32 103 25 103 C25 104.32 25 105.64 25 107 C25.66 107 26.32 107 27 107 C27 108.32 27 109.64 27 111 C27.66 111 28.32 111 29 111 C30.99785435 115.1205746 31.17835515 118.45194365 31 123 C30.34 123 29.68 123 29 123 C29 124.98 29 126.96 29 129 C28.34 129 27.68 129 27 129 C27 129.66 27 130.32 27 131 C26.34 131 25.68 131 25 131 C25 131.66 25 132.32 25 133 C24.34 133 23.68 133 23 133 C23 131.02 23 129.04 23 127 C23.99 126.505 23.99 126.505 25 126 C25.62092718 124.18703385 25.62092718 124.18703385 26 122 C26.226875 121.154375 26.45375 120.30875 26.6875 119.4375 C27.30360761 116.74474036 27.30360761 116.74474036 25 114 C25 112.68 25 111.36 25 110 C24.34 110 23.68 110 23 110 C22.32332002 108.75539217 21.65905281 107.50403104 21 106.25 C20.443125 105.20585937 20.443125 105.20585937 19.875 104.140625 C19 102 19 102 19 98 C18.34 98 17.68 98 17 98 C14.875 93.375 14.875 93.375 16 90 C14.515 89.505 14.515 89.505 13 89 C11.19733731 85.58442859 10.781066 82.83134499 11 79 C10.34 78.67 9.68 78.34 9 78 C8.67 77.01 8.34 76.02 8 75 C8.66 75 9.32 75 10 75 C9.27573413 72.03734313 9.27573413 72.03734313 7.50830078 70.59545898 C5.61237147 68.58997209 5.35989145 67.17052409 4.8671875 64.47265625 C4.70089844 63.59802734 4.53460938 62.72339844 4.36328125 61.82226562 C4.20214844 60.91154297 4.04101562 60.00082031 3.875 59.0625 C3.5396528 57.26160873 3.20373603 55.4608234 2.8671875 53.66015625 C2.72394043 52.86230713 2.58069336 52.06445801 2.43310547 51.24243164 C2.1523919 49.78901892 1.82692911 48.3432674 1.44970703 46.91186523 C0.82634793 44.26174302 0.93839974 41.71041126 1 39 C0.34 39 -0.32 39 -1 39 C-0.7215625 37.2984375 -0.7215625 37.2984375 -0.4375 35.5625 C0.07855536 31.5825114 -0.2184802 28.0286933 -0.84375 24.078125 C-1.01316392 21.82491985 -0.65820329 20.14884015 0 18 C0.66 18 1.32 18 2 18 C1.67 16.02 1.34 14.04 1 12 C0.34 12.66 -0.32 13.32 -1 14 C-1.027193 12.41676312 -1.04648306 10.83338938 -1.0625 9.25 C-1.07410156 8.36828125 -1.08570313 7.4865625 -1.09765625 6.578125 C-1.00826198 4.2181162 -0.66912821 2.25501476 0 0 Z " fill="#633EFC" transform="translate(424,294)"/>
<path d="M0 0 C0.66 0 1.32 0 2 0 C2 0.66 2 1.32 2 2 C2.66 2 3.32 2 4 2 C4 3.32 4 4.64 4 6 C4.66 6 5.32 6 6 6 C6 8.64 6 11.28 6 14 C5.34 14 4.68 14 4 14 C4 15.98 4 17.96 4 20 C3.34 20 2.68 20 2 20 C2 20.66 2 21.32 2 22 C1.34 22 0.68 22 0 22 C0 22.66 0 23.32 0 24 C-0.66 24 -1.32 24 -2 24 C-2 24.66 -2 25.32 -2 26 C-2.66 26 -3.32 26 -4 26 C-4 26.66 -4 27.32 -4 28 C-4.66 28 -5.32 28 -6 28 C-6 28.66 -6 29.32 -6 30 C-6.66 30 -7.32 30 -8 30 C-8 30.66 -8 31.32 -8 32 C-8.66 32 -9.32 32 -10 32 C-10 32.66 -10 33.32 -10 34 C-10.66 34 -11.32 34 -12 34 C-12 34.66 -12 35.32 -12 36 C-12.66 36 -13.32 36 -14 36 C-14 36.66 -14 37.32 -14 38 C-14.66 38 -15.32 38 -16 38 C-16 38.66 -16 39.32 -16 40 C-16.66 40 -17.32 40 -18 40 C-18 40.66 -18 41.32 -18 42 C-18.66 42 -19.32 42 -20 42 C-20 42.66 -20 43.32 -20 44 C-20.66 44 -21.32 44 -22 44 C-22 44.66 -22 45.32 -22 46 C-22.66 46 -23.32 46 -24 46 C-24 46.66 -24 47.32 -24 48 C-24.66 48 -25.32 48 -26 48 C-26 48.66 -26 49.32 -26 50 C-26.66 50 -27.32 50 -28 50 C-28 50.66 -28 51.32 -28 52 C-28.66 52 -29.32 52 -30 52 C-30 52.66 -30 53.32 -30 54 C-30.66 54 -31.32 54 -32 54 C-32 54.66 -32 55.32 -32 56 C-32.66 56 -33.32 56 -34 56 C-34 56.66 -34 57.32 -34 58 C-34.66 58 -35.32 58 -36 58 C-36 58.66 -36 59.32 -36 60 C-36.66 60 -37.32 60 -38 60 C-38 60.66 -38 61.32 -38 62 C-38.66 62 -39.32 62 -40 62 C-40 62.66 -40 63.32 -40 64 C-40.66 64 -41.32 64 -42 64 C-42 64.66 -42 65.32 -42 66 C-42.66 66 -43.32 66 -44 66 C-44 66.66 -44 67.32 -44 68 C-44.66 68 -45.32 68 -46 68 C-46 68.66 -46 69.32 -46 70 C-46.66 70 -47.32 70 -48 70 C-48 70.66 -48 71.32 -48 72 C-48.66 72 -49.32 72 -50 72 C-50 72.66 -50 73.32 -50 74 C-50.66 74 -51.32 74 -52 74 C-52 74.66 -52 75.32 -52 76 C-52.66 76 -53.32 76 -54 76 C-54 76.66 -54 77.32 -54 78 C-54.66 78 -55.32 78 -56 78 C-56 78.66 -56 79.32 -56 80 C-56.66 80 -57.32 80 -58 80 C-58 80.66 -58 81.32 -58 82 C-58.66 82 -59.32 82 -60 82 C-60 82.66 -60 83.32 -60 84 C-60.66 84 -61.32 84 -62 84 C-62 84.66 -62 85.32 -62 86 C-62.66 86 -63.32 86 -64 86 C-64 86.66 -64 87.32 -64 88 C-64.66 88 -65.32 88 -66 88 C-66 88.66 -66 89.32 -66 90 C-66.66 90 -67.32 90 -68 90 C-68 90.66 -68 91.32 -68 92 C-68.66 92 -69.32 92 -70 92 C-70 92.66 -70 93.32 -70 94 C-70.66 94 -71.32 94 -72 94 C-72 94.66 -72 95.32 -72 96 C-72.66 96 -73.32 96 -74 96 C-74 96.66 -74 97.32 -74 98 C-74.99 98 -75.98 98 -77 98 C-77 98.66 -77 99.32 -77 100 C-78.32 100 -79.64 100 -81 100 C-80.67 98.68 -80.34 97.36 -80 96 C-78.68 96 -77.36 96 -76 96 C-73.87423226 93.74539785 -72.28627217 91.56157224 -70.87890625 88.80078125 C-68.14309041 84.72265245 -64.61307894 81.67440958 -61 78.375 C-59.45833053 76.94802305 -57.91796715 75.51963377 -56.37890625 74.08984375 C-55.25379639 73.04546143 -55.25379639 73.04546143 -54.10595703 71.97998047 C-51.31812064 69.35891009 -48.62430639 66.6620955 -45.9375 63.9375 C-43.08877959 61.05034108 -40.23535974 58.28912596 -37.125 55.6875 C-33.21091121 52.34996786 -29.74420941 48.64057133 -26.25 44.875 C-25.6945752 44.27647217 -25.13915039 43.67794434 -24.56689453 43.0612793 C-22.19676915 40.48139244 -19.9584058 37.94428806 -17.859375 35.1328125 C-16 33 -16 33 -14.06567383 32.52148438 C-10.56869494 31.63866356 -8.40126954 28.87202287 -5.9375 26.375 C-5.40833984 25.86582031 -4.87917969 25.35664062 -4.33398438 24.83203125 C-0.2016636 20.69452563 2.7962133 16.54148244 3.14453125 10.48828125 C2.98017578 9.41126953 2.98017578 9.41126953 2.8125 8.3125 C2.71582031 7.58675781 2.61914062 6.86101562 2.51953125 6.11328125 C1.96564126 3.86024 1.11297027 2.02899518 0 0 Z " fill="#26A8FD" transform="translate(785,67)"/>
<path d="M0 0 C0 0.66 0 1.32 0 2 C0.99 2.33 1.98 2.66 3 3 C3 2.34 3 1.68 3 1 C6.7499837 0.97094076 10.49993837 0.95318126 14.25 0.9375 C15.84521484 0.92493164 15.84521484 0.92493164 17.47265625 0.91210938 C18.49746094 0.90888672 19.52226563 0.90566406 20.578125 0.90234375 C21.99206543 0.89448853 21.99206543 0.89448853 23.43457031 0.88647461 C26 1 26 1 28.21386719 1.56860352 C30.08834458 2.22445388 30.08834458 2.22445388 32 1 C32.99 1.66 33.98 2.32 35 3 C32.91795642 5.08204358 28.4661444 4.25821292 25.58984375 4.31640625 C24.32679161 4.3475779 24.32679161 4.3475779 23.03822327 4.37937927 C20.33806821 4.44496812 17.63781283 4.50380276 14.9375 4.5625 C13.11131759 4.60567637 11.28514546 4.64929036 9.45898438 4.69335938 C4.97276008 4.80065894 0.4864345 4.90189966 -4 5 C-4 5.33 -4 5.66 -4 6 C-8.62 6 -13.24 6 -18 6 C-18 6.66 -18 7.32 -18 8 C-20.97 8 -23.94 8 -27 8 C-27 8.66 -27 9.32 -27 10 C-29.31 10.33 -31.62 10.66 -34 11 C-34 11.33 -34 11.66 -34 12 C-35.98 12 -37.96 12 -40 12 C-40.33 11.34 -40.66 10.68 -41 10 C-38.35261084 8.5393715 -37.10551666 8 -34 8 C-34 7.34 -34 6.68 -34 6 C-32.8553125 6.061875 -32.8553125 6.061875 -31.6875 6.125 C-28.77281584 6.22080824 -28.77281584 6.22080824 -26 4 C-25.195625 4.185625 -24.39125 4.37125 -23.5625 4.5625 C-22.716875 4.706875 -21.87125 4.85125 -21 5 C-20.4225 4.525625 -19.845 4.05125 -19.25 3.5625 C-16.16602498 1.42085068 -13.84346318 1.88912208 -10.18359375 2.02734375 C-6.44860644 1.98057289 -3.74388226 0 0 0 Z " fill="#3784FD" transform="translate(586,137)"/>
<path d="M0 0 C-0.33 1.32 -0.66 2.64 -1 4 C-1.66 4 -2.32 4 -3 4 C-3 4.66 -3 5.32 -3 6 C-3.66 6 -4.32 6 -5 6 C-5 6.66 -5 7.32 -5 8 C-5.66 8 -6.32 8 -7 8 C-7 8.66 -7 9.32 -7 10 C-7.66 10 -8.32 10 -9 10 C-9 10.66 -9 11.32 -9 12 C-9.66 12 -10.32 12 -11 12 C-11 12.66 -11 13.32 -11 14 C-11.66 14 -12.32 14 -13 14 C-13 14.66 -13 15.32 -13 16 C-13.66 16 -14.32 16 -15 16 C-15 16.66 -15 17.32 -15 18 C-15.66 18 -16.32 18 -17 18 C-17 18.66 -17 19.32 -17 20 C-17.66 20 -18.32 20 -19 20 C-19 20.66 -19 21.32 -19 22 C-19.66 22 -20.32 22 -21 22 C-21 22.66 -21 23.32 -21 24 C-21.66 24 -22.32 24 -23 24 C-23 24.66 -23 25.32 -23 26 C-23.66 26 -24.32 26 -25 26 C-25 26.66 -25 27.32 -25 28 C-25.66 28 -26.32 28 -27 28 C-27 28.66 -27 29.32 -27 30 C-27.66 30 -28.32 30 -29 30 C-29 30.66 -29 31.32 -29 32 C-29.66 32 -30.32 32 -31 32 C-31 32.66 -31 33.32 -31 34 C-31.66 34 -32.32 34 -33 34 C-33 34.66 -33 35.32 -33 36 C-33.66 36 -34.32 36 -35 36 C-35 36.66 -35 37.32 -35 38 C-35.66 38 -36.32 38 -37 38 C-37 38.66 -37 39.32 -37 40 C-37.66 40 -38.32 40 -39 40 C-39 40.66 -39 41.32 -39 42 C-39.99 42 -40.98 42 -42 42 C-42 42.66 -42 43.32 -42 44 C-43.65 44 -45.3 44 -47 44 C-47 44.66 -47 45.32 -47 46 C-49.31 46 -51.62 46 -54 46 C-54 45.34 -54 44.68 -54 44 C-55.65 44 -57.3 44 -59 44 C-59 43.34 -59 42.68 -59 42 C-56.36 42.66 -53.72 43.32 -51 44 C-50.67 43.34 -50.34 42.68 -50 42 C-50 42.66 -50 43.32 -50 44 C-48.9275 43.62875 -47.855 43.2575 -46.75 42.875 C-46.14671875 42.66617188 -45.5434375 42.45734375 -44.921875 42.2421875 C-42.09884458 40.41754589 -40.83708466 37.79889166 -39 35 C-37.01669039 32.75068709 -34.89356021 30.65836976 -32.75 28.5625 C-32.21503906 28.02818359 -31.68007813 27.49386719 -31.12890625 26.94335938 C-27.56647801 23.41900935 -23.85807394 20.10662883 -20.0703125 16.82739258 C-15.75021571 13.01419394 -11.62312714 8.98628666 -7.47265625 4.99023438 C-6.45365234 4.0224707 -6.45365234 4.0224707 -5.4140625 3.03515625 C-4.8051416 2.4512915 -4.1962207 1.86742676 -3.56884766 1.26586914 C-2 0 -2 0 0 0 Z " fill="#8145FF" transform="translate(414,459)"/>
<path d="M0 0 C0.66 0 1.32 0 2 0 C1.5675375 5.18955 0.81368647 10.0192256 -0.5 15.0625 C-2.09103659 21.18605059 -3.07760081 26.89876344 -2.9375 33.25 C-2.99762071 36.85724273 -3.30694364 38.01225348 -5 41 C-5.8423516 44.67571606 -6.24476263 47.40401908 -5 51 C-6.98 51.495 -6.98 51.495 -9 52 C-9.02684679 49.35409986 -9.04676357 46.70846904 -9.0625 44.0625 C-9.07087891 43.30775391 -9.07925781 42.55300781 -9.08789062 41.77539062 C-9.09652441 39.85005687 -9.05224333 37.92464419 -9 36 C-8.505 35.505 -8.505 35.505 -8 35 C-7.79162581 33.17093765 -7.63250341 31.33611866 -7.5 29.5 C-7.11111111 24.11111111 -7.11111111 24.11111111 -6 23 C-5.76807135 21.48530552 -5.58784762 19.96245438 -5.4375 18.4375 C-5.31181641 17.19806641 -5.31181641 17.19806641 -5.18359375 15.93359375 C-5.12300781 15.29550781 -5.06242187 14.65742188 -5 14 C-4.67 14 -4.34 14 -4 14 C-3.67 11.36 -3.34 8.72 -3 6 C-2.34 6 -1.68 6 -1 6 C-1.020625 5.195625 -1.04125 4.39125 -1.0625 3.5625 C-1 1 -1 1 0 0 Z " fill="#663DFA" transform="translate(302,232)"/>
<path d="M0 0 C3.63 0 7.26 0 11 0 C11 0.66 11 1.32 11 2 C14.63 2 18.26 2 22 2 C22 2.66 22 3.32 22 4 C25.3 4 28.6 4 32 4 C32 4.66 32 5.32 32 6 C34.64 6 37.28 6 40 6 C40 6.66 40 7.32 40 8 C42.64 8 45.28 8 48 8 C48 8.66 48 9.32 48 10 C50.31 10 52.62 10 55 10 C54.01 11.32 53.02 12.64 52 14 C51.34 13.67 50.68 13.34 50 13 C50.33 12.34 50.66 11.68 51 11 C50.01 11.33 49.02 11.66 48 12 C47.01 12 46.02 12 45 12 C44.195625 12.061875 43.39125 12.12375 42.5625 12.1875 C40 12 40 12 37.9375 10.4375 C37.298125 9.963125 36.65875 9.48875 36 9 C35.38125 9.165 34.7625 9.33 34.125 9.5 C30.8688172 10.26616066 28.89169614 8.47661079 26 7 C25.01 7.33 24.02 7.66 23 8 C22.67 7.67 22.34 7.34 22 7 C21.34 6.855625 20.68 6.71125 20 6.5625 C19.34 6.376875 18.68 6.19125 18 6 C17.67 5.34 17.34 4.68 17 4 C15.35 4.66 13.7 5.32 12 6 C12 5.34 12 4.68 12 4 C10.329375 4.061875 10.329375 4.061875 8.625 4.125 C5 4 5 4 3 2 C2.01 2.33 1.02 2.66 0 3 C0 2.01 0 1.02 0 0 Z " fill="#26AAFD" transform="translate(637,7)"/>
<path d="M0 0 C0.33 1.32 0.66 2.64 1 4 C0.34 4 -0.32 4 -1 4 C-1.12375 4.5775 -1.2475 5.155 -1.375 5.75 C-2.20548992 8.73976372 -3.6122213 11.27006363 -5.0625 14 C-5.99500661 15.98934744 -6.54074016 17.85678743 -7 20 C-7.66 20 -8.32 20 -9 20 C-9 21.32 -9 22.64 -9 24 C-9.66 24 -10.32 24 -11 24 C-11 25.98 -11 27.96 -11 30 C-11.66 30 -12.32 30 -13 30 C-13 31.32 -13 32.64 -13 34 C-13.66 34 -14.32 34 -15 34 C-15 35.98 -15 37.96 -15 40 C-15.66 40 -16.32 40 -17 40 C-19.6966445 32.11185623 -14.05739612 22.25357945 -11 15 C-10.67386719 14.10667969 -10.34773438 13.21335938 -10.01171875 12.29296875 C-9 10 -9 10 -6.875 8.6875 C-6.25625 8.460625 -5.6375 8.23375 -5 8 C-5.103125 7.236875 -5.20625 6.47375 -5.3125 5.6875 C-5.209375 4.800625 -5.10625 3.91375 -5 3 C-2.5 1.1875 -2.5 1.1875 0 0 Z " fill="#5F40FC" transform="translate(450,225)"/>
<path d="M0 0 C0.33 0 0.66 0 1 0 C2.2620415 7.19363653 2.2620415 7.19363653 1.0390625 10.95703125 C-0.68569608 16.52996108 -0.2885459 22.34953979 -0.25 28.125 C-0.25773437 29.29160156 -0.26546875 30.45820313 -0.2734375 31.66015625 C-0.27085937 32.78550781 -0.26828125 33.91085937 -0.265625 35.0703125 C-0.26336914 36.08883301 -0.26111328 37.10735352 -0.25878906 38.15673828 C0.01135529 41.1247582 0.85966858 43.26914503 2 46 C1.71395102 47.67542976 1.38218767 49.34385343 1 51 C1.31478446 52.33783393 1.64587656 53.67203709 2 55 C1.67 55.99 1.34 56.98 1 58 C1.66 58 2.32 58 3 58 C2.34 59.32 1.68 60.64 1 62 C-1.22372517 60.25261832 -1.94307095 59.375228 -2.3742218 56.53344727 C-2.37359238 55.55432373 -2.37296295 54.5752002 -2.37231445 53.56640625 C-2.37854324 52.45515381 -2.38477203 51.34390137 -2.39118958 50.19897461 C-2.38197983 48.99893799 -2.37277008 47.79890137 -2.36328125 46.5625 C-2.36377975 45.33088135 -2.36427826 44.0992627 -2.36479187 42.83032227 C-2.36184938 39.55650778 -2.34481323 36.28312635 -2.3225708 33.00939941 C-2.31250981 31.00195702 -2.31218759 28.9947666 -2.31567383 26.98730469 C-2.32207635 23.13725403 -2.31417651 19.28752799 -2.30078125 15.4375 C-2.30169266 14.23746338 -2.30260406 13.03742676 -2.30354309 11.80102539 C-2.29401108 10.68977295 -2.28447906 9.57852051 -2.2746582 8.43359375 C-2.27005081 7.45447021 -2.26544342 6.47534668 -2.26069641 5.46655273 C-2 3 -2 3 0 0 Z " fill="#7B3EFE" transform="translate(293,287)"/>
<path d="M0 0 C0.66 0.33 1.32 0.66 2 1 C1.67 1.66 1.34 2.32 1 3 C0.34 3 -0.32 3 -1 3 C-1 3.66 -1 4.32 -1 5 C-1.66 5 -2.32 5 -3 5 C-3 5.66 -3 6.32 -3 7 C-3.66 7 -4.32 7 -5 7 C-5 7.66 -5 8.32 -5 9 C-5.66 9 -6.32 9 -7 9 C-7 9.66 -7 10.32 -7 11 C-7.66 11 -8.32 11 -9 11 C-9 11.66 -9 12.32 -9 13 C-9.66 13 -10.32 13 -11 13 C-11 13.66 -11 14.32 -11 15 C-11.66 15 -12.32 15 -13 15 C-13 15.66 -13 16.32 -13 17 C-13.66 17 -14.32 17 -15 17 C-15 17.66 -15 18.32 -15 19 C-15.66 19 -16.32 19 -17 19 C-17 19.66 -17 20.32 -17 21 C-17.66 21 -18.32 21 -19 21 C-19 21.66 -19 22.32 -19 23 C-19.66 23 -20.32 23 -21 23 C-21 23.66 -21 24.32 -21 25 C-21.66 25 -22.32 25 -23 25 C-23 25.66 -23 26.32 -23 27 C-23.66 27 -24.32 27 -25 27 C-25 27.66 -25 28.32 -25 29 C-25.66 29 -26.32 29 -27 29 C-27 29.66 -27 30.32 -27 31 C-27.66 31 -28.32 31 -29 31 C-29 31.66 -29 32.32 -29 33 C-29.66 33 -30.32 33 -31 33 C-31 33.66 -31 34.32 -31 35 C-31.66 35 -32.32 35 -33 35 C-33 35.66 -33 36.32 -33 37 C-33.66 37 -34.32 37 -35 37 C-35 37.66 -35 38.32 -35 39 C-35.66 39 -36.32 39 -37 39 C-37 39.66 -37 40.32 -37 41 C-37.66 41 -38.32 41 -39 41 C-39 41.66 -39 42.32 -39 43 C-39.66 43 -40.32 43 -41 43 C-41 43.66 -41 44.32 -41 45 C-41.99 45 -42.98 45 -44 45 C-44 45.66 -44 46.32 -44 47 C-45.32 47 -46.64 47 -48 47 C-47.67 45.68 -47.34 44.36 -47 43 C-45.68 43 -44.36 43 -43 43 C-40.13569174 39.9620973 -38.12480566 36.57353679 -36 33 C-33.4345406 30.4345406 -31.52313332 30.45953913 -28 30 C-28 29.34 -28 28.68 -28 28 C-27.34 28 -26.68 28 -26 28 C-26 27.34 -26 26.68 -26 26 C-25.34 26 -24.68 26 -24 26 C-24 25.34 -24 24.68 -24 24 C-23.34 24 -22.68 24 -22 24 C-22 23.34 -22 22.68 -22 22 C-21.34 22 -20.68 22 -20 22 C-20 21.34 -20 20.68 -20 20 C-19.34 20 -18.68 20 -18 20 C-18 19.34 -18 18.68 -18 18 C-17.34 18 -16.68 18 -16 18 C-16 17.34 -16 16.68 -16 16 C-15.34 16 -14.68 16 -14 16 C-14 15.34 -14 14.68 -14 14 C-13.34 14 -12.68 14 -12 14 C-12 13.34 -12 12.68 -12 12 C-11.34 12 -10.68 12 -10 12 C-10 11.34 -10 10.68 -10 10 C-9.34 10 -8.68 10 -8 10 C-8 9.34 -8 8.68 -8 8 C-7.34 8 -6.68 8 -6 8 C-6 7.34 -6 6.68 -6 6 C-5.34 6 -4.68 6 -4 6 C-4 5.34 -4 4.68 -4 4 C-3.34 4 -2.68 4 -2 4 C-2 3.34 -2 2.68 -2 2 C-1.34 2 -0.68 2 0 2 C0 1.34 0 0.68 0 0 Z " fill="#3195FE" transform="translate(752,120)"/>
<path d="M0 0 C0.66 0.33 1.32 0.66 2 1 C1.34 3.64 0.68 6.28 0 9 C0.66 9 1.32 9 2 9 C1.95875 10.093125 1.9175 11.18625 1.875 12.3125 C1.67925334 16.08892229 1.67925334 16.08892229 4 19 C4 21.66666667 4 24.33333333 4 27 C4.66 27.99 5.32 28.98 6 30 C5.625 32.1875 5.625 32.1875 5 34 C5.66 34.33 6.32 34.66 7 35 C7.625 38.0625 7.625 38.0625 8 41 C6.02 41.495 6.02 41.495 4 42 C4 39.69 4 37.38 4 35 C3.34 35 2.68 35 2 35 C1.67 32.03 1.34 29.06 1 26 C0.67 26 0.34 26 0 26 C-0.06058594 25.21753906 -0.12117188 24.43507813 -0.18359375 23.62890625 C-0.26738281 22.61699219 -0.35117187 21.60507812 -0.4375 20.5625 C-0.51871094 19.55316406 -0.59992188 18.54382813 -0.68359375 17.50390625 C-0.73211468 15.06359221 -0.73211468 15.06359221 -2 14 C-2.12514928 12.02380553 -2.1757276 10.04261827 -2.1875 8.0625 C-2.20167969 6.98097656 -2.21585937 5.89945312 -2.23046875 4.78515625 C-2 2 -2 2 0 0 Z " fill="#7F41FF" transform="translate(295,348)"/>
<path d="M0 0 C0.66 0.66 1.32 1.32 2 2 C0 4 0 4 -3.625 4.125 C-4.73875 4.08375 -5.8525 4.0425 -7 4 C-7 4.66 -7 5.32 -7 6 C-9.97 6 -12.94 6 -16 6 C-16 6.66 -16 7.32 -16 8 C-18.31 8.33 -20.62 8.66 -23 9 C-23 9.33 -23 9.66 -23 10 C-24.98 10 -26.96 10 -29 10 C-29.33 9.34 -29.66 8.68 -30 8 C-27.35261084 6.5393715 -26.10551666 6 -23 6 C-23 5.34 -23 4.68 -23 4 C-21.8553125 4.061875 -21.8553125 4.061875 -20.6875 4.125 C-17.77281584 4.22080824 -17.77281584 4.22080824 -15 2 C-14.195625 2.185625 -13.39125 2.37125 -12.5625 2.5625 C-11.2940625 2.7790625 -11.2940625 2.7790625 -10 3 C-6.34712405 0.28980171 -4.68702339 -0.50945906 0 0 Z " fill="#3D78FD" transform="translate(575,139)"/>
<path d="M0 0 C0.70640625 0.28746094 1.4128125 0.57492188 2.140625 0.87109375 C2.67171875 1.09925781 3.2028125 1.32742187 3.75 1.5625 C4.08 1.2325 4.41 0.9025 4.75 0.5625 C5.74 0.5625 6.73 0.5625 7.75 0.5625 C7.75 1.2225 7.75 1.8825 7.75 2.5625 C10.74789757 4.22799865 13.39178712 4.93771621 16.75 5.5625 C23.2017134 7.14713136 23.2017134 7.14713136 25.8125 9.125 C28.36026774 11.01527929 30.64069742 11.20917016 33.75 11.5625 C33.42 12.5525 33.09 13.5425 32.75 14.5625 C31.76 14.5625 30.77 14.5625 29.75 14.5625 C29.75 13.9025 29.75 13.2425 29.75 12.5625 C28.1 12.5625 26.45 12.5625 24.75 12.5625 C24.75 11.9025 24.75 11.2425 24.75 10.5625 C23.1 10.5625 21.45 10.5625 19.75 10.5625 C19.75 9.9025 19.75 9.2425 19.75 8.5625 C17.77 8.5625 15.79 8.5625 13.75 8.5625 C13.75 8.2325 13.75 7.9025 13.75 7.5625 C10.78 7.0675 10.78 7.0675 7.75 6.5625 C7.75 5.9025 7.75 5.2425 7.75 4.5625 C5.44 4.5625 3.13 4.5625 0.75 4.5625 C0.75 3.9025 0.75 3.2425 0.75 2.5625 C-2.55 2.5625 -5.85 2.5625 -9.25 2.5625 C-8.92 1.5725 -8.59 0.5825 -8.25 -0.4375 C-5.06810339 -1.81401614 -3.12070865 -1.30029527 0 0 Z " fill="#3587FB" transform="translate(642.25,142.4375)"/>
<path d="M0 0 C-0.99 1.485 -0.99 1.485 -2 3 C-5.625 3.6875 -5.625 3.6875 -9 4 C-9 4.66 -9 5.32 -9 6 C-10.58074564 6.81752303 -12.16471223 7.62881997 -13.75 8.4375 C-14.63171875 8.88996094 -15.5134375 9.34242187 -16.421875 9.80859375 C-18.65254397 10.8394332 -20.61837938 11.46788086 -23 12 C-24.34136367 12.65035814 -25.67532254 13.3162955 -27 14 C-27.99 14.33 -28.98 14.66 -30 15 C-30 13.68 -30 12.36 -30 11 C-29.01 11 -28.02 11 -27 11 C-27 10.34 -27 9.68 -27 9 C-25.68 9 -24.36 9 -23 9 C-23 8.34 -23 7.68 -23 7 C-21.68 7 -20.36 7 -19 7 C-19 6.34 -19 5.68 -19 5 C-17.68 5 -16.36 5 -15 5 C-15 4.34 -15 3.68 -15 3 C-13.35 3 -11.7 3 -10 3 C-10 2.34 -10 1.68 -10 1 C-6.42181037 -1.33958553 -4.07775191 -0.9267618 0 0 Z " fill="#3782FC" transform="translate(488,28)"/>
<path d="M0 0 C0.66 0 1.32 0 2 0 C2 0.66 2 1.32 2 2 C2.66 2 3.32 2 4 2 C4 3.32 4 4.64 4 6 C4.66 6 5.32 6 6 6 C6 8.64 6 11.28 6 14 C5.34 14 4.68 14 4 14 C4 15.98 4 17.96 4 20 C3.34 20 2.68 20 2 20 C2 20.66 2 21.32 2 22 C1.34 22 0.68 22 0 22 C0 22.66 0 23.32 0 24 C-0.66 24 -1.32 24 -2 24 C-2 24.66 -2 25.32 -2 26 C-2.66 26 -3.32 26 -4 26 C-4 26.66 -4 27.32 -4 28 C-4.66 28 -5.32 28 -6 28 C-6 28.66 -6 29.32 -6 30 C-6.66 30 -7.32 30 -8 30 C-8 30.66 -8 31.32 -8 32 C-8.66 32 -9.32 32 -10 32 C-10 32.66 -10 33.32 -10 34 C-10.66 34 -11.32 34 -12 34 C-12 34.66 -12 35.32 -12 36 C-12.66 36 -13.32 36 -14 36 C-14 36.66 -14 37.32 -14 38 C-14.66 38 -15.32 38 -16 38 C-16 38.66 -16 39.32 -16 40 C-16.66 40 -17.32 40 -18 40 C-18 40.66 -18 41.32 -18 42 C-18.66 42 -19.32 42 -20 42 C-20 42.66 -20 43.32 -20 44 C-20.66 44 -21.32 44 -22 44 C-22 44.66 -22 45.32 -22 46 C-22.66 46 -23.32 46 -24 46 C-24.33 46.66 -24.66 47.32 -25 48 C-25 47.01 -25 46.02 -25 45 C-24.34 45 -23.68 45 -23 45 C-23 44.34 -23 43.68 -23 43 C-22.34 43 -21.68 43 -21 43 C-21 42.34 -21 41.68 -21 41 C-20.34 41 -19.68 41 -19 41 C-19 40.34 -19 39.68 -19 39 C-18.34 39 -17.68 39 -17 39 C-17 38.34 -17 37.68 -17 37 C-16.34 37 -15.68 37 -15 37 C-15 36.34 -15 35.68 -15 35 C-14.34 35 -13.68 35 -13 35 C-12.67322266 34.17435547 -12.67322266 34.17435547 -12.33984375 33.33203125 C-10.26194876 29.71540353 -7.13024619 27.11927871 -4.07617188 24.33007812 C0.09114759 20.3539717 2.80569294 16.37674169 3.14453125 10.48828125 C3.03496094 9.77027344 2.92539062 9.05226563 2.8125 8.3125 C2.71582031 7.58675781 2.61914062 6.86101562 2.51953125 6.11328125 C1.96564126 3.86024 1.11297027 2.02899518 0 0 Z " fill="#3195FC" transform="translate(785,67)"/>
<path d="M0 0 C0.66 0.99 1.32 1.98 2 3 C1.4328125 3.54527344 0.865625 4.09054688 0.28125 4.65234375 C-3.0074807 8.03680805 -5.85256342 11.74544391 -8.78125 15.44140625 C-10.73778289 17.69761935 -12.63187228 19.22928632 -15 21 C-15 21.66 -15 22.32 -15 23 C-16.32 23.33 -17.64 23.66 -19 24 C-19 23.01 -19 22.02 -19 21 C-18.34 21 -17.68 21 -17 21 C-17 20.34 -17 19.68 -17 19 C-16.34 19 -15.68 19 -15 19 C-14.7834375 18.071875 -14.7834375 18.071875 -14.5625 17.125 C-14 15 -14 15 -13 13 C-12.34 13 -11.68 13 -11 13 C-11 12.34 -11 11.68 -11 11 C-10.34 11 -9.68 11 -9 11 C-9 10.34 -9 9.68 -9 9 C-8.34 9 -7.68 9 -7 9 C-6.34 7.02 -5.68 5.04 -5 3 C-4.34 3 -3.68 3 -3 3 C-3 2.34 -3 1.68 -3 1 C-2.01 0.67 -1.02 0.34 0 0 Z " fill="#5A4BFE" transform="translate(370,108)"/>
<path d="M0 0 C0.99 0.33 1.98 0.66 3 1 C0.94196512 4.60156104 -1.24535883 7.88992126 -4 11 C-4.66 11 -5.32 11 -6 11 C-6.226875 11.5775 -6.45375 12.155 -6.6875 12.75 C-8.33038023 15.5663661 -10.39533227 17.08077114 -13 19 C-13.33 18.67 -13.66 18.34 -14 18 C-14.33 18.66 -14.66 19.32 -15 20 C-15.66 20 -16.32 20 -17 20 C-16.67 18.68 -16.34 17.36 -16 16 C-15.34 16 -14.68 16 -14 16 C-14 15.34 -14 14.68 -14 14 C-13.34 14 -12.68 14 -12 14 C-12 13.34 -12 12.68 -12 12 C-11.34 12 -10.68 12 -10 12 C-10 11.34 -10 10.68 -10 10 C-9.34 10 -8.68 10 -8 10 C-8 9.34 -8 8.68 -8 8 C-7.34 8 -6.68 8 -6 8 C-6 7.34 -6 6.68 -6 6 C-5.34 6 -4.68 6 -4 6 C-4 5.34 -4 4.68 -4 4 C-3.34 4 -2.68 4 -2 4 C-2 3.34 -2 2.68 -2 2 C-1.34 2 -0.68 2 0 2 C0 1.34 0 0.68 0 0 Z " fill="#5450FF" transform="translate(389,87)"/>
<path d="M0 0 C1.32 0.66 2.64 1.32 4 2 C4 2.66 4 3.32 4 4 C3.34 4 2.68 4 2 4 C1.896875 4.99 1.79375 5.98 1.6875 7 C1.18091978 10.58224583 0.09842141 13.71481529 -1.234375 17.06640625 C-2.26723834 19.67491315 -3.13308441 22.33256741 -4 25 C-4.66 25 -5.32 25 -6 25 C-6 22.36 -6 19.72 -6 17 C-5.34 17 -4.68 17 -4 17 C-4 15.02 -4 13.04 -4 11 C-3.34 11 -2.68 11 -2 11 C-2 9.02 -2 7.04 -2 5 C-1.34 5 -0.68 5 0 5 C0 3.35 0 1.7 0 0 Z " fill="#5F3DF7" transform="translate(309,206)"/>
<path d="M0 0 C-0.47050781 0.66386719 -0.94101562 1.32773438 -1.42578125 2.01171875 C-2.04839844 2.89472656 -2.67101562 3.77773437 -3.3125 4.6875 C-3.92738281 5.55761719 -4.54226563 6.42773438 -5.17578125 7.32421875 C-7.04996847 9.96174225 -7.04996847 9.96174225 -8.48046875 12.83203125 C-8.98191406 13.54746094 -9.48335938 14.26289063 -10 15 C-11.32 15 -12.64 15 -14 15 C-14 14.01 -14 13.02 -14 12 C-13.34 12 -12.68 12 -12 12 C-12 10.68 -12 9.36 -12 8 C-11.34 8 -10.68 8 -10 8 C-10 7.34 -10 6.68 -10 6 C-9.34 6 -8.68 6 -8 6 C-8 4.68 -8 3.36 -8 2 C-7.34 2 -6.68 2 -6 2 C-6 1.34 -6 0.68 -6 0 C-3.50907189 -1.24546405 -2.58919267 -0.7767578 0 0 Z " fill="#5B42FD" transform="translate(349,141)"/>
<path d="M0 0 C0.84755859 0.00322266 1.69511719 0.00644531 2.56835938 0.00976562 C3.8899707 0.02233398 3.8899707 0.02233398 5.23828125 0.03515625 C6.57729492 0.04192383 6.57729492 0.04192383 7.94335938 0.04882812 C10.14590112 0.06060642 12.34830724 0.07705461 14.55078125 0.09765625 C14.88078125 1.08765625 15.21078125 2.07765625 15.55078125 3.09765625 C12.09248478 3.26509373 8.63413832 3.43147546 5.17578125 3.59765625 C3.69851563 3.66919922 3.69851563 3.66919922 2.19140625 3.7421875 C0.77988281 3.80986328 0.77988281 3.80986328 -0.66015625 3.87890625 C-1.52946777 3.92080078 -2.3987793 3.96269531 -3.29443359 4.00585938 C-4.67844463 4.06482019 -6.06395238 4.09765625 -7.44921875 4.09765625 C-7.44921875 3.10765625 -7.44921875 2.11765625 -7.44921875 1.09765625 C-4.6251011 0.1562837 -2.92003843 -0.01959757 0 0 Z " fill="#28A2FD" transform="translate(578.44921875,4.90234375)"/>
<path d="M0 0 C0.33 1.32 0.66 2.64 1 4 C0.34 4 -0.32 4 -1 4 C-1.12375 4.5775 -1.2475 5.155 -1.375 5.75 C-2.20548992 8.73976372 -3.6122213 11.27006363 -5.0625 14 C-5.99500661 15.98934744 -6.54074016 17.85678743 -7 20 C-7.99 19.67 -8.98 19.34 -10 19 C-10 12.58333333 -10 12.58333333 -9 10 C-6.9375 8.75 -6.9375 8.75 -5 8 C-5.103125 7.236875 -5.20625 6.47375 -5.3125 5.6875 C-5.1578125 4.3571875 -5.1578125 4.3571875 -5 3 C-2.5 1.1875 -2.5 1.1875 0 0 Z " fill="#5346F5" transform="translate(450,225)"/>
<path d="M0 0 C1.32 0.33 2.64 0.66 4 1 C3.79375 1.886875 3.5875 2.77375 3.375 3.6875 C2.96943654 7.26997725 3.34001132 8.85475829 5 12 C5.66 12.66 6.32 13.32 7 14 C7 15.32 7 16.64 7 18 C8.4166747 19.7511573 8.4166747 19.7511573 10 21 C9.34 21.33 8.68 21.66 8 22 C8 22.99 8 23.98 8 25 C7.34 25 6.68 25 6 25 C6 23.68 6 22.36 6 21 C5.34 21 4.68 21 4 21 C4 19.02 4 17.04 4 15 C3.34 15 2.68 15 2 15 C0.2520497 9.75614911 -0.19392201 5.52677733 0 0 Z " fill="#653FED" transform="translate(303,398)"/>
<path d="M0 0 C0.66 0.33 1.32 0.66 2 1 C1.34 3.64 0.68 6.28 0 9 C0.66 9 1.32 9 2 9 C2 14.28 2 19.56 2 25 C1.34 25.33 0.68 25.66 0 26 C-0.06058594 25.21753906 -0.12117188 24.43507813 -0.18359375 23.62890625 C-0.26738281 22.61699219 -0.35117187 21.60507812 -0.4375 20.5625 C-0.51871094 19.55316406 -0.59992188 18.54382813 -0.68359375 17.50390625 C-0.73211468 15.06359221 -0.73211468 15.06359221 -2 14 C-2.12514928 12.02380553 -2.1757276 10.04261827 -2.1875 8.0625 C-2.20167969 6.98097656 -2.21585937 5.89945312 -2.23046875 4.78515625 C-2 2 -2 2 0 0 Z " fill="#7541F9" transform="translate(295,348)"/>
<path d="M0 0 C3.10408807 -0.05807043 6.2080364 -0.09361914 9.3125 -0.125 C10.19357422 -0.14175781 11.07464844 -0.15851562 11.98242188 -0.17578125 C12.82998047 -0.18222656 13.67753906 -0.18867187 14.55078125 -0.1953125 C15.72120972 -0.21102295 15.72120972 -0.21102295 16.9152832 -0.22705078 C19 0 19 0 22 2 C18.91670708 2.91356827 16.20797012 3.08225564 13 3 C9.94729537 2.84188612 9.94729537 2.84188612 7 4 C4.6593935 3.72230092 2.32375692 3.39460023 0 3 C0 2.01 0 1.02 0 0 Z " fill="#2B9BFD" transform="translate(609,5)"/>
<path d="M0 0 C2.31 0 4.62 0 7 0 C7 0.66 7 1.32 7 2 C8.98 2 10.96 2 13 2 C13 2.66 13 3.32 13 4 C14.65 4 16.3 4 18 4 C18 4.66 18 5.32 18 6 C19.98 6 21.96 6 24 6 C23.01 7.485 23.01 7.485 22 9 C16 7 16 7 10 5 C8.96875 4.67 7.9375 4.34 6.875 4 C4.44688427 3.15543801 2.25837794 2.21604966 0 1 C0 0.67 0 0.34 0 0 Z " fill="#2A9DF9" transform="translate(691,19)"/>
<path d="M0 0 C0 0.66 0 1.32 0 2 C-1.65 2.33 -3.3 2.66 -5 3 C-5 3.33 -5 3.66 -5 4 C-6.65 4.33 -8.3 4.66 -10 5 C-10 5.33 -10 5.66 -10 6 C-11.65 6 -13.3 6 -15 6 C-15 6.66 -15 7.32 -15 8 C-16.65 7.67 -18.3 7.34 -20 7 C-20 6.34 -20 5.68 -20 5 C-18.02 5 -16.04 5 -14 5 C-14 4.01 -14 3.02 -14 2 C-13.21625 2.04125 -12.4325 2.0825 -11.625 2.125 C-8.83883881 2.28728734 -8.83883881 2.28728734 -7 0 C-3.86650268 -1.04449911 -3.01031744 -0.93423645 0 0 Z " fill="#3D75FA" transform="translate(545,149)"/>
<path d="M0 0 C1 3 1 3 0 6.3125 C-1.02715661 10.10014001 -0.91702544 12.24019571 0 16 C-1.32 16.33 -2.64 16.66 -4 17 C-4.05423638 15.08364783 -4.09289963 13.16685075 -4.125 11.25 C-4.14820313 10.18265625 -4.17140625 9.1153125 -4.1953125 8.015625 C-4.00322356 5.04977172 -3.63578192 3.44795336 -2 1 C-1.34 0.67 -0.68 0.34 0 0 Z " fill="#7139FF" transform="translate(297,267)"/>
<path d="M0 0 C1.32 0.33 2.64 0.66 4 1 C4 1.99 4 2.98 4 4 C-0.28853694 5.88695626 -4.52761347 7.58192622 -9 9 C-9.33 8.01 -9.66 7.02 -10 6 C-9.01 6 -8.02 6 -7 6 C-7 5.34 -7 4.68 -7 4 C-6.01 4 -5.02 4 -4 4 C-4 3.34 -4 2.68 -4 2 C-2.68 2 -1.36 2 0 2 C0 1.34 0 0.68 0 0 Z " fill="#3B7FFE" transform="translate(453,41)"/>
<path d="M0 0 C1.98 0 3.96 0 6 0 C6 0.66 6 1.32 6 2 C1.05110469 4.1651417 -3.93107817 6.13250249 -9 8 C-9.33 7.01 -9.66 6.02 -10 5 C-8.35 4.67 -6.7 4.34 -5 4 C-5 3.34 -5 2.68 -5 2 C-3.35 2 -1.7 2 0 2 C0 1.34 0 0.68 0 0 Z " fill="#348AFD" transform="translate(498,21)"/>
<path d="M0 0 C-0.33 0.66 -0.66 1.32 -1 2 C-5.29 2 -9.58 2 -14 2 C-13.67 1.01 -13.34 0.02 -13 -1 C-8.03045858 -2.65651381 -4.73482302 -2.16449052 0 0 Z " fill="#3684FB" transform="translate(634,141)"/>
<path d="M0 0 C1.32 0.66 2.64 1.32 4 2 C2.90259375 3.62957312 1.79681808 5.25351228 0.6875 6.875 C0.07261719 7.77992188 -0.54226563 8.68484375 -1.17578125 9.6171875 C-3 12 -3 12 -6 14 C-6 13.01 -6 12.02 -6 11 C-5.34 11 -4.68 11 -4 11 C-4 9.68 -4 8.36 -4 7 C-3.34 7 -2.68 7 -2 7 C-2 5.68 -2 4.36 -2 3 C-1.34 3 -0.68 3 0 3 C0 2.01 0 1.02 0 0 Z " fill="#5D42FA" transform="translate(333,156)"/>
<path d="M0 0 C2.31 0 4.62 0 7 0 C7 0.99 7 1.98 7 3 C5.56342755 3.33730842 4.12569907 3.66969591 2.6875 4 C1.48673828 4.2784375 1.48673828 4.2784375 0.26171875 4.5625 C-2 5 -2 5 -5 5 C-5 4.01 -5 3.02 -5 2 C-3.35 2 -1.7 2 0 2 C0 1.34 0 0.68 0 0 Z " fill="#348CFD" transform="translate(510,17)"/>
<path d="M0 0 C0.99 0 1.98 0 3 0 C3 0.66 3 1.32 3 2 C2.01 2 1.02 2 0 2 C0 2.66 0 3.32 0 4 C-1.65 4 -3.3 4 -5 4 C-5 4.66 -5 5.32 -5 6 C-7.31 6 -9.62 6 -12 6 C-12 5.34 -12 4.68 -12 4 C-13.65 4 -15.3 4 -17 4 C-17 3.34 -17 2.68 -17 2 C-14.36 2.66 -11.72 3.32 -9 4 C-8.67 3.34 -8.34 2.68 -8 2 C-8 2.66 -8 3.32 -8 4 C-3.70111387 2.48134786 -3.70111387 2.48134786 0 0 Z " fill="#6E4CFF" transform="translate(372,499)"/>
<path d="M0 0 C0.99 0.99 1.98 1.98 3 3 C2.67 3.66 2.34 4.32 2 5 C1.34 5 0.68 5 0 5 C-0.33 6.32 -0.66 7.64 -1 9 C-1.66 9 -2.32 9 -3 9 C-3 9.66 -3 10.32 -3 11 C-4.65 11 -6.3 11 -8 11 C-6.85540568 9.28310852 -5.68352819 7.5822572 -4.4375 5.9375 C-2.95776051 4.06034213 -2.95776051 4.06034213 -2 2 C-1.34 2 -0.68 2 0 2 C0 1.34 0 0.68 0 0 Z " fill="#4D50F6" transform="translate(472,192)"/>
<path d="M0 0 C0.99 0.33 1.98 0.66 3 1 C2.01 1.495 2.01 1.495 1 2 C1 2.66 1 3.32 1 4 C0.34 4 -0.32 4 -1 4 C-1 4.66 -1 5.32 -1 6 C-1.66 6 -2.32 6 -3 6 C-3 6.66 -3 7.32 -3 8 C-3.66 8 -4.32 8 -5 8 C-5 8.66 -5 9.32 -5 10 C-5.66 10 -6.32 10 -7 10 C-7 10.66 -7 11.32 -7 12 C-7.66 12 -8.32 12 -9 12 C-9 12.66 -9 13.32 -9 14 C-9.66 13.67 -10.32 13.34 -11 13 C-9.54300902 11.20724155 -8.08436345 9.41582771 -6.625 7.625 C-5.40683594 6.12839844 -5.40683594 6.12839844 -4.1640625 4.6015625 C-2 2 -2 2 0 0 Z " fill="#20B5FD" transform="translate(769,100)"/>
<path d="M0 0 C1.70506304 0.98369021 3.40777484 1.972558 5.08203125 3.0078125 C8.02728816 4.53142809 10.71581714 4.73190344 14 5 C14 5.66 14 6.32 14 7 C10.37 6.67 6.74 6.34 3 6 C3 5.34 3 4.68 3 4 C2.38125 3.87625 1.7625 3.7525 1.125 3.625 C-1 3 -1 3 -3 1 C-2.01 0.67 -1.02 0.34 0 0 Z " fill="#2F90FB" transform="translate(688,161)"/>
<path d="M0 0 C2.64 0 5.28 0 8 0 C8.33 0.99 8.66 1.98 9 3 C0.585 3.495 0.585 3.495 -8 4 C-4 1 -4 1 -1.75 1.3125 C-0.88375 1.6528125 -0.88375 1.6528125 0 2 C0 1.34 0 0.68 0 0 Z " fill="#2E97FD" transform="translate(585,5)"/>
<path d="M0 0 C0.99 0.33 1.98 0.66 3 1 C3 1.66 3 2.32 3 3 C3.66 3 4.32 3 5 3 C5 4.32 5 5.64 5 7 C5.66 7 6.32 7 7 7 C6.67 8.32 6.34 9.64 6 11 C6 10.34 6 9.68 6 9 C5.01 9.33 4.02 9.66 3 10 C3 8.68 3 7.36 3 6 C2.34 6 1.68 6 1 6 C0.34 4.35 -0.32 2.7 -1 1 C-0.67 0.67 -0.34 0.34 0 0 Z " fill="#6F3FFF" transform="translate(446,398)"/>
<path d="M0 0 C0.66 0.99 1.32 1.98 2 3 C-0.33333333 5.33333333 -2.66666667 7.66666667 -5 10 C-6.125 5.25 -6.125 5.25 -5 3 C-4.34 3 -3.68 3 -3 3 C-3 2.34 -3 1.68 -3 1 C-2.01 0.67 -1.02 0.34 0 0 Z " fill="#4E48F3" transform="translate(370,108)"/>
<path d="M0 0 C2.64 0 5.28 0 8 0 C7.34 1.32 6.68 2.64 6 4 C2.66666667 4 -0.66666667 4 -4 4 C-4 3.34 -4 2.68 -4 2 C-2.68 2 -1.36 2 0 2 C0 1.34 0 0.68 0 0 Z " fill="#3194FD" transform="translate(554,7)"/>
<path d="M0 0 C1.65 0 3.3 0 5 0 C5 0.66 5 1.32 5 2 C3.75264433 2.6509259 2.50198168 3.29551669 1.25 3.9375 C0.55390625 4.29714844 -0.1421875 4.65679687 -0.859375 5.02734375 C-2.90224433 5.95558182 -4.81115376 6.53166578 -7 7 C-6.67 6.01 -6.34 5.02 -6 4 C-5.01 4 -4.02 4 -3 4 C-3 3.34 -3 2.68 -3 2 C-2.01 2 -1.02 2 0 2 C0 1.34 0 0.68 0 0 Z " fill="#4270FE" transform="translate(430,55)"/>
<path d="M0 0 C0.33 0.66 0.66 1.32 1 2 C1.66 2 2.32 2 3 2 C3 2.99 3 3.98 3 5 C3.99 5.33 4.98 5.66 6 6 C6.12375 6.969375 6.2475 7.93875 6.375 8.9375 C6.684375 10.4534375 6.684375 10.4534375 7 12 C7.66 12.33 8.32 12.66 9 13 C7.35 12.67 5.7 12.34 4 12 C4 10.68 4 9.36 4 8 C3.34 8 2.68 8 2 8 C2 6.68 2 5.36 2 4 C1.34 4 0.68 4 0 4 C0 2.68 0 1.36 0 0 Z " fill="#7146FB" transform="translate(327,459)"/>
<path d="M0 0 C0.66 0.33 1.32 0.66 2 1 C1.67 2.32 1.34 3.64 1 5 C0.01 5 -0.98 5 -2 5 C-2 5.66 -2 6.32 -2 7 C-2.66 7 -3.32 7 -4 7 C-4 7.66 -4 8.32 -4 9 C-4.99 9.33 -5.98 9.66 -7 10 C-7 5.69032084 -4.83274712 4.10253255 -2 1 C-1.34 0.67 -0.68 0.34 0 0 Z " fill="#4561FB" transform="translate(481,184)"/>
<path d="M0 0 C3.63 0 7.26 0 11 0 C11 0.99 11 1.98 11 3 C8.125 3.625 8.125 3.625 5 4 C4.34 3.34 3.68 2.68 3 2 C2.01 2.33 1.02 2.66 0 3 C0 2.01 0 1.02 0 0 Z " fill="#2998F7" transform="translate(637,7)"/>
<path d="M0 0 C0.33 0.66 0.66 1.32 1 2 C1.99 2.33 2.98 2.66 4 3 C4 5.31 4 7.62 4 10 C2.68 9.67 1.36 9.34 0 9 C0 6.03 0 3.06 0 0 Z " fill="#6047F8" transform="translate(451,407)"/>
<path d="M0 0 C0.66 0 1.32 0 2 0 C2 1.32 2 2.64 2 4 C2.66 4 3.32 4 4 4 C4 5.32 4 6.64 4 8 C4.66 8 5.32 8 6 8 C6 8.66 6 9.32 6 10 C4.35 9.67 2.7 9.34 1 9 C0 2.25 0 2.25 0 0 Z " fill="#5A45F1" transform="translate(443,389)"/>
<path d="M0 0 C0.66 0 1.32 0 2 0 C2 0.66 2 1.32 2 2 C2.66 2 3.32 2 4 2 C4 3.32 4 4.64 4 6 C4.66 6 5.32 6 6 6 C6 8.64 6 11.28 6 14 C5.34 14 4.68 14 4 14 C3.81824219 12.98679687 3.81824219 12.98679687 3.6328125 11.953125 C3.46523438 11.06109375 3.29765625 10.1690625 3.125 9.25 C2.96257813 8.36828125 2.80015625 7.4865625 2.6328125 6.578125 C2.03203736 4.13052256 1.22002883 2.19400143 0 0 Z " fill="#3789FA" transform="translate(785,67)"/>
<path d="M0 0 C0.99 0 1.98 0 3 0 C3.433125 0.474375 3.86625 0.94875 4.3125 1.4375 C6.6706906 3.62100982 8.87402561 3.65266951 12 4 C11.67 4.99 11.34 5.98 11 7 C10.01 7 9.02 7 8 7 C8 6.34 8 5.68 8 5 C6.35 5 4.7 5 3 5 C3 4.34 3 3.68 3 3 C1.68 2.67 0.36 2.34 -1 2 C-0.67 1.34 -0.34 0.68 0 0 Z " fill="#2F97FD" transform="translate(664,150)"/>
<path d="M0 0 C1.65 0 3.3 0 5 0 C4.375 1.875 4.375 1.875 3 4 C-0.125 5.25 -0.125 5.25 -3 6 C-3 5.34 -3 4.68 -3 4 C-3.66 3.34 -4.32 2.68 -5 2 C-3.35 1.67 -1.7 1.34 0 1 C0 0.67 0 0.34 0 0 Z " fill="#2F8EFA" transform="translate(524,13)"/>
<path d="M0 0 C1.65 0 3.3 0 5 0 C4 3 4 3 1.0625 4.6875 C-2 6 -2 6 -4 6 C-3.67 4.68 -3.34 3.36 -3 2 C-2.01 2 -1.02 2 0 2 C0 1.34 0 0.68 0 0 Z " fill="#3292FD" transform="translate(533,11)"/>
<path d="M0 0 C1.32 0.33 2.64 0.66 4 1 C4 1.66 4 2.32 4 3 C-0.38461538 6 -0.38461538 6 -3 6 C-3 4.68 -3 3.36 -3 2 C-2.01 2 -1.02 2 0 2 C0 1.34 0 0.68 0 0 Z " fill="#3E75FE" transform="translate(439,49)"/>
<path d="M0 0 C2 3 2 3 2 5 C2.66 5 3.32 5 4 5 C4.33 7.31 4.66 9.62 5 12 C4.67 11.34 4.34 10.68 4 10 C3.34 10 2.68 10 2 10 C2 8.68 2 7.36 2 6 C1.34 6 0.68 6 0 6 C0 4.02 0 2.04 0 0 Z " fill="#7044FA" transform="translate(315,433)"/>
<path d="M0 0 C1.65 0 3.3 0 5 0 C5 0.66 5 1.32 5 2 C7.31 2 9.62 2 12 2 C11.01 3.32 10.02 4.64 9 6 C8.34 5.67 7.68 5.34 7 5 C7.33 4.34 7.66 3.68 8 3 C7.01 3.33 6.02 3.66 5 4 C2.3125 2.0625 2.3125 2.0625 0 0 Z " fill="#2D98F9" transform="translate(680,15)"/>
<path d="M0 0 C5 7.5 5 7.5 5 10 C3.68 9.67 2.36 9.34 1 9 C1 7.68 1 6.36 1 5 C0.34 5 -0.32 5 -1 5 C-0.67 3.35 -0.34 1.7 0 0 Z " fill="#7344FA" transform="translate(336,472)"/>
<path d="M0 0 C2.4294516 3.6441774 2.16179575 5.71241272 2 10 C1.01 10.495 1.01 10.495 0 11 C-0.19491452 9.54263913 -0.38069358 8.08405407 -0.5625 6.625 C-0.66691406 5.81289063 -0.77132813 5.00078125 -0.87890625 4.1640625 C-1 2 -1 2 0 0 Z " fill="#8D3EFF" transform="translate(297,364)"/>
<path d="M0 0 C0.66 0.33 1.32 0.66 2 1 C3.67654729 0.72057545 5.34608154 0.39171753 7 0 C4.47043472 3.0916909 1.77545388 3.90931332 -2 5 C-2.33 4.01 -2.66 3.02 -3 2 C-2.01 2 -1.02 2 0 2 C0 1.34 0 0.68 0 0 Z " fill="#4270FE" transform="translate(446,45)"/>
<path d="M0 0 C1.5778125 0.2475 1.5778125 0.2475 3.1875 0.5 C6.20468796 0.89569678 8.97093972 1.09178971 12 1 C10.79296875 2.51953125 10.79296875 2.51953125 9 4 C6.73828125 4.07421875 6.73828125 4.07421875 4.3125 3.6875 C3.10013672 3.50767578 3.10013672 3.50767578 1.86328125 3.32421875 C1.24839844 3.21722656 0.63351562 3.11023438 0 3 C0 2.01 0 1.02 0 0 Z " fill="#25A9FD" transform="translate(609,5)"/>
<path d="M0 0 C0.66 0.33 1.32 0.66 2 1 C2.625 3.5625 2.625 3.5625 3 6 C1.68 6.33 0.36 6.66 -1 7 C-1.04254356 5.00045254 -1.04080783 2.99958364 -1 1 C-0.67 0.67 -0.34 0.34 0 0 Z " fill="#8A3FFF" transform="translate(302,390)"/>
<path d="M0 0 C0.66 0 1.32 0 2 0 C2.66 2.97 3.32 5.94 4 9 C2.68 9.33 1.36 9.66 0 10 C-0.33 8.68 -0.66 7.36 -1 6 C-0.34 6 0.32 6 1 6 C0.67 4.02 0.34 2.04 0 0 Z " fill="#5C41F1" transform="translate(433,363)"/>
<path d="M0 0 C1.32 0.66 2.64 1.32 4 2 C3.67 2.99 3.34 3.98 3 5 C0.4375 6.1875 0.4375 6.1875 -2 7 C-2 5.68 -2 4.36 -2 3 C-1.34 3 -0.68 3 0 3 C0 2.01 0 1.02 0 0 Z " fill="#5F3EFA" transform="translate(317,188)"/>
<path d="M0 0 C0.33 0.66 0.66 1.32 1 2 C1.66 2 2.32 2 3 2 C2.1875 4.4375 2.1875 4.4375 1 7 C0.01 7.33 -0.98 7.66 -2 8 C-2.66 7.34 -3.32 6.68 -4 6 C-3.34 6 -2.68 6 -2 6 C-2 5.34 -2 4.68 -2 4 C-1.34 4 -0.68 4 0 4 C0 2.68 0 1.36 0 0 Z " fill="#563DF1" transform="translate(349,131)"/>
<path d="M0 0 C0 0.66 0 1.32 0 2 C-0.66 2 -1.32 2 -2 2 C-2 3.32 -2 4.64 -2 6 C-2.66 6 -3.32 6 -4 6 C-4 6.66 -4 7.32 -4 8 C-4.99 7.67 -5.98 7.34 -7 7 C-6.505 6.38125 -6.01 5.7625 -5.5 5.125 C-3.80777227 3.16119096 -3.80777227 3.16119096 -4 1 C-2 0 -2 0 0 0 Z " fill="#6045FF" transform="translate(459,213)"/>
<path d="M0 0 C0.66 0 1.32 0 2 0 C2.66 0.66 3.32 1.32 4 2 C4.66 2 5.32 2 6 2 C6 2.66 6 3.32 6 4 C6.66 4.33 7.32 4.66 8 5 C6.02 5 4.04 5 2 5 C2 4.34 2 3.68 2 3 C1.01 3 0.02 3 -1 3 C-0.67 2.01 -0.34 1.02 0 0 Z " fill="#2D88F4" transform="translate(678,156)"/>
<path d="M0 0 C0.99 0.66 1.98 1.32 3 2 C2.2575 2.680625 2.2575 2.680625 1.5 3.375 C-0.22609337 4.87635519 -0.22609337 4.87635519 0 7 C-1.32 7.33 -2.64 7.66 -4 8 C-4 7.01 -4 6.02 -4 5 C-3.34 5 -2.68 5 -2 5 C-2 4.34 -2 3.68 -2 3 C-1.34 3 -0.68 3 0 3 C0 2.01 0 1.02 0 0 Z " fill="#5C43FA" transform="translate(355,124)"/>
<path d="M0 0 C0.99 0.33 1.98 0.66 3 1 C3 2.65 3 4.3 3 6 C2.01 6.33 1.02 6.66 0 7 C0 4.69 0 2.38 0 0 Z " fill="#6742FF" transform="translate(303,224)"/>
<path d="M0 0 C0 3 0 3 -1 6 C-3.0625 7.1875 -3.0625 7.1875 -5 8 C-5 7.01 -5 6.02 -5 5 C-4.34 5 -3.68 5 -3 5 C-3 3.68 -3 2.36 -3 1 C-2.01 0.67 -1.02 0.34 0 0 Z " fill="#643FFF" transform="translate(326,174)"/>
<path d="M0 0 C0.99 0.33 1.98 0.66 3 1 C2.67 1.66 2.34 2.32 2 3 C1.34 3 0.68 3 0 3 C0 3.66 0 4.32 0 5 C-0.66 5 -1.32 5 -2 5 C-2.33 5.66 -2.66 6.32 -3 7 C-3.33 6.01 -3.66 5.02 -4 4 C-2.68 2.68 -1.36 1.36 0 0 Z " fill="#2D9EFD" transform="translate(757,114)"/>
<path d="M0 0 C0.66 1.32 1.32 2.64 2 4 C1.34 4.66 0.68 5.32 0 6 C-0.99 6 -1.98 6 -3 6 C-3.33 4.68 -3.66 3.36 -4 2 C-2.68 2 -1.36 2 0 2 C0 1.34 0 0.68 0 0 Z " fill="#4177FE" transform="translate(473,31)"/>
<path d="M0 0 C3.875 2.75 3.875 2.75 5 5 C4.34 5 3.68 5 3 5 C3 5.99 3 6.98 3 8 C2.34 8 1.68 8 1 8 C0.67 5.36 0.34 2.72 0 0 Z " fill="#7F40FF" transform="translate(308,415)"/>
<path d="M0 0 C0.99 0.33 1.98 0.66 3 1 C3 2.32 3 3.64 3 5 C2.01 5.33 1.02 5.66 0 6 C-0.38218767 4.34385343 -0.71395102 2.67542976 -1 1 C-0.67 0.67 -0.34 0.34 0 0 Z " fill="#6E3AFF" transform="translate(450,416)"/>
<path d="M0 0 C1.32 0.33 2.64 0.66 4 1 C3.67 2.65 3.34 4.3 3 6 C2.01 6 1.02 6 0 6 C0 4.02 0 2.04 0 0 Z " fill="#883EFF" transform="translate(303,398)"/>
<path d="M0 0 C0.99 0.33 1.98 0.66 3 1 C3.33 2.98 3.66 4.96 4 7 C3.01 6.67 2.02 6.34 1 6 C-0.1875 3.4375 -0.1875 3.4375 -1 1 C-0.67 0.67 -0.34 0.34 0 0 Z " fill="#6E3AFF" transform="translate(440,386)"/>
<path d="M0 0 C0.33 0.66 0.66 1.32 1 2 C1.66 2.33 2.32 2.66 3 3 C1.625 5.5 1.625 5.5 0 8 C-0.66 8 -1.32 8 -2 8 C-1.33333333 5.33333333 -0.66666667 2.66666667 0 0 Z " fill="#5538E9" transform="translate(445,230)"/>
<path d="M0 0 C1.98 0 3.96 0 6 0 C6 0.66 6 1.32 6 2 C5.01 2 4.02 2 3 2 C3 2.66 3 3.32 3 4 C1.68 4 0.36 4 -1 4 C-0.67 2.68 -0.34 1.36 0 0 Z " fill="#358EFD" transform="translate(705,163)"/>
<path d="M0 0 C0.66 0 1.32 0 2 0 C1.67 1.65 1.34 3.3 1 5 C-0.65 5 -2.3 5 -4 5 C-2 2 -2 2 0 0 Z " fill="#5A4AFF" transform="translate(468,198)"/>
<path d="M0 0 C0.33 0 0.66 0 1 0 C1 1.98 1 3.96 1 6 C0.01 6.495 0.01 6.495 -1 7 C-1.66 6.67 -2.32 6.34 -3 6 C-2.67 4.68 -2.34 3.36 -2 2 C-1.34 2 -0.68 2 0 2 C0 1.34 0 0.68 0 0 Z " fill="#5253F9" transform="translate(359,119)"/>
<path d="M0 0 C0.66 0 1.32 0 2 0 C1.67 1.65 1.34 3.3 1 5 C-0.32 5 -1.64 5 -3 5 C-3 4.01 -3 3.02 -3 2 C-2.01 2 -1.02 2 0 2 C0 1.34 0 0.68 0 0 Z " fill="#5248F3" transform="translate(398,79)"/>
</svg>
