<?xml version="1.0" encoding="UTF-8"?>
<svg version="1.1" xmlns="http://www.w3.org/2000/svg" width="498" height="501">
<path d="M0 0 C6.06674349 0.0868228 9.72853494 2.88556361 14.1875 6.75 C17.23087402 10.31509529 18.48283255 12.58717912 18.1875 17.3125 C16.5065767 23.51898603 13.78824846 25.97241052 8.375 29.3125 C7.715 29.9725 7.055 30.6325 6.375 31.3125 C7.2 31.828125 8.025 32.34375 8.875 32.875 C11.375 35.3125 11.375 35.3125 11.8125 38.9375 C11.375 42.3125 11.375 42.3125 9.375 44.3125 C7.5546875 44.33203125 7.5546875 44.33203125 5.25 44.125 C0.11070849 44.01179975 -4.31162544 45.08995327 -9.1875 46.5625 C-9.90244629 46.76721924 -10.61739258 46.97193848 -11.35400391 47.18286133 C-13.62359666 47.8614475 -13.62359666 47.8614475 -16.625 49.3125 C-17.70594974 51.36685653 -17.70594974 51.36685653 -17.625 53.3125 C-16.61179687 52.879375 -15.59859375 52.44625 -14.5546875 52 C-13.20335603 51.43694522 -11.85178041 50.87447613 -10.5 50.3125 C-9.83484375 50.02632813 -9.1696875 49.74015625 -8.484375 49.4453125 C-4.40592826 47.76595208 -1.11444248 46.77010739 3.375 47.3125 C6.48067268 49.72802319 8.0890129 51.32254466 9.1875 55.125 C9.249375 55.846875 9.31125 56.56875 9.375 57.3125 C5.4294363 60.81628243 1.60248279 62.70490893 -3.25 64.5625 C-3.91773438 64.830625 -4.58546875 65.09875 -5.2734375 65.375 C-8.20273543 66.52328479 -10.45143716 67.3125 -13.625 67.3125 C-12.965 69.2925 -12.305 71.2725 -11.625 73.3125 C-10.490625 72.97476563 -9.35625 72.63703125 -8.1875 72.2890625 C-6.66669294 71.838453 -5.14585811 71.38793718 -3.625 70.9375 C-2.88121094 70.71578125 -2.13742187 70.4940625 -1.37109375 70.265625 C15.63018476 65.23916005 15.63018476 65.23916005 22.375 66.3125 C24.9375 68 24.9375 68 26.375 70.3125 C26.8125 72.875 26.8125 72.875 26.375 75.3125 C24.07955064 78.26379203 21.73452067 79.03263073 18.1875 80 C17.28644531 80.25136719 16.38539063 80.50273437 15.45703125 80.76171875 C14.76996094 80.94347656 14.08289063 81.12523437 13.375 81.3125 C13.7359375 81.79460937 14.096875 82.27671875 14.46875 82.7734375 C15.16484375 83.72089844 15.16484375 83.72089844 15.875 84.6875 C16.3390625 85.31398438 16.803125 85.94046875 17.28125 86.5859375 C18.375 88.3125 18.375 88.3125 18.375 90.3125 C18.93727295 90.1585376 19.4995459 90.0045752 20.07885742 89.84594727 C24.22058187 88.88372845 28.4600985 88.64277302 32.6875 88.25 C33.61240234 88.15912109 34.53730469 88.06824219 35.49023438 87.97460938 C50.31245236 86.57350419 50.31245236 86.57350419 57.375 90.3125 C59.87025328 94.05537993 59.57816334 95.77472393 58.98046875 100.078125 C58.01967011 103.62378191 56.36285059 105.27532914 53.375 107.3125 C50.51462751 107.23915712 48.59226258 106.40815243 45.98828125 105.26171875 C40.66247356 103.86261468 35.47956297 104.10359621 30 104.1875 C28.32357422 104.20103516 28.32357422 104.20103516 26.61328125 104.21484375 C23.86696538 104.23831654 21.12109528 104.27115272 18.375 104.3125 C19.29587402 104.71335815 19.29587402 104.71335815 20.23535156 105.12231445 C23.59094288 106.9888717 25.07367855 109.8228171 26.375 113.3125 C26.87748599 116.46005541 26.82333542 119.45004918 26.625 122.625 C26.57843262 123.4600708 26.53186523 124.2951416 26.48388672 125.15551758 C25.89088453 131.73553644 23.91544013 135.88401595 19.3828125 140.79296875 C17.375 142.3125 17.375 142.3125 14.375 142.3125 C14.375 143.6325 14.375 144.9525 14.375 146.3125 C15.1484375 147.055 15.1484375 147.055 15.9375 147.8125 C16.411875 148.3075 16.88625 148.8025 17.375 149.3125 C17.1323132 151.74422176 16.81682238 152.93327916 14.94140625 154.54296875 C8.68419471 157.53130565 2.85292895 157.69239528 -3.94995117 157.87744141 C-9.44105622 158.08227788 -13.65642723 159.08088488 -18.65625 161.4609375 C-21.37328074 162.63616112 -23.70402346 162.51165749 -26.625 162.3125 C-28.11 162.6528125 -28.11 162.6528125 -29.625 163 C-33.60830435 163.41492754 -35.32343942 162.53746474 -38.625 160.3125 C-42.53476174 155.49485352 -43.40149752 151.45197236 -44.125 145.5 C-45.0730373 138.78976891 -46.48208313 133.38158086 -49.625 127.3125 C-49.625 126.6525 -49.625 125.9925 -49.625 125.3125 C-50.285 125.3125 -50.945 125.3125 -51.625 125.3125 C-52.1875 123.375 -52.1875 123.375 -52.625 121.3125 C-52.295 120.9825 -51.965 120.6525 -51.625 120.3125 C-46.82038016 120.47265399 -44.54256047 120.60968773 -40.6875 123.5625 C-38.6244225 126.31327 -37.91507771 127.92826008 -37.625 131.3125 C-36.965 131.3125 -36.305 131.3125 -35.625 131.3125 C-35.7075 130.260625 -35.79 129.20875 -35.875 128.125 C-35.59375 126.17578125 -35.59375 126.17578125 -34.625 124.3125 C-31.88643092 122.71343826 -29.10830294 121.71665574 -26.125 120.64453125 C-22.34409413 119.20559274 -18.9075472 117.45359079 -15.375 115.5 C-14.27671875 114.89542969 -13.1784375 114.29085937 -12.046875 113.66796875 C-11.24765625 113.22066406 -10.4484375 112.77335937 -9.625 112.3125 C-10.19532959 112.34802979 -10.76565918 112.38355957 -11.35327148 112.42016602 C-13.92271664 112.57720077 -16.49256512 112.72620463 -19.0625 112.875 C-20.40924805 112.95911133 -20.40924805 112.95911133 -21.78320312 113.04492188 C-22.63720703 113.09326172 -23.49121094 113.14160156 -24.37109375 113.19140625 C-25.55723267 113.26210327 -25.55723267 113.26210327 -26.76733398 113.33422852 C-28.625 113.3125 -28.625 113.3125 -29.625 112.3125 C-32.16053821 112.80451515 -34.62556966 113.36163312 -37.125 114 C-37.85388428 114.18498047 -38.58276855 114.36996094 -39.33374023 114.56054688 C-46.15760903 116.35290418 -52.18532778 118.73740496 -58.125 122.5625 C-62.5914016 124.7957008 -65.74527041 124.71301382 -70.625 124.3125 C-71.40488281 124.28027344 -72.18476563 124.24804688 -72.98828125 124.21484375 C-78.71678302 123.83936212 -82.48017073 122.45732927 -86.625 118.3125 C-86.66563832 116.64632885 -86.667721 114.97861905 -86.625 113.3125 C-85.10132813 112.96638672 -85.10132813 112.96638672 -83.546875 112.61328125 C-75.86306115 110.81232878 -68.7651197 108.70384448 -61.53125 105.484375 C-56.70817071 103.53958496 -51.69610882 102.41843331 -46.625 101.3125 C-46.625 99.9925 -46.625 98.6725 -46.625 97.3125 C-47.285 97.3125 -47.945 97.3125 -48.625 97.3125 C-48.295 95.6625 -47.965 94.0125 -47.625 92.3125 C-48.615 91.52875 -49.605 90.745 -50.625 89.9375 C-51.615 89.07125 -52.605 88.205 -53.625 87.3125 C-53.625 86.6525 -53.625 85.9925 -53.625 85.3125 C-53.07714844 85.15394531 -52.52929688 84.99539063 -51.96484375 84.83203125 C-47.86062387 83.62412264 -43.77766441 82.37606975 -39.7265625 81 C-39.05890869 80.7733667 -38.39125488 80.5467334 -37.70336914 80.31323242 C-36.37306026 79.85905527 -35.04408079 79.40096292 -33.71655273 78.9387207 C-30.87862511 77.9700068 -28.64827659 77.3125 -25.625 77.3125 C-25.955 75.9925 -26.285 74.6725 -26.625 73.3125 C-27.49125 73.5290625 -27.49125 73.5290625 -28.375 73.75 C-29.1175 73.935625 -29.86 74.12125 -30.625 74.3125 C-31.5221875 74.68375 -31.5221875 74.68375 -32.4375 75.0625 C-36.97048247 75.58055514 -40.97744267 72.74420489 -44.625 70.3125 C-44.8125 67.6875 -44.8125 67.6875 -44.625 65.3125 C-43.48160156 64.75820313 -42.33820313 64.20390625 -41.16015625 63.6328125 C-39.66911537 62.90135848 -38.17823838 62.16957033 -36.6875 61.4375 C-35.93275391 61.07269531 -35.17800781 60.70789063 -34.40039062 60.33203125 C-33.32241211 59.80029297 -33.32241211 59.80029297 -32.22265625 59.2578125 C-31.22504272 58.77078857 -31.22504272 58.77078857 -30.20727539 58.27392578 C-28.44450756 57.39497732 -28.44450756 57.39497732 -27.625 55.3125 C-28.6975 55.869375 -29.77 56.42625 -30.875 57 C-36.6563834 59.19899047 -42.03167109 57.46992687 -47.625 55.3125 C-49.984375 53.6953125 -49.984375 53.6953125 -51.625 52.3125 C-51.295 51.3225 -50.965 50.3325 -50.625 49.3125 C-48.734375 48.6171875 -48.734375 48.6171875 -46.375 48.1875 C-45.56675781 48.0328125 -44.75851563 47.878125 -43.92578125 47.71875 C-43.16652344 47.5846875 -42.40726563 47.450625 -41.625 47.3125 C-40.614375 47.10625 -39.60375 46.9 -38.5625 46.6875 C-37.923125 46.56375 -37.28375 46.44 -36.625 46.3125 C-36.625 45.6525 -36.625 44.9925 -36.625 44.3125 C-37.48738281 43.93544922 -37.48738281 43.93544922 -38.3671875 43.55078125 C-40.91982888 42.15080319 -42.68733122 40.55090451 -44.75 38.5 C-45.43320313 37.83355469 -46.11640625 37.16710937 -46.8203125 36.48046875 C-49.95384466 32.71616064 -50.89461206 29.34450393 -50.75 24.5 C-50.73195312 23.70980469 -50.71390625 22.91960937 -50.6953125 22.10546875 C-50.67210937 21.51378906 -50.64890625 20.92210937 -50.625 20.3125 C-48.40234375 19.625 -48.40234375 19.625 -45.625 19.3125 C-43.37890625 20.5625 -43.37890625 20.5625 -41.1875 22.3125 C-37.65826005 24.87241876 -37.65826005 24.87241876 -33.375 25.4375 C-30.28049217 24.17156498 -28.17601302 22.44983524 -25.625 20.3125 C-24.635 20.3125 -23.645 20.3125 -22.625 20.3125 C-21.635 23.7775 -21.635 23.7775 -20.625 27.3125 C-20.00625 26.6525 -19.3875 25.9925 -18.75 25.3125 C-16.625 23.3125 -16.625 23.3125 -14.625 23.3125 C-14.36847656 22.72339844 -14.11195313 22.13429687 -13.84765625 21.52734375 C-12.52073089 19.12361634 -11.09141736 17.70907352 -9.0625 15.875 C-6.21142304 13.09490421 -4.73083421 11.44003403 -4.625 7.3125 C-4.625 6.24 -4.625 5.1675 -4.625 4.0625 C-4.625 -0.10257698 -4.28737894 0.36960163 0 0 Z M-10.625 84.3125 C-10.625 87.6125 -10.625 90.9125 -10.625 94.3125 C-7.99598712 92.79043991 -5.78134036 91.46884036 -3.625 89.3125 C-3.625 87.9925 -3.625 86.6725 -3.625 85.3125 C-5.935 84.9825 -8.245 84.6525 -10.625 84.3125 Z M-34.765625 90.68359375 C-37.49650288 92.23929877 -39.53501548 92.91215529 -42.625 93.3125 C-40.39622275 95.95823501 -40.39622275 95.95823501 -37.625 98.3125 C-33.90023735 98.05997372 -31.32451924 95.88452051 -28.375 93.75 C-27.48296875 93.10933594 -26.5909375 92.46867187 -25.671875 91.80859375 C-24.99640625 91.31488281 -24.3209375 90.82117188 -23.625 90.3125 C-24.285 88.6625 -24.945 87.0125 -25.625 85.3125 C-28.55776262 85.3125 -32.38780572 89.09302545 -34.765625 90.68359375 Z M-8.6875 131.875 C-12.8631778 134.97308353 -16.48650214 135.63365612 -21.625 135.3125 C-23.29467574 134.99458209 -24.96199411 134.66364145 -26.625 134.3125 C-26.65225341 136.0415774 -26.67150987 137.77078176 -26.6875 139.5 C-26.69910156 140.46292969 -26.71070313 141.42585937 -26.72265625 142.41796875 C-26.62986622 145.16826513 -26.24611685 147.63729591 -25.625 150.3125 C-20.45767363 149.00334131 -17.29244407 146.5952516 -13.5625 142.9375 C-10.74711581 140.24107571 -7.96440622 137.57994043 -4.8984375 135.1640625 C-2.12105956 132.90207428 -0.48840373 130.34915794 1.375 127.3125 C-2.42079036 127.3125 -5.73014546 129.6345799 -8.6875 131.875 Z " fill="#363739" transform="translate(270.625,227.6875)"/>
<path d="M0 0 C3.51073453 -0.5015335 5.99800719 -0.69686729 8.98828125 1.3828125 C11.5972392 3.8783375 13.61369276 6.11376574 15.0625 9.4375 C14.93363436 14.72099133 13.41748988 19.33769808 11 24 C11 24.99 11 25.98 11 27 C11.72703125 26.62488281 12.4540625 26.24976563 13.203125 25.86328125 C18.54543629 23.14418179 23.91827504 20.48219443 29.375 18 C30.31085938 17.566875 31.24671875 17.13375 32.2109375 16.6875 C35.76947888 15.81032453 37.6890288 16.54966103 41 18 C42.66342837 19.66342837 42.36048097 21.7825709 42.5625 24.0625 C42.64628906 24.98160156 42.73007812 25.90070313 42.81640625 26.84765625 C42.87699219 27.55792969 42.93757813 28.26820313 43 29 C37.34147885 33.52681692 30.88495429 35.0420624 24 37 C22.515 37.495 22.515 37.495 21 38 C21 38.66 21 39.32 21 40 C18.15529499 42.22494357 15.04934077 44.06840745 12 46 C10.6696875 46.928125 10.6696875 46.928125 9.3125 47.875 C6.21172273 49.38348624 4.42770428 49.47046921 1 49 C-0.23675856 48.19910349 -1.46537966 47.38556064 -2.6875 46.5625 C-4.67059929 45.3162815 -4.67059929 45.3162815 -7 45 C-11.10565777 46.76037107 -14.47823576 49.280447 -18 52 C-18.99 52.66 -19.98 53.32 -21 54 C-21.93586445 56.14875914 -21.93586445 56.14875914 -22.5625 58.5625 C-23.25390625 61.00390625 -23.25390625 61.00390625 -24 63 C-26.72627345 64.36313672 -29.30131364 64.26999661 -32.3203125 64.42578125 C-39.24801547 65.91028903 -45.14017268 70.27261976 -50.875 74.25 C-57.73314607 79 -57.73314607 79 -60 79 C-60.10920422 86.74136601 -59.97159933 94.31395526 -59 102 C-57.515 101.505 -57.515 101.505 -56 101 C-55.67 100.34 -55.34 99.68 -55 99 C-54.34 99 -53.68 99 -53 99 C-53 98.34 -53 97.68 -53 97 C-52.34 97 -51.68 97 -51 97 C-51 96.34 -51 95.68 -51 95 C-50.34 95 -49.68 95 -49 95 C-48.77183594 94.43152344 -48.54367188 93.86304688 -48.30859375 93.27734375 C-46.13921747 89.50198145 -42.70168467 87.10378304 -39.41015625 84.31640625 C-37.02026726 82.01947891 -35.60755927 79.87441196 -34 77 C-33.34 76.34 -32.68 75.68 -32 75 C-31.01 75 -30.02 75 -29 75 C-28.6309795 84.41002278 -28.6309795 84.41002278 -31 89 C-30.01 89.495 -30.01 89.495 -29 90 C-28.3517048 94.37599261 -28.23102003 96.76327065 -30.60546875 100.58203125 C-34.12848854 104.99076333 -37.89506 109.129628 -42 113 C-42.556875 113.598125 -43.11375 114.19625 -43.6875 114.8125 C-45 116 -45 116 -47 116 C-47 116.66 -47 117.32 -47 118 C-52.25301758 122.23312064 -57.21158543 124.70649806 -63.9921875 124.40625 C-67.11330461 123.77473992 -69.34156667 122.90161419 -71.25463867 120.28198242 C-74.34212256 113.59333519 -74.50642435 107.59974601 -74.3125 100.3125 C-74.30283203 99.21099609 -74.29316406 98.10949219 -74.28320312 96.97460938 C-74.21224771 91.86273456 -73.9251995 87.03761115 -73 82 C-73.825 81.443125 -74.65 80.88625 -75.5 80.3125 C-78 78 -78 78 -78.3125 75.25 C-78.209375 74.5075 -78.10625 73.765 -78 73 C-77.34 73 -76.68 73 -76 73 C-76 72.34 -76 71.68 -76 71 C-74.9275 70.835 -73.855 70.67 -72.75 70.5 C-65.30336571 68.61511218 -57.42394205 63.73013657 -53 57.375 C-49.96568367 51.71548864 -48.55643362 45.19095386 -47 39 C-47.56847656 39.42152344 -48.13695312 39.84304687 -48.72265625 40.27734375 C-53.43154274 43.6183734 -57.03238526 46.10656455 -63 46 C-67.70629553 45.07798299 -71.08377662 43.85077885 -74.625 40.5625 C-76 38 -76 38 -75.9296875 36.0234375 C-74.5329434 32.98346504 -72.4998962 32.42987693 -69.5 31.0625 C-65.71770189 29.29831855 -62.11085194 27.50626694 -58.5625 25.3125 C-52.0274386 21.64619961 -44.52058866 19.49705876 -37.0625 20.5625 C-31.5221584 23.1630685 -26.53856034 25.87386089 -24.3125 31.84375 C-23.90911043 34.62713802 -24.59459337 35.98672272 -25.8125 38.5 C-26.16957031 39.2528125 -26.52664062 40.005625 -26.89453125 40.78125 C-29.12301587 45.25396825 -29.12301587 45.25396825 -30 47 C-28.22077152 46.12095843 -26.45186799 45.22100077 -24.6875 44.3125 C-23.70136719 43.81363281 -22.71523437 43.31476563 -21.69921875 42.80078125 C-18.72871851 40.81901481 -17.73016911 39.05950726 -16 36 C-15.01 35.67 -14.02 35.34 -13 35 C-12.30674755 33.34421521 -11.64438717 31.67540664 -11 30 C-9.7622375 28.33357516 -8.46631342 26.70926831 -7.125 25.125 C-2.81474023 19.86038144 1.15516642 14.96987701 2 8 C0.68 7.01 -0.64 6.02 -2 5 C-1.34 3.35 -0.68 1.7 0 0 Z M-32 47 C-31.67 47.66 -31.34 48.32 -31 49 C-30.67 48.34 -30.34 47.68 -30 47 C-30.66 47 -31.32 47 -32 47 Z M-33 90 C-32 92 -32 92 -32 92 Z " fill="#414041" transform="translate(264,109)"/>
<path d="M0 0 C6.06674349 0.0868228 9.72853494 2.88556361 14.1875 6.75 C17.23087402 10.31509529 18.48283255 12.58717912 18.1875 17.3125 C16.5065767 23.51898603 13.78824846 25.97241052 8.375 29.3125 C7.715 29.9725 7.055 30.6325 6.375 31.3125 C7.2 31.828125 8.025 32.34375 8.875 32.875 C11.375 35.3125 11.375 35.3125 11.8125 38.9375 C11.375 42.3125 11.375 42.3125 9.375 44.3125 C7.5546875 44.33203125 7.5546875 44.33203125 5.25 44.125 C0.11070849 44.01179975 -4.31162544 45.08995327 -9.1875 46.5625 C-9.90244629 46.76721924 -10.61739258 46.97193848 -11.35400391 47.18286133 C-13.62359666 47.8614475 -13.62359666 47.8614475 -16.625 49.3125 C-17.70594974 51.36685653 -17.70594974 51.36685653 -17.625 53.3125 C-16.61179688 52.879375 -15.59859375 52.44625 -14.5546875 52 C-13.20335603 51.43694522 -11.85178041 50.87447613 -10.5 50.3125 C-9.50226563 49.88324219 -9.50226563 49.88324219 -8.484375 49.4453125 C-4.40592826 47.76595208 -1.11444248 46.77010739 3.375 47.3125 C6.48067268 49.72802319 8.0890129 51.32254466 9.1875 55.125 C9.249375 55.846875 9.31125 56.56875 9.375 57.3125 C5.4294363 60.81628243 1.60248279 62.70490893 -3.25 64.5625 C-3.91773438 64.830625 -4.58546875 65.09875 -5.2734375 65.375 C-8.20273543 66.52328479 -10.45143716 67.3125 -13.625 67.3125 C-12.965 69.2925 -12.305 71.2725 -11.625 73.3125 C-6.675 72.3225 -6.675 72.3225 -1.625 71.3125 C-3.625 74.3125 -3.625 74.3125 -6.0078125 74.82421875 C-6.91273438 74.88222656 -7.81765625 74.94023437 -8.75 75 C-9.66007812 75.06574219 -10.57015625 75.13148438 -11.5078125 75.19921875 C-12.55582031 75.25529297 -12.55582031 75.25529297 -13.625 75.3125 C-11.99918243 80.27559296 -11.99918243 80.27559296 -8.4375 83.75 C-7.5403125 84.0284375 -7.5403125 84.0284375 -6.625 84.3125 C-7.945 84.3125 -9.265 84.3125 -10.625 84.3125 C-10.13 88.7675 -10.13 88.7675 -9.625 93.3125 C-7.645 92.3225 -7.645 92.3225 -5.625 91.3125 C-6 93.25 -6 93.25 -6.625 95.3125 C-7.615 95.8075 -7.615 95.8075 -8.625 96.3125 C-9.615 95.8175 -9.615 95.8175 -10.625 95.3125 C-10.625 95.9725 -10.625 96.6325 -10.625 97.3125 C-9.965 97.3125 -9.305 97.3125 -8.625 97.3125 C-8.625 98.3025 -8.625 99.2925 -8.625 100.3125 C-10.275 100.3125 -11.925 100.3125 -13.625 100.3125 C-13.728125 99.631875 -13.83125 98.95125 -13.9375 98.25 C-14.77225019 94.68334011 -16.11972754 91.65027806 -17.625 88.3125 C-18.016875 88.786875 -18.40875 89.26125 -18.8125 89.75 C-21.03308374 91.66429633 -22.75875709 91.92516988 -25.625 92.3125 C-25.13 90.8275 -25.13 90.8275 -24.625 89.3125 C-25.285 88.3225 -25.945 87.3325 -26.625 86.3125 C-27.40875 86.828125 -28.1925 87.34375 -29 87.875 C-29.86625 88.349375 -30.7325 88.82375 -31.625 89.3125 C-33.625 88.3125 -33.625 88.3125 -34.75 85.25 C-35.03875 84.280625 -35.3275 83.31125 -35.625 82.3125 C-37.605 82.3125 -39.585 82.3125 -41.625 82.3125 C-38.82892978 80.84758849 -36.05493234 79.69004078 -33.0625 78.6875 C-32.29808594 78.42710937 -31.53367188 78.16671875 -30.74609375 77.8984375 C-28.625 77.3125 -28.625 77.3125 -25.625 77.3125 C-25.955 75.9925 -26.285 74.6725 -26.625 73.3125 C-27.49125 73.5290625 -27.49125 73.5290625 -28.375 73.75 C-29.1175 73.935625 -29.86 74.12125 -30.625 74.3125 C-31.223125 74.56 -31.82125 74.8075 -32.4375 75.0625 C-36.97048247 75.58055514 -40.97744267 72.74420489 -44.625 70.3125 C-44.8125 67.6875 -44.8125 67.6875 -44.625 65.3125 C-43.48160156 64.75820313 -42.33820313 64.20390625 -41.16015625 63.6328125 C-39.66911537 62.90135848 -38.17823838 62.16957033 -36.6875 61.4375 C-35.93275391 61.07269531 -35.17800781 60.70789063 -34.40039062 60.33203125 C-33.68173828 59.97753906 -32.96308594 59.62304688 -32.22265625 59.2578125 C-31.22504272 58.77078857 -31.22504272 58.77078857 -30.20727539 58.27392578 C-28.44450756 57.39497732 -28.44450756 57.39497732 -27.625 55.3125 C-28.6975 55.869375 -29.77 56.42625 -30.875 57 C-36.6563834 59.19899047 -42.03167109 57.46992687 -47.625 55.3125 C-49.984375 53.6953125 -49.984375 53.6953125 -51.625 52.3125 C-51.295 51.3225 -50.965 50.3325 -50.625 49.3125 C-48.734375 48.6171875 -48.734375 48.6171875 -46.375 48.1875 C-45.56675781 48.0328125 -44.75851563 47.878125 -43.92578125 47.71875 C-42.78689453 47.51765625 -42.78689453 47.51765625 -41.625 47.3125 C-40.614375 47.10625 -39.60375 46.9 -38.5625 46.6875 C-37.923125 46.56375 -37.28375 46.44 -36.625 46.3125 C-36.625 45.6525 -36.625 44.9925 -36.625 44.3125 C-37.19992188 44.06113281 -37.77484375 43.80976563 -38.3671875 43.55078125 C-40.91982888 42.15080319 -42.68733122 40.55090451 -44.75 38.5 C-45.43320313 37.83355469 -46.11640625 37.16710937 -46.8203125 36.48046875 C-49.95384466 32.71616064 -50.89461206 29.34450393 -50.75 24.5 C-50.73195312 23.70980469 -50.71390625 22.91960937 -50.6953125 22.10546875 C-50.67210937 21.51378906 -50.64890625 20.92210937 -50.625 20.3125 C-48.40234375 19.625 -48.40234375 19.625 -45.625 19.3125 C-43.37890625 20.5625 -43.37890625 20.5625 -41.1875 22.3125 C-37.65826005 24.87241876 -37.65826005 24.87241876 -33.375 25.4375 C-30.28049217 24.17156498 -28.17601302 22.44983524 -25.625 20.3125 C-24.635 20.3125 -23.645 20.3125 -22.625 20.3125 C-21.965 22.6225 -21.305 24.9325 -20.625 27.3125 C-20.00625 26.6525 -19.3875 25.9925 -18.75 25.3125 C-16.625 23.3125 -16.625 23.3125 -14.625 23.3125 C-14.36847656 22.72339844 -14.11195313 22.13429687 -13.84765625 21.52734375 C-12.52073089 19.12361634 -11.09141736 17.70907352 -9.0625 15.875 C-6.21142304 13.09490421 -4.73083421 11.44003403 -4.625 7.3125 C-4.625 6.24 -4.625 5.1675 -4.625 4.0625 C-4.625 -0.10257698 -4.28737894 0.36960163 0 0 Z " fill="#49494A" transform="translate(270.625,227.6875)"/>
<path d="M0 0 C7.35791823 0.42169887 12.93782851 1.01634573 18.4375 6.375 C20 9 20 9 19.875 11.5 C19.27810176 13.20542354 18.629556 14.89342378 17.9375 16.5625 C16.76068061 19.18696827 16.76068061 19.18696827 17 23 C19.45805385 24.8277063 21.79953279 26.35310708 24.4375 27.875 C25.91205903 28.75811235 27.38602142 29.64222173 28.859375 30.52734375 C29.93155273 31.16325439 29.93155273 31.16325439 31.02539062 31.81201172 C34.17579621 33.70739668 37.20651697 35.76796976 40.2421875 37.83984375 C42.13365832 39.1274467 42.13365832 39.1274467 44.8125 40.5 C47.74239375 42.50907 49.11256187 45.01663006 51 48 C51.721875 48.721875 52.44375 49.44375 53.1875 50.1875 C56.28628959 53.28628959 56.18168554 56.55256746 56.42578125 60.76953125 C55.74327068 64.34488477 54.42599514 66.29979505 52 69 C48.98634449 69.52629327 46.85624674 69.67345317 43.875 69.5 C43.1130835 69.47446045 42.35116699 69.4489209 41.56616211 69.42260742 C31.51143802 68.99185864 23.83261663 66.92371395 15 62 C15 61.34 15 60.68 15 60 C13.88625 59.855625 12.7725 59.71125 11.625 59.5625 C8 59 8 59 6 58 C6 57.34 6 56.68 6 56 C8.61973614 54.69013193 10.82769932 54.74060041 13.75 54.5625 C18.12955022 54.23613929 21.90823898 53.70490042 26 52 C22.73985536 48.63118387 19.35922501 45.3918924 15.9375 42.1875 C15.10089844 41.39730469 14.26429688 40.60710937 13.40234375 39.79296875 C10.96534065 37.60125207 10.96534065 37.60125207 7 38 C3.90172102 41.6404778 1.88171437 45.09916191 0.0625 49.5 C-1.88554417 54.11874989 -4.53633625 57.4190768 -8 61 C-9.2065625 62.2684375 -9.2065625 62.2684375 -10.4375 63.5625 C-17.80017578 70.56602086 -22.1917129 74.35502063 -32.5625 74.25 C-33.71395508 74.26160156 -33.71395508 74.26160156 -34.88867188 74.2734375 C-38.77207821 74.25989467 -40.70024677 74.19983549 -44 72 C-43.83984375 70.171875 -43.83984375 70.171875 -43 68 C-40.56640625 66.515625 -40.56640625 66.515625 -37.5625 65.25 C-36.57378906 64.82203125 -35.58507812 64.3940625 -34.56640625 63.953125 C-32 63 -32 63 -30 63 C-29.73445312 62.40703125 -29.46890625 61.8140625 -29.1953125 61.203125 C-27.96895485 58.94277953 -26.68923541 57.5557971 -24.875 55.75 C-19.46304123 49.71792095 -16.37633817 42.28759564 -13 35 C-12.46632813 33.85144531 -11.93265625 32.70289063 -11.3828125 31.51953125 C-10.23817677 29.02008656 -9.10857038 26.51560202 -8 24 C-8.85464844 23.55269531 -9.70929688 23.10539062 -10.58984375 22.64453125 C-11.69457031 22.03996094 -12.79929687 21.43539062 -13.9375 20.8125 C-15.03964844 20.22082031 -16.14179688 19.62914062 -17.27734375 19.01953125 C-20 17 -20 17 -20.87890625 14.26171875 C-20.91886719 13.51535156 -20.95882812 12.76898438 -21 12 C-15.21408489 11.89522488 -9.70690634 12.00749455 -4 13 C-1.97944157 8.60748167 -0.59104765 4.84659077 0 0 Z " fill="#474747" transform="translate(273,160)"/>
<path d="M0 0 C0.9384375 -0.00515625 1.876875 -0.0103125 2.84375 -0.015625 C5.75538728 0.27553873 7.15401197 0.50012368 9.5 2.25 C13.508193 7.70871039 14.16677823 11.89071946 13.75 18.5625 C13.70343262 19.3975708 13.65686523 20.2326416 13.60888672 21.09301758 C13.01588453 27.67303644 11.04044013 31.82151595 6.5078125 36.73046875 C4.5 38.25 4.5 38.25 1.5 38.25 C1.5 39.57 1.5 40.89 1.5 42.25 C2.015625 42.745 2.53125 43.24 3.0625 43.75 C3.536875 44.245 4.01125 44.74 4.5 45.25 C4.2573132 47.68172176 3.94182238 48.87077916 2.06640625 50.48046875 C-4.19080529 53.46880565 -10.02207105 53.62989528 -16.82495117 53.81494141 C-22.31605622 54.01977788 -26.53142723 55.01838488 -31.53125 57.3984375 C-34.24828074 58.57366112 -36.57902346 58.44915749 -39.5 58.25 C-40.49 58.476875 -41.48 58.70375 -42.5 58.9375 C-46.48330435 59.35242754 -48.19843942 58.47496474 -51.5 56.25 C-55.40976174 51.43235352 -56.27649752 47.38947236 -57 41.4375 C-57.9480373 34.72726891 -59.35708313 29.31908086 -62.5 23.25 C-62.5 22.59 -62.5 21.93 -62.5 21.25 C-63.16 21.25 -63.82 21.25 -64.5 21.25 C-65.0625 19.3125 -65.0625 19.3125 -65.5 17.25 C-65.17 16.92 -64.84 16.59 -64.5 16.25 C-59.69538016 16.41015399 -57.41756047 16.54718773 -53.5625 19.5 C-51.4994225 22.25077 -50.79007771 23.86576008 -50.5 27.25 C-49.84 27.25 -49.18 27.25 -48.5 27.25 C-48.62375 25.6721875 -48.62375 25.6721875 -48.75 24.0625 C-48.4765625 22.1171875 -48.4765625 22.1171875 -47.5 20.25 C-44.70619521 18.62569489 -41.88021344 17.59959805 -38.83984375 16.5078125 C-35.57116865 15.2768027 -32.71227548 13.79933363 -29.6875 12.0625 C-26.6899924 10.37181945 -23.95991599 8.92684108 -20.625 8.0625 C-17.44784146 7.23643878 -15.27766834 5.94746398 -12.5 4.25 C-11.51 4.25 -10.52 4.25 -9.5 4.25 C-9.5 3.59 -9.5 2.93 -9.5 2.25 C-6.2396882 0.31226752 -3.77138064 -0.02072187 0 0 Z M-21.5625 27.8125 C-25.7381778 30.91058353 -29.36150214 31.57115612 -34.5 31.25 C-36.16967574 30.93208209 -37.83699411 30.60114145 -39.5 30.25 C-39.52725341 31.9790774 -39.54650987 33.70828176 -39.5625 35.4375 C-39.57410156 36.40042969 -39.58570313 37.36335938 -39.59765625 38.35546875 C-39.50486622 41.10576513 -39.12111685 43.57479591 -38.5 46.25 C-33.33267363 44.94084131 -30.16744407 42.5327516 -26.4375 38.875 C-23.62211581 36.17857571 -20.83940622 33.51744043 -17.7734375 31.1015625 C-14.99605956 28.83957428 -13.36340373 26.28665794 -11.5 23.25 C-15.29579036 23.25 -18.60514546 25.5720799 -21.5625 27.8125 Z " fill="#272727" transform="translate(283.5,331.75)"/>
<path d="M0 0 C0.66 0.33 1.32 0.66 2 1 C1.67 1.66 1.34 2.32 1 3 C2.32 2.67 3.64 2.34 5 2 C4.67 3.98 4.34 5.96 4 8 C4.99 8.33 5.98 8.66 7 9 C7 8.34 7 7.68 7 7 C7.66 7 8.32 7 9 7 C9.33 6.34 9.66 5.68 10 5 C10.99 5.99 11.98 6.98 13 8 C11.04532248 9.33898399 9.0866421 10.67129047 7.125 12 C6.03445312 12.7425 4.94390625 13.485 3.8203125 14.25 C1 16 1 16 -1 16 C-1.10920422 23.74136601 -0.97159933 31.31395526 0 39 C1.485 38.505 1.485 38.505 3 38 C3.33 37.34 3.66 36.68 4 36 C4.66 36 5.32 36 6 36 C6 35.34 6 34.68 6 34 C6.66 34 7.32 34 8 34 C8 33.34 8 32.68 8 32 C8.66 32 9.32 32 10 32 C10.34224609 31.14728516 10.34224609 31.14728516 10.69140625 30.27734375 C12.86078253 26.50198145 16.29831533 24.10378304 19.58984375 21.31640625 C21.97973274 19.01947891 23.39244073 16.87441196 25 14 C25.66 13.34 26.32 12.68 27 12 C27.99 12 28.98 12 30 12 C30.3690205 21.41002278 30.3690205 21.41002278 28 26 C28.66 26.33 29.32 26.66 30 27 C30.6482952 31.37599261 30.76897997 33.76327065 28.39453125 37.58203125 C24.87151146 41.99076333 21.10494 46.129628 17 50 C16.443125 50.598125 15.88625 51.19625 15.3125 51.8125 C14 53 14 53 12 53 C12 53.66 12 54.32 12 55 C6.74698242 59.23312064 1.78841457 61.70649806 -4.9921875 61.40625 C-8.11330461 60.77473992 -10.34156667 59.90161419 -12.25463867 57.28198242 C-15.34212256 50.59333519 -15.50642435 44.59974601 -15.3125 37.3125 C-15.30283203 36.21099609 -15.29316406 35.10949219 -15.28320312 33.97460938 C-15.21224771 28.86273456 -14.9251995 24.03761115 -14 19 C-14.825 18.443125 -15.65 17.88625 -16.5 17.3125 C-19 15 -19 15 -19.3125 12.25 C-19.209375 11.5075 -19.10625 10.765 -19 10 C-18.34 10 -17.68 10 -17 10 C-17 9.34 -17 8.68 -17 8 C-15.2984375 7.690625 -15.2984375 7.690625 -13.5625 7.375 C-8.30070523 6.09484957 -4.31032439 3.17287768 0 0 Z M26 27 C27 29 27 29 27 29 Z " fill="#444445" transform="translate(205,172)"/>
<path d="M0 0 C0.99 0.99 1.98 1.98 3 3 C3.33 2.34 3.66 1.68 4 1 C5.65 1 7.3 1 9 1 C8.360625 1.515625 7.72125 2.03125 7.0625 2.5625 C4.44208319 5.65935623 4.30610183 8.02067623 4 12 C4.66 12 5.32 12 6 12 C6 12.66 6 13.32 6 14 C6.66 14 7.32 14 8 14 C8 15.98 8 17.96 8 20 C9.093125 19.95875 10.18625 19.9175 11.3125 19.875 C15 20 15 20 18 22 C18 22.99 18 23.98 18 25 C18.33 25.66 18.66 26.32 19 27 C15.36617478 29.42255015 13.67648523 29.18172077 9.375 29.0625 C7.25058232 29.00856887 5.12500335 28.97951099 3 29 C2.67 29.33 2.34 29.66 2 30 C0.00041636 30.04080783 -2.00045254 30.04254356 -4 30 C-4.33 29.01 -4.66 28.02 -5 27 C-4.34 26.67 -3.68 26.34 -3 26 C-3.66 25.67 -4.32 25.34 -5 25 C-5.33333333 23.66666667 -5.66666667 22.33333333 -6 21 C-6.66 20.67 -7.32 20.34 -8 20 C-8.58984375 17.19921875 -8.58984375 17.19921875 -8.9375 13.6875 C-9.07027344 12.53636719 -9.20304688 11.38523437 -9.33984375 10.19921875 C-9 7 -9 7 -6.50390625 4.58203125 C-5.67761719 4.05996094 -4.85132813 3.53789062 -4 3 C-4 3.99 -4 4.98 -4 6 C-3.34 6 -2.68 6 -2 6 C-2 4.68 -2 3.36 -2 2 C-1.34 2 -0.68 2 0 2 C0 1.34 0 0.68 0 0 Z " fill="#282828" transform="translate(237,359)"/>
<path d="M0 0 C0.99 0 1.98 0 3 0 C3.3690205 9.41002278 3.3690205 9.41002278 1 14 C1.66 14.33 2.32 14.66 3 15 C3.55049346 19.32530574 3.76356944 21.75800359 1.44140625 25.53515625 C-0.30893552 27.75742115 -2.09930667 29.90535837 -4 32 C-4.82638376 29.10765685 -5 27.11257569 -5 24 C-5.66 24 -6.32 24 -7 24 C-7.33 22.68 -7.66 21.36 -8 20 C-9.65 20.33 -11.3 20.66 -13 21 C-13 20.34 -13 19.68 -13 19 C-12.34 19 -11.68 19 -11 19 C-11 18.34 -11 17.68 -11 17 C-12.32 16.67 -13.64 16.34 -15 16 C-14.31292969 15.40832031 -13.62585938 14.81664062 -12.91796875 14.20703125 C-12.01691406 13.41683594 -11.11585938 12.62664062 -10.1875 11.8125 C-9.29417969 11.03519531 -8.40085938 10.25789062 -7.48046875 9.45703125 C-5.09503348 7.09413552 -3.62875097 4.91023071 -2 2 C-1.34 1.34 -0.68 0.68 0 0 Z M-1 15 C0 17 0 17 0 17 Z " fill="#4F4D4E" transform="translate(232,184)"/>
<path d="M0 0 C4.80461984 0.16015399 7.08243953 0.29718773 10.9375 3.25 C13.0005775 6.00077 13.70992229 7.61576008 14 11 C14.66 11 15.32 11 16 11 C16.33 8.69 16.66 6.38 17 4 C18.32 3.67 19.64 3.34 21 3 C20.814375 3.5775 20.62875 4.155 20.4375 4.75 C19.83231516 6.99032525 19.83231516 6.99032525 20.5625 9.125 C20.706875 9.74375 20.85125 10.3625 21 11 C20.34 11.66 19.68 12.32 19 13 C18.01 13 17.02 13 16 13 C16 14.32 16 15.64 16 17 C14.68 17 13.36 17 12 17 C11.01 17.33 10.02 17.66 9 18 C9.33 22.29 9.66 26.58 10 31 C10.99 31.33 11.98 31.66 13 32 C13 33.32 13 34.64 13 36 C13.99 36.33 14.98 36.66 16 37 C14.68 37.66 13.36 38.32 12 39 C8.80165097 34.5701537 8.25243511 30.51721148 7.5625 25.25 C6.58130576 18.53493084 5.14599119 13.07501747 2 7 C2 6.34 2 5.68 2 5 C1.34 5 0.68 5 0 5 C-0.5625 3.0625 -0.5625 3.0625 -1 1 C-0.67 0.67 -0.34 0.34 0 0 Z " fill="#2A292B" transform="translate(219,348)"/>
<path d="M0 0 C2.5625 1.6875 2.5625 1.6875 4 4 C4.4375 6.5625 4.4375 6.5625 4 9 C1.74395106 11.87067765 -0.46797488 12.67544576 -3.9375 13.625 C-4.79214844 13.86476563 -5.64679688 14.10453125 -6.52734375 14.3515625 C-8.68141513 14.91645326 -10.8375497 15.46816768 -13 16 C-13 15.34 -13 14.68 -13 14 C-13.66 13.67 -14.32 13.34 -15 13 C-14.01 12.67 -13.02 12.34 -12 12 C-12.66 11.01 -13.32 10.02 -14 9 C-14 8.01 -14 7.02 -14 6 C-17.3 5.67 -20.6 5.34 -24 5 C-16.81418982 1.40709491 -8.12111713 -1.51639117 0 0 Z " fill="#3A3A3D" transform="translate(293,294)"/>
<path d="M0 0 C2 1.125 2 1.125 3 3 C3.3125 6.5625 3.3125 6.5625 3 10 C1 12 1 12 -1.13671875 12.16015625 C-2.39935547 12.11181641 -2.39935547 12.11181641 -3.6875 12.0625 C-7.94003796 11.96991935 -11.81493848 12.27216321 -16 13 C-15.34 12.67 -14.68 12.34 -14 12 C-13.34444881 9.47266765 -13.34444881 9.47266765 -13 7 C-13.99 6.34 -14.98 5.68 -16 5 C-18.05396726 5.40929986 -18.05396726 5.40929986 -20 6 C-20.66 5.67 -21.32 5.34 -22 5 C-22 4.01 -22 3.02 -22 2 C-20.989375 2.061875 -19.97875 2.12375 -18.9375 2.1875 C-14.96949197 2.24193194 -14.96949197 2.24193194 -11.5625 0.4375 C-6.95380369 -1.42214939 -4.80279663 -1.12065255 0 0 Z M-24 6 C-20 7 -20 7 -20 7 Z " fill="#565557" transform="translate(279,260)"/>
<path d="M0 0 C3.51073453 -0.5015335 5.99800719 -0.69686729 8.98828125 1.3828125 C12.33133578 4.58051684 14.85293654 7.14690588 15 12 C14.34 11.67 13.68 11.34 13 11 C12.608125 11.433125 12.21625 11.86625 11.8125 12.3125 C9.71680722 14.26366224 7.48410667 15.59010162 5 17 C4.67 15.68 4.34 14.36 4 13 C3.34 13 2.68 13 2 13 C2.0825 12.236875 2.165 11.47375 2.25 10.6875 C2.29166667 7.85416667 2.29166667 7.85416667 0 6.1875 C-0.66 5.795625 -1.32 5.40375 -2 5 C-1.34 3.35 -0.68 1.7 0 0 Z " fill="#4C4B4B" transform="translate(264,109)"/>
<path d="M0 0 C0.66 0.99 1.32 1.98 2 3 C1.125 6.6875 1.125 6.6875 0 10 C-0.66 9.67 -1.32 9.34 -2 9 C-4.09831644 9.54780623 -4.09831644 9.54780623 -6 11 C-7.28254644 13.53770003 -7.28254644 13.53770003 -8 16 C-12.0252789 14.78305522 -15.64861617 13.58535324 -19 11 C-19.8125 8.3125 -19.8125 8.3125 -20 6 C-14.21408489 5.89522488 -8.70690634 6.00749455 -3 7 C-2.01 4.69 -1.02 2.38 0 0 Z " fill="#626062" transform="translate(272,166)"/>
<path d="M0 0 C1.60495567 0.11442461 3.20898119 0.24194694 4.8125 0.375 C5.70582031 0.44460938 6.59914062 0.51421875 7.51953125 0.5859375 C10 1 10 1 13 3 C13 3.99 13 4.98 13 6 C13.33 6.66 13.66 7.32 14 8 C10.32610037 10.44926642 7.26791164 10.830333 3 10 C0 7.6875 0 7.6875 -2 5 C-2 4.01 -2 3.02 -2 2 C-1.34 2 -0.68 2 0 2 C0 1.34 0 0.68 0 0 Z " fill="#1A1B1A" transform="translate(242,378)"/>
<path d="M0 0 C0 1.32 0 2.64 0 4 C-1.0828125 4.0928125 -1.0828125 4.0928125 -2.1875 4.1875 C-5.24393613 4.81436008 -5.24393613 4.81436008 -7.5 7.625 C-10 10 -10 10 -12.6875 9.9375 C-15 9 -15 9 -17 7 C-17.125 4.375 -17.125 4.375 -17 2 C-11.16200408 0.30167391 -6.06892629 -0.25287193 0 0 Z " fill="#333335" transform="translate(201,339)"/>
<path d="M0 0 C-1.65 0.66 -3.3 1.32 -5 2 C-2.49496594 9.0975965 0.72745788 11.81830526 7 16 C5.68 16 4.36 16 3 16 C3 16.66 3 17.32 3 18 C1 18 1 18 -0.5 16.5625 C-0.995 16.046875 -1.49 15.53125 -2 15 C-2.66 14.67 -3.32 14.34 -4 14 C-3.67 15.65 -3.34 17.3 -3 19 C-3.66 18.67 -4.32 18.34 -5 18 C-5 16.68 -5 15.36 -5 14 C-5.66 14 -6.32 14 -7 14 C-6.67 12.35 -6.34 10.7 -6 9 C-6.99 8.21625 -7.98 7.4325 -9 6.625 C-9.99 5.75875 -10.98 4.8925 -12 4 C-12 3.34 -12 2.68 -12 2 C-10.37787941 1.47026689 -8.75218416 0.95146893 -7.125 0.4375 C-6.22007812 0.14746094 -5.31515625 -0.14257812 -4.3828125 -0.44140625 C-2 -1 -2 -1 0 0 Z " fill="#5D5C5D" transform="translate(229,311)"/>
<path d="M0 0 C2.475 0.99 2.475 0.99 5 2 C4.01 3.32 3.02 4.64 2 6 C2.66 6.66 3.32 7.32 4 8 C2.13895086 9.86104914 -0.82036077 9.21673452 -3.3125 9.25 C-4.46363281 9.27578125 -5.61476562 9.3015625 -6.80078125 9.328125 C-10.23619751 8.97577461 -11.64224189 8.49165548 -14 6 C-14 5.01 -14 4.02 -14 3 C-12.80375 3.020625 -11.6075 3.04125 -10.375 3.0625 C-6.81995131 3.06882571 -3.49444376 2.69888875 0 2 C0 1.34 0 0.68 0 0 Z " fill="#3E3D3E" transform="translate(235,275)"/>
<path d="M0 0 C0.75 1.625 0.75 1.625 1 4 C-0.26660533 6.04291182 -1.59886384 8.04690112 -3 10 C-3 10.66 -3 11.32 -3 12 C-1.35 12 0.3 12 2 12 C2.33 11.01 2.66 10.02 3 9 C3.33 9.99 3.66 10.98 4 12 C1.9375 13.1875 1.9375 13.1875 -1 14 C-4.73892586 12.71071522 -7.71275729 11.19149514 -11 9 C-11.1875 6.375 -11.1875 6.375 -11 4 C-4.5 0 -4.5 0 0 0 Z " fill="#5C5A5D" transform="translate(237,289)"/>
<path d="M0 0 C7.10659898 0.23688663 7.10659898 0.23688663 11 3.5625 C11.99 4.7690625 11.99 4.7690625 13 6 C11 6.66666667 9 7.33333333 7 8 C7.165 8.825 7.33 9.65 7.5 10.5 C8.05896045 14.41272317 8.06807187 18.05183173 8 22 C7.67 22 7.34 22 7 22 C6.80664062 21.19175781 6.61328125 20.38351562 6.4140625 19.55078125 C6.15367187 18.48214844 5.89328125 17.41351563 5.625 16.3125 C5.36976563 15.25675781 5.11453125 14.20101563 4.8515625 13.11328125 C4.08094511 10.29593234 3.14501457 7.68331675 2 5 C1.34 5 0.68 5 0 5 C-0.5625 3.0625 -0.5625 3.0625 -1 1 C-0.67 0.67 -0.34 0.34 0 0 Z " fill="#4C4A4C" transform="translate(219,348)"/>
<path d="M0 0 C-0.20625 0.9075 -0.4125 1.815 -0.625 2.75 C-1.0127245 6.11027897 -0.80411967 7.24075815 1 10 C0.01 10.66 -0.98 11.32 -2 12 C-2.72965366 14.56282742 -2.72965366 14.56282742 -3 17 C-3.33 17 -3.66 17 -4 17 C-4 15.35 -4 13.7 -4 12 C-4.66 12 -5.32 12 -6 12 C-6.66 11.01 -7.32 10.02 -8 9 C-9.32 9 -10.64 9 -12 9 C-11.77734375 7.171875 -11.77734375 7.171875 -11 5 C-9.00390625 3.515625 -9.00390625 3.515625 -6.5625 2.25 C-5.75941406 1.82203125 -4.95632812 1.3940625 -4.12890625 0.953125 C-2 0 -2 0 0 0 Z " fill="#525052" transform="translate(245,151)"/>
<path d="M0 0 C7.59 0 15.18 0 23 0 C19.15606532 2.56262312 15.89524291 2.28857807 11.4375 2.375 C4.97174108 2.59545281 -0.12115725 3.33507143 -6.03125 6.1484375 C-8.74828074 7.32366112 -11.07902346 7.19915749 -14 7 C-16.00569659 7.29714023 -18.00822259 7.62061383 -20 8 C-20.33 7.34 -20.66 6.68 -21 6 C-17.28855748 4.28236326 -14.51191957 3.79583033 -10.4375 3.9375 C-5.61999693 4.14520145 -5.61999693 4.14520145 -1 3 C-0.67 2.01 -0.34 1.02 0 0 Z " fill="#7E7E7E" transform="translate(258,383)"/>
<path d="M0 0 C-1.25 1.5 -1.25 1.5 -3 3 C-4.32 3 -5.64 3 -7 3 C-7 3.66 -7 4.32 -7 5 C-3.37 5 0.26 5 4 5 C4.33 5.99 4.66 6.98 5 8 C2.22890693 8.05392397 -0.54113818 8.09363455 -3.3125 8.125 C-4.09818359 8.14175781 -4.88386719 8.15851563 -5.69335938 8.17578125 C-6.45068359 8.18222656 -7.20800781 8.18867188 -7.98828125 8.1953125 C-9.03302612 8.21102295 -9.03302612 8.21102295 -10.09887695 8.22705078 C-12 8 -12 8 -15 6 C-14.9375 4.1875 -14.9375 4.1875 -14 2 C-8.90811417 -0.95329378 -5.87201769 -1.31820805 0 0 Z " fill="#747374" transform="translate(244,226)"/>
<path d="M0 0 C0.66 0.33 1.32 0.66 2 1 C2.55049346 5.32530574 2.76356944 7.75800359 0.44140625 11.53515625 C-1.30893552 13.75742115 -3.09930667 15.90535837 -5 18 C-6.34366181 13.15069422 -5.35215584 10.39069089 -3 6 C-3.99 6.495 -3.99 6.495 -5 7 C-4.34 5.68 -3.68 4.36 -3 3 C-2.34 3 -1.68 3 -1 3 C-0.67 2.01 -0.34 1.02 0 0 Z " fill="#6B6969" transform="translate(233,198)"/>
<path d="M0 0 C1 1 1 1 1.0625 3.5625 C1.041875 4.366875 1.02125 5.17125 1 6 C0.34 5.67 -0.32 5.34 -1 5 C-1.66 6.32 -2.32 7.64 -3 9 C-4.32 9 -5.64 9 -7 9 C-8.41377341 6.36095629 -9.37240135 3.92879371 -10 1 C-6.74696956 -0.62651522 -3.60774398 -0.11453156 0 0 Z " fill="#3A3A3D" transform="translate(280,261)"/>
<path d="M0 0 C0.33 0 0.66 0 1 0 C1.02505615 0.66008057 1.0501123 1.32016113 1.07592773 2.00024414 C1.19271752 5.02115369 1.31506446 8.04181422 1.4375 11.0625 C1.47681641 12.10083984 1.51613281 13.13917969 1.55664062 14.20898438 C1.77666344 19.54030641 2.1116184 24.73689893 3 30 C3.99 29.67 4.98 29.34 6 29 C5.67 30.32 5.34 31.64 5 33 C8.63 33 12.26 33 16 33 C16.33 33.99 16.66 34.98 17 36 C15.58376784 36.05447047 14.16691809 36.09300508 12.75 36.125 C11.96109375 36.14820313 11.1721875 36.17140625 10.359375 36.1953125 C7.68617314 35.97402096 6.27791622 35.40164428 4 34 C-0.85534111 27.41397689 -0.48437573 19.74852183 -0.25 11.9375 C-0.23195312 10.78572266 -0.21390625 9.63394531 -0.1953125 8.44726562 C-0.14856322 5.63062166 -0.08305157 2.81576771 0 0 Z " fill="#9A9395" transform="translate(190,197)"/>
<path d="M0 0 C4.03884885 -0.46963359 5.54121494 -0.35683282 8.8125 2.1875 C10.9882377 4.98487704 11.70197895 6.52308771 12 10 C11.01 10.66 10.02 11.32 9 12 C9 9.69 9 7.38 9 5 C6.525 4.01 6.525 4.01 4 3 C3.67 3.66 3.34 4.32 3 5 C0.69 5 -1.62 5 -4 5 C-4 4.34 -4 3.68 -4 3 C-3.01 2.67 -2.02 2.34 -1 2 C-0.67 1.34 -0.34 0.68 0 0 Z " fill="#5A5A5C" transform="translate(268,275)"/>
<path d="M0 0 C1.9375 0.8125 1.9375 0.8125 4 2 C4.33 2.99 4.66 3.98 5 5 C6.32 4.34 7.64 3.68 9 3 C8.625 4.9375 8.625 4.9375 8 7 C7.01 7.495 7.01 7.495 6 8 C5.34 7.67 4.68 7.34 4 7 C4 7.66 4 8.32 4 9 C4.66 9 5.32 9 6 9 C6 9.99 6 10.98 6 12 C4.35 12 2.7 12 1 12 C0.855625 11.2575 0.71125 10.515 0.5625 9.75 C0.05802414 7.08713438 0.05802414 7.08713438 -0.625 4.875 C-1 3 -1 3 0 0 Z " fill="#414143" transform="translate(256,316)"/>
<path d="M0 0 C0.99 1.98 1.98 3.96 3 6 C-0.28696233 6.79953138 -1.71023192 7.09658936 -5 6 C-5 5.34 -5 4.68 -5 4 C-7.31 4 -9.62 4 -12 4 C-11 2 -11 2 -8.8125 0.875 C-5.73230669 -0.08328236 -3.20690052 -0.14915816 0 0 Z " fill="#2F3034" transform="translate(235,310)"/>
<path d="M0 0 C1.15941038 3.47823115 0.70820884 5.45895578 0 9 C-0.66 9 -1.32 9 -2 9 C-2 9.66 -2 10.32 -2 11 C-3.32 10.34 -4.64 9.68 -6 9 C-5.814375 8.05125 -5.62875 7.1025 -5.4375 6.125 C-4.71313368 3.10131207 -4.71313368 3.10131207 -6 1 C-4.02 0.67 -2.04 0.34 0 0 Z " fill="#454446" transform="translate(270,174)"/>
<path d="M0 0 C1.1446875 0.3403125 1.1446875 0.3403125 2.3125 0.6875 C1.9825 1.6775 1.6525 2.6675 1.3125 3.6875 C2.6325 4.0175 3.9525 4.3475 5.3125 4.6875 C3.5222939 5.35807887 1.73028511 6.0238469 -0.0625 6.6875 C-1.06023437 7.05875 -2.05796875 7.43 -3.0859375 7.8125 C-5.6875 8.6875 -5.6875 8.6875 -7.6875 8.6875 C-5.0095 -0.5825 -5.0095 -0.5825 0 0 Z " fill="#545355" transform="translate(257.6875,269.3125)"/>
<path d="M0 0 C0.99 0 1.98 0 3 0 C2.814375 0.5775 2.62875 1.155 2.4375 1.75 C1.83231516 3.99032525 1.83231516 3.99032525 2.5625 6.125 C2.706875 6.74375 2.85125 7.3625 3 8 C2.34 8.66 1.68 9.32 1 10 C0.01 10 -0.98 10 -2 10 C-2.33 10.66 -2.66 11.32 -3 12 C-5 9 -5 9 -4.625 6.8125 C-4.41875 6.214375 -4.2125 5.61625 -4 5 C-4 5.99 -4 6.98 -4 8 C-3.34 8 -2.68 8 -2 8 C-1.855625 6.865625 -1.71125 5.73125 -1.5625 4.5625 C-1 1 -1 1 0 0 Z " fill="#656465" transform="translate(237,351)"/>
<path d="M0 0 C1.98 0 3.96 0 6 0 C6 0.99 6 1.98 6 3 C5.34 3 4.68 3 4 3 C3.67 3.66 3.34 4.32 3 5 C0.93359375 5.8515625 0.93359375 5.8515625 -1.5625 6.625 C-2.38878906 6.88539063 -3.21507812 7.14578125 -4.06640625 7.4140625 C-4.70449219 7.60742188 -5.34257812 7.80078125 -6 8 C-6 6.68 -6 5.36 -6 4 C-4.02 3.34 -2.04 2.68 0 2 C0 1.34 0 0.68 0 0 Z " fill="#6D6B6D" transform="translate(270,350)"/>
<path d="M0 0 C0 0.66 0 1.32 0 2 C0.99 2.33 1.98 2.66 3 3 C3 6 3 6 1.5 7.6875 C1.005 8.120625 0.51 8.55375 0 9 C-2 8 -2 8 -3.125 4.9375 C-3.41375 3.968125 -3.7025 2.99875 -4 2 C-5.98 2 -7.96 2 -10 2 C-3.75 -1.125 -3.75 -1.125 0 0 Z " fill="#626063" transform="translate(239,308)"/>
<path d="M0 0 C-0.61875 0.28875 -1.2375 0.5775 -1.875 0.875 C-4.13325765 1.93720042 -4.13325765 1.93720042 -6 4 C-12.08695652 3.45652174 -12.08695652 3.45652174 -15 2 C-15 1.34 -15 0.68 -15 0 C-10.61563621 -2.19218189 -4.63098598 -1.15774649 0 0 Z " fill="#7A797A" transform="translate(294,216)"/>
<path d="M0 0 C0.99 0.33 1.98 0.66 3 1 C3.33 1.99 3.66 2.98 4 4 C2.35 4 0.7 4 -1 4 C-1.93423645 7.01031744 -2.04449911 7.86650268 -1 11 C-0.87218214 13.67394964 -0.95608129 16.32095857 -1 19 C-1.33 19 -1.66 19 -2 19 C-2.19335938 18.18015625 -2.38671875 17.3603125 -2.5859375 16.515625 C-2.84632813 15.43796875 -3.10671875 14.3603125 -3.375 13.25 C-3.63023437 12.18265625 -3.88546875 11.1153125 -4.1484375 10.015625 C-4.87533541 7.44147278 -5.7026224 5.32399814 -7 3 C-3.535 2.505 -3.535 2.505 0 2 C0 1.34 0 0.68 0 0 Z " fill="#747173" transform="translate(228,351)"/>
<path d="M0 0 C1.32 0.66 2.64 1.32 4 2 C3.67 2.66 3.34 3.32 3 4 C2.34 3.67 1.68 3.34 1 3 C1 3.66 1 4.32 1 5 C-4.16044765 6.512545 -7.65998179 7.33500455 -13 6 C-13 6.66 -13 7.32 -13 8 C-13.66 8 -14.32 8 -15 8 C-14.67 7.01 -14.34 6.02 -14 5 C-12.109375 4.3046875 -12.109375 4.3046875 -9.75 3.875 C-8.94175781 3.7203125 -8.13351563 3.565625 -7.30078125 3.40625 C-6.54152344 3.2721875 -5.78226563 3.138125 -5 3 C-3.4840625 2.690625 -3.4840625 2.690625 -1.9375 2.375 C-1.298125 2.25125 -0.65875 2.1275 0 2 C0 1.34 0 0.68 0 0 Z " fill="#736F71" transform="translate(234,272)"/>
<path d="M0 0 C0 0.33 0 0.66 0 1 C-0.8353125 1.16435547 -0.8353125 1.16435547 -1.6875 1.33203125 C-5.67843924 2.16122977 -9.37119494 3.08293235 -13.125 4.6875 C-17.13031051 6.29605844 -19.83185284 5.95520039 -24 5 C-16.40361685 0.92734703 -8.53082101 -0.41954857 0 0 Z " fill="#7C7B81" transform="translate(293,294)"/>
<path d="M0 0 C0.05399736 1.45792884 0.09279177 2.91642712 0.125 4.375 C0.14820313 5.18710938 0.17140625 5.99921875 0.1953125 6.8359375 C0 9 0 9 -2 11 C-2.66 9.35 -3.32 7.7 -4 6 C-5.98 6.99 -5.98 6.99 -8 8 C-5.18918919 0 -5.18918919 0 0 0 Z " fill="#767374" transform="translate(235,184)"/>
<path d="M0 0 C7.59 0 15.18 0 23 0 C19.9788566 2.0140956 19.19339983 2.26836596 15.76953125 2.4140625 C14.96708984 2.45273437 14.16464844 2.49140625 13.33789062 2.53125 C12.50451172 2.5621875 11.67113281 2.593125 10.8125 2.625 C9.96751953 2.66367187 9.12253906 2.70234375 8.25195312 2.7421875 C6.16832476 2.83636279 4.08419247 2.91926675 2 3 C2 2.34 2 1.68 2 1 C1.34 0.67 0.68 0.34 0 0 Z " fill="#716F6F" transform="translate(258,383)"/>
<path d="M0 0 C2 2 2 2 2.125 5.625 C2.08375 6.73875 2.0425 7.8525 2 9 C2.99 9.33 3.98 9.66 5 10 C5 11.32 5 12.64 5 14 C5.99 14.33 6.98 14.66 8 15 C6.02 15.99 6.02 15.99 4 17 C1.3428556 13.16031949 0.56759552 10.33023853 0.3125 5.6875 C0.24675781 4.61886719 0.18101562 3.55023438 0.11328125 2.44921875 C0.07589844 1.64097656 0.03851563 0.83273437 0 0 Z " fill="#838283" transform="translate(227,370)"/>
<path d="M0 0 C0.99 0.33 1.98 0.66 3 1 C3 1.66 3 2.32 3 3 C3.66 3.33 4.32 3.66 5 4 C4.360625 4.12375 3.72125 4.2475 3.0625 4.375 C2.381875 4.58125 1.70125 4.7875 1 5 C0.67 5.66 0.34 6.32 0 7 C0.99 7.33 1.98 7.66 3 8 C-0.375 8.125 -0.375 8.125 -4 8 C-4.66 7.34 -5.32 6.68 -6 6 C-4 4 -2 2 0 0 Z " fill="#212325" transform="translate(197,342)"/>
<path d="M0 0 C1.32 0 2.64 0 4 0 C4.68707555 2.49064888 5 4.37886292 5 7 C3.35 7.33 1.7 7.66 0 8 C-0.33 8.99 -0.66 9.98 -1 11 C-1.66 9.68 -2.32 8.36 -3 7 C-1.68 6.34 -0.36 5.68 1 5 C0.67 3.35 0.34 1.7 0 0 Z " fill="#2D2D2F" transform="translate(225,325)"/>
<path d="M0 0 C9.59453303 1.74259681 9.59453303 1.74259681 13 5 C11.68 5 10.36 5 9 5 C9 5.66 9 6.32 9 7 C7 7 7 7 5.5 5.5625 C5.005 5.046875 4.51 4.53125 4 4 C3.34 3.67 2.68 3.34 2 3 C2.33 4.65 2.66 6.3 3 8 C2.34 7.67 1.68 7.34 1 7 C0.59270772 4.67843403 0.25561323 2.3431213 0 0 Z " fill="#5A585B" transform="translate(223,322)"/>
<path d="M0 0 C1.4540625 0.0309375 1.4540625 0.0309375 2.9375 0.0625 C2.9375 1.0525 2.9375 2.0425 2.9375 3.0625 C-0.15138522 5.12175681 -0.77185927 5.3015374 -4.25 5.1875 C-6.1371875 5.125625 -6.1371875 5.125625 -8.0625 5.0625 C-8.3925 4.0725 -8.7225 3.0825 -9.0625 2.0625 C-7.8559375 1.8459375 -7.8559375 1.8459375 -6.625 1.625 C-3.38094737 0.91289089 -3.48783019 0.07118021 0 0 Z " fill="#3E3E41" transform="translate(272.0625,298.9375)"/>
<path d="M0 0 C1.98 0 3.96 0 6 0 C6 0.99 6 1.98 6 3 C7.32 3.66 8.64 4.32 10 5 C10 5.33 10 5.66 10 6 C6.67179946 6.22692276 4.58198664 6.32162419 1.625 4.6875 C0 3 0 3 0 0 Z " fill="#555353" transform="translate(221,278)"/>
<path d="M0 0 C0 0.66 0 1.32 0 2 C-1.65 1.67 -3.3 1.34 -5 1 C-5 4.63 -5 8.26 -5 12 C-5.33 11.34 -5.66 10.68 -6 10 C-6.66 10 -7.32 10 -8 10 C-8.25 3.375 -8.25 3.375 -6 0 C-3 -1 -3 -1 0 0 Z " fill="#878686" transform="translate(249,361)"/>
<path d="M0 0 C-4.79968371 3.19978914 -9.21846437 4.11493778 -14.875 3.75 C-18 3 -18 3 -20 1 C-17.79187393 0.83060951 -15.58348776 0.66460778 -13.375 0.5 C-12.14523437 0.4071875 -10.91546875 0.314375 -9.6484375 0.21875 C-6.41962143 0.02515931 -3.23321325 -0.03979339 0 0 Z " fill="#7B7A7C" transform="translate(313,316)"/>
<path d="M0 0 C0.66 0.66 1.32 1.32 2 2 C1.566875 2.37125 1.13375 2.7425 0.6875 3.125 C-1.46152985 5.51281095 -2.64757984 8.1019568 -4 11 C-4.99 10.67 -5.98 10.34 -7 10 C-6.34 9.34 -5.68 8.68 -5 8 C-6.32 7.34 -7.64 6.68 -9 6 C-6.23776722 3.23776722 -3.79293383 3.42143709 0 3 C0 2.01 0 1.02 0 0 Z " fill="#302E31" transform="translate(246,303)"/>
<path d="M0 0 C2.37071524 0.93391812 4.10040534 2.20077939 6.0625 3.8125 C3.30325815 5.61661967 2.17277897 5.8252245 -1.1875 5.4375 C-2.095 5.23125 -3.0025 5.025 -3.9375 4.8125 C-4.2675 3.8225 -4.5975 2.8325 -4.9375 1.8125 C-1.9375 -0.1875 -1.9375 -0.1875 0 0 Z " fill="#5A585C" transform="translate(248.9375,227.1875)"/>
<path d="M0 0 C0.66 0 1.32 0 2 0 C3.09658936 3.28976808 2.79953138 4.71303767 2 8 C0.35 8 -1.3 8 -3 8 C-3.33 7.01 -3.66 6.02 -4 5 C-2.1875 2.3125 -2.1875 2.3125 0 0 Z " fill="#373739" transform="translate(237,293)"/>
<path d="M0 0 C0.99 0 1.98 0 3 0 C1.58795406 5.26308032 -0.68991307 8.7562988 -4 13 C-4.33 13 -4.66 13 -5 13 C-5.3125 10.3125 -5.3125 10.3125 -5 7 C-2.5 4.25 -2.5 4.25 0 2 C0 1.34 0 0.68 0 0 Z " fill="#716E6F" transform="translate(271,206)"/>
<path d="M0 0 C0.33 0 0.66 0 1 0 C1.125 3.375 1.125 3.375 1 7 C0.34 7.66 -0.32 8.32 -1 9 C-3.3828125 8.9765625 -3.3828125 8.9765625 -6.125 8.625 C-7.03507812 8.51414062 -7.94515625 8.40328125 -8.8828125 8.2890625 C-9.58148438 8.19367188 -10.28015625 8.09828125 -11 8 C-11 7.67 -11 7.34 -11 7 C-8.69 7 -6.38 7 -4 7 C-3.71125 6.21625 -3.4225 5.4325 -3.125 4.625 C-2 2 -2 2 0 0 Z " fill="#676568" transform="translate(281,263)"/>
<path d="M0 0 C1.32 0 2.64 0 4 0 C5.125 1.75 5.125 1.75 6 4 C5.5 6.1875 5.5 6.1875 4 8 C0.875 8.75 0.875 8.75 -2 9 C-0.68 7.68 0.64 6.36 2 5 C0.68 4.01 -0.64 3.02 -2 2 C-1.34 1.34 -0.68 0.68 0 0 Z " fill="#3C3B3E" transform="translate(261,264)"/>
<path d="M0 0 C-1.25 1.5 -1.25 1.5 -3 3 C-4.32 3 -5.64 3 -7 3 C-7 3.66 -7 4.32 -7 5 C-9.475 4.01 -9.475 4.01 -12 3 C-12 2.34 -12 1.68 -12 1 C-7.67265609 -1.22923777 -4.71599818 -0.92470553 0 0 Z " fill="#747273" transform="translate(244,226)"/>
<path d="M0 0 C1.33998047 0.31324219 1.33998047 0.31324219 2.70703125 0.6328125 C3.60808594 0.83648437 4.50914062 1.04015625 5.4375 1.25 C6.46810547 1.50136719 6.46810547 1.50136719 7.51953125 1.7578125 C7.51953125 2.0878125 7.51953125 2.4178125 7.51953125 2.7578125 C6.96265625 2.79519531 6.40578125 2.83257812 5.83203125 2.87109375 C0.23327701 3.35341886 -4.29712239 4.59023129 -9.48046875 6.7578125 C-9.15046875 5.4378125 -8.82046875 4.1178125 -8.48046875 2.7578125 C-7.82046875 3.0878125 -7.16046875 3.4178125 -6.48046875 3.7578125 C-6.15046875 3.0978125 -5.82046875 2.4378125 -5.48046875 1.7578125 C-2.48046875 -0.2421875 -2.48046875 -0.2421875 0 0 Z " fill="#7B787B" transform="translate(230.48046875,170.2421875)"/>
<path d="M0 0 C0.33 0.66 0.66 1.32 1 2 C0.67 2.66 0.34 3.32 0 4 C3.63 4 7.26 4 11 4 C11.33 4.99 11.66 5.98 12 7 C10.58376784 7.05447047 9.16691809 7.09300508 7.75 7.125 C6.96109375 7.14820313 6.1721875 7.17140625 5.359375 7.1953125 C2.79268059 6.9828378 1.2083933 6.28654105 -1 5 C-0.67 3.35 -0.34 1.7 0 0 Z " fill="#736F72" transform="translate(195,226)"/>
<path d="M0 0 C1.98 0 3.96 0 6 0 C5.649375 0.94875 5.29875 1.8975 4.9375 2.875 C3.64973223 5.87060172 3.64973223 5.87060172 5 8 C1.125 6.125 1.125 6.125 0 5 C-0.04063832 3.33382885 -0.042721 1.66611905 0 0 Z " fill="#5E5D5E" transform="translate(184,341)"/>
<path d="M0 0 C0.33 0.99 0.66 1.98 1 3 C0.54625 3.4125 0.0925 3.825 -0.375 4.25 C-2.09686822 5.92669589 -2.09686822 5.92669589 -3 8.125 C-4 10 -4 10 -7 11 C-7.33 11.99 -7.66 12.98 -8 14 C-8.66 13.67 -9.32 13.34 -10 13 C-7.375 8.125 -7.375 8.125 -4 7 C-3.28272222 5.35448038 -2.61674772 3.68577711 -2 2 C-1.34 1.34 -0.68 0.68 0 0 Z " fill="#848182" transform="translate(255,137)"/>
<path d="M0 0 C0 0.66 0 1.32 0 2 C-0.66 2 -1.32 2 -2 2 C-2.33 3.32 -2.66 4.64 -3 6 C-5.64 6 -8.28 6 -11 6 C-3.8 0 -3.8 0 0 0 Z " fill="#6A696B" transform="translate(257,343)"/>
<path d="M0 0 C2.6875 0.3125 2.6875 0.3125 5 1 C5 2.32 5 3.64 5 5 C2.6875 5.6875 2.6875 5.6875 0 6 C-1.8125 4.5625 -1.8125 4.5625 -3 3 C-1.8125 1.4375 -1.8125 1.4375 0 0 Z " fill="#656163" transform="translate(243,320)"/>
<path d="M0 0 C2.47359354 0.95752008 3.73064878 1.49496645 5 3.875 C5 6 5 6 3.0625 8.25 C2.381875 8.8275 1.70125 9.405 1 10 C0.34 9.67 -0.32 9.34 -1 9 C-0.67 8.34 -0.34 7.68 0 7 C0.66 7 1.32 7 2 7 C2 5.68 2 4.36 2 3 C1.01 3 0.02 3 -1 3 C-0.67 2.01 -0.34 1.02 0 0 Z " fill="#686767" transform="translate(283,373)"/>
<path d="M0 0 C0.66 0.33 1.32 0.66 2 1 C1.01858061 3.45354848 0.27754408 4.79646768 -1.875 6.375 C-4 7 -4 7 -6.25 6.125 C-6.8275 5.75375 -7.405 5.3825 -8 5 C-7.05125 4.54625 -6.1025 4.0925 -5.125 3.625 C-1.99686321 2.19761746 -1.99686321 2.19761746 0 0 Z " fill="#626262" transform="translate(253,373)"/>
<path d="M0 0 C1.98 0 3.96 0 6 0 C5.67 1.65 5.34 3.3 5 5 C4.34 4.67 3.68 4.34 3 4 C3.33 3.34 3.66 2.68 4 2 C3.20335937 2.35964844 3.20335937 2.35964844 2.390625 2.7265625 C-3.45111492 5.17838765 -3.45111492 5.17838765 -6.5 4.1875 C-6.995 3.795625 -7.49 3.40375 -8 3 C-6.865625 2.87625 -5.73125 2.7525 -4.5625 2.625 C-3.386875 2.41875 -2.21125 2.2125 -1 2 C-0.67 1.34 -0.34 0.68 0 0 Z " fill="#8C8B8C" transform="translate(239,281)"/>
<path d="M0 0 C0.66 0.33 1.32 0.66 2 1 C2 3.31 2 5.62 2 8 C1.01 7.67 0.02 7.34 -1 7 C-1 6.34 -1 5.68 -1 5 C-2.98 5.99 -2.98 5.99 -5 7 C-4.34 5.68 -3.68 4.36 -3 3 C-2.34 3 -1.68 3 -1 3 C-0.67 2.01 -0.34 1.02 0 0 Z " fill="#938E8F" transform="translate(233,198)"/>
<path d="M0 0 C7.74468085 0.74468085 7.74468085 0.74468085 11 4 C11 4.66 11 5.32 11 6 C6.95743617 4.77782954 3.50711041 3.37245704 0 1 C0 0.67 0 0.34 0 0 Z " fill="#777678" transform="translate(253,176)"/>
<path d="M0 0 C0 0.33 0 0.66 0 1 C-1.74784829 1.36463732 -3.49840502 1.7163078 -5.25 2.0625 C-6.71179688 2.35833984 -6.71179688 2.35833984 -8.203125 2.66015625 C-10.868119 2.98397535 -12.48871723 2.85503199 -15 2 C-9.37129115 -0.93161919 -6.22833095 -1.2019586 0 0 Z " fill="#7C797B" transform="translate(279,260)"/>
<path d="M0 0 C0 0.66 0 1.32 0 2 C2.97 2 5.94 2 9 2 C9 2.33 9 2.66 9 3 C2.565 3.495 2.565 3.495 -4 4 C-4.33 3.01 -4.66 2.02 -5 1 C-3 0 -3 0 0 0 Z " fill="#8C898C" transform="translate(246,337)"/>
<path d="M0 0 C-0.99 0.495 -0.99 0.495 -2 1 C-2.33 1.99 -2.66 2.98 -3 4 C-5.64 4 -8.28 4 -11 4 C-11 3.34 -11 2.68 -11 2 C-7.36576791 -0.32590854 -4.22911669 -0.16265833 0 0 Z " fill="#1B1A1B" transform="translate(285,332)"/>
<path d="M0 0 C0.99 0.33 1.98 0.66 3 1 C2.67 1.66 2.34 2.32 2 3 C3.32 3.33 4.64 3.66 6 4 C3.36 4.66 0.72 5.32 -2 6 C-2.33 4.68 -2.66 3.36 -3 2 C-2.01 1.34 -1.02 0.68 0 0 Z " fill="#6F6D70" transform="translate(257,270)"/>
<path d="M0 0 C-2.43840236 2.43840236 -4.85240898 3.62292893 -8 5 C-8.66 4.67 -9.32 4.34 -10 4 C-9.67 3.01 -9.34 2.02 -9 1 C-6.04335481 -0.4783226 -3.25770263 -0.06032783 0 0 Z " fill="#626163" transform="translate(222,344)"/>
<path d="M0 0 C0.99 0.33 1.98 0.66 3 1 C3 2.65 3 4.3 3 6 C0.69 5.01 -1.62 4.02 -4 3 C-2.1875 1.4375 -2.1875 1.4375 0 0 Z " fill="#424245" transform="translate(278,261)"/>
<path d="M0 0 C0.66 0.33 1.32 0.66 2 1 C0.98823563 4.40320742 0.35156418 5.75725331 -2.625 7.8125 C-3.40875 8.204375 -4.1925 8.59625 -5 9 C-4.5206753 4.68607774 -3.2542015 2.83430453 0 0 Z " fill="#6E6D6E" transform="translate(254,251)"/>
<path d="M0 0 C0.99 0.33 1.98 0.66 3 1 C0.375 5.875 0.375 5.875 -3 7 C-3 3 -3 3 -1.5 1.25 C-1.005 0.8375 -0.51 0.425 0 0 Z " fill="#777678" transform="translate(224,215)"/>
<path d="M0 0 C2.31 0.33 4.62 0.66 7 1 C5.1875 3 5.1875 3 3 5 C2.01 5 1.02 5 0 5 C0 3.35 0 1.7 0 0 Z " fill="#666567" transform="translate(257,357)"/>
<path d="M0 0 C3.37503669 1.1858237 5.64722731 2.27573689 8 5 C5.69 4.67 3.38 4.34 1 4 C1 4.66 1 5.32 1 6 C0.34 6 -0.32 6 -1 6 C-0.67 4.02 -0.34 2.04 0 0 Z " fill="#969397" transform="translate(223,319)"/>
<path d="M0 0 C0.99 0 1.98 0 3 0 C3.33 1.98 3.66 3.96 4 6 C2.68 6 1.36 6 0 6 C0 5.01 0 4.02 0 3 C-0.66 2.67 -1.32 2.34 -2 2 C-1.34 1.34 -0.68 0.68 0 0 Z " fill="#7E7D7E" transform="translate(245,248)"/>
<path d="M0 0 C3 2 3 2 3.8125 5.4375 C4 9 4 9 2 12 C1.34 8.04 0.68 4.08 0 0 Z " fill="#807F80" transform="translate(285,236)"/>
<path d="M0 0 C2.475 0.99 2.475 0.99 5 2 C4.67 3.32 4.34 4.64 4 6 C1.525 5.01 1.525 5.01 -1 4 C-0.67 2.68 -0.34 1.36 0 0 Z " fill="#929192" transform="translate(230,228)"/>
<path d="M0 0 C0.33 0.66 0.66 1.32 1 2 C-0.28813342 2.83878455 -1.58063256 3.67086783 -2.875 4.5 C-3.59429687 4.9640625 -4.31359375 5.428125 -5.0546875 5.90625 C-7 7 -7 7 -9 7 C-9.33 7.66 -9.66 8.32 -10 9 C-9.67 7.68 -9.34 6.36 -9 5 C-7.68 4.67 -6.36 4.34 -5 4 C-5 3.34 -5 2.68 -5 2 C-3.35 1.34 -1.7 0.68 0 0 Z " fill="#292729" transform="translate(200,139)"/>
<path d="M0 0 C3.25 -0.3125 3.25 -0.3125 7 0 C9.4375 2.5 9.4375 2.5 11 5 C8.625 5.1875 8.625 5.1875 6 5 C5.34 4.01 4.68 3.02 4 2 C1.94996045 0.80767387 1.94996045 0.80767387 0 0 Z " fill="#848383" transform="translate(264,109)"/>
<path d="M0 0 C2.97 0 5.94 0 9 0 C9 1.32 9 2.64 9 4 C5.85262818 3.30058404 2.97411124 2.23921302 0 1 C0 0.67 0 0.34 0 0 Z " fill="#818081" transform="translate(288,221)"/>
<path d="M0 0 C1.32 0.66 2.64 1.32 4 2 C1.87219421 4.34058637 -0.11562221 5.70700306 -3 7 C-2.67 5.35 -2.34 3.7 -2 2 C-1.34 2 -0.68 2 0 2 C0 1.34 0 0.68 0 0 Z " fill="#6B696A" transform="translate(214,177)"/>
<path d="M0 0 C0.33 0 0.66 0 1 0 C0.53199289 4.05606165 0.12046792 7.46588679 -2 11 C-4 7.25 -4 7.25 -4 5 C-3.34 5 -2.68 5 -2 5 C-1.34 3.35 -0.68 1.7 0 0 Z " fill="#737172" transform="translate(277,122)"/>
<path d="M0 0 C1.125 1.75 1.125 1.75 2 4 C1.125 6.25 1.125 6.25 0 8 C-1.65 7.67 -3.3 7.34 -5 7 C-4.67 6.34 -4.34 5.68 -4 5 C-3.34 5 -2.68 5 -2 5 C-1.34 3.35 -0.68 1.7 0 0 Z " fill="#343233" transform="translate(276,118)"/>
<path d="M0 0 C0.99 0 1.98 0 3 0 C2.1875 2.9375 2.1875 2.9375 1 6 C0.01 6.33 -0.98 6.66 -2 7 C-1.125 1.125 -1.125 1.125 0 0 Z " fill="#737171" transform="translate(237,351)"/>
<path d="M0 0 C-2.57213134 1.61949011 -3.67669159 2.04408751 -6.75 1.625 C-7.4925 1.41875 -8.235 1.2125 -9 1 C-9 0.34 -9 -0.32 -9 -1 C-5.79937313 -2.60031344 -3.27728194 -1.03173691 0 0 Z " fill="#272629" transform="translate(237,338)"/>
<path d="M0 0 C-0.99 0.66 -1.98 1.32 -3 2 C-3.66 2.66 -4.32 3.32 -5 4 C-6.32 4 -7.64 4 -9 4 C-9 3.34 -9 2.68 -9 2 C-9.66 1.67 -10.32 1.34 -11 1 C-6.87831311 -0.62950412 -4.29299643 -1.26264601 0 0 Z " fill="#7C7B7D" transform="translate(289,306)"/>
<path d="M0 0 C0.66 0.66 1.32 1.32 2 2 C1.34 2 0.68 2 0 2 C0 2.66 0 3.32 0 4 C-1.64666203 3.8864371 -3.29236082 3.75882619 -4.9375 3.625 C-5.85402344 3.55539063 -6.77054687 3.48578125 -7.71484375 3.4140625 C-8.84599609 3.20910156 -8.84599609 3.20910156 -10 3 C-10.33 2.34 -10.66 1.68 -11 1 C-8.02148438 1.04882812 -8.02148438 1.04882812 -5.04296875 1.09765625 C-2.79694539 1.08263217 -2.79694539 1.08263217 0 0 Z " fill="#676465" transform="translate(308,224)"/>
<path d="M0 0 C0.33 1.32 0.66 2.64 1 4 C-0.65 5.32 -2.3 6.64 -4 8 C-4.33 7.01 -4.66 6.02 -5 5 C-4.34 5 -3.68 5 -3 5 C-3 4.34 -3 3.68 -3 3 C-2.34 3 -1.68 3 -1 3 C-0.67 2.01 -0.34 1.02 0 0 Z " fill="#686566" transform="translate(216,201)"/>
<path d="M0 0 C3 2 3 2 3.6875 5.125 C3.790625 6.07375 3.89375 7.0225 4 8 C1.69 6.02 -0.62 4.04 -3 2 C-2.01 1.34 -1.02 0.68 0 0 Z " fill="#818181" transform="translate(286,195)"/>
<path d="M0 0 C0.96706319 3.00864103 1.27677226 5.05360248 0 8 C-2.0625 9.25 -2.0625 9.25 -4 10 C-2.8905928 6.51329166 -1.73662334 3.22515763 0 0 Z " fill="#817C80" transform="translate(263,189)"/>
<path d="M0 0 C0.33 0.99 0.66 1.98 1 3 C-0.9375 5.6875 -0.9375 5.6875 -3 8 C-3.99 7.34 -4.98 6.68 -6 6 C-4.02 4.02 -2.04 2.04 0 0 Z " fill="#6F6E6F" transform="translate(261,366)"/>
<path d="M0 0 C1.32 0.33 2.64 0.66 4 1 C3.67 2.32 3.34 3.64 3 5 C1.35 5.33 -0.3 5.66 -2 6 C-1.34 4.02 -0.68 2.04 0 0 Z " fill="#504E4F" transform="translate(267,313)"/>
<path d="M0 0 C1.32 0.99 2.64 1.98 4 3 C3.625 5.4375 3.625 5.4375 3 8 C2.01 8.495 2.01 8.495 1 9 C0.67 6.03 0.34 3.06 0 0 Z " fill="#8D8D8F" transform="translate(276,278)"/>
<path d="M0 0 C2 1 2 1 2 1 Z M-0.8125 0.9375 C-0.214375 1.288125 0.38375 1.63875 1 2 C-2 4 -2 4 -6 4 C-6 3.01 -6 2.02 -6 1 C-3 0 -3 0 -0.8125 0.9375 Z " fill="#3E3C3E" transform="translate(212,211)"/>
<path d="M0 0 C1.32 0.33 2.64 0.66 4 1 C3.67 4.96 3.34 8.92 3 13 C2.67 13 2.34 13 2 13 C1.34 8.71 0.68 4.42 0 0 Z " fill="#808080" transform="translate(200,187)"/>
<path d="M0 0 C0.66 0.99 1.32 1.98 2 3 C1.125 6.6875 1.125 6.6875 0 10 C-1.65 9.67 -3.3 9.34 -5 9 C-4.319375 8.1646875 -4.319375 8.1646875 -3.625 7.3125 C-1.96266232 4.94686561 -0.97855457 2.70984342 0 0 Z " fill="#8F8E8E" transform="translate(272,166)"/>
<path d="M0 0 C1.4800841 0.11362262 2.95910074 0.24122908 4.4375 0.375 C5.26121094 0.44460937 6.08492188 0.51421875 6.93359375 0.5859375 C7.95646484 0.79089844 7.95646484 0.79089844 9 1 C9.33 1.66 9.66 2.32 10 3 C6.89139894 3.9991932 5.11388708 3.83036989 2 3 C1.01 3.495 1.01 3.495 0 4 C0 2.68 0 1.36 0 0 Z " fill="#353434" transform="translate(274,161)"/>
<path d="M0 0 C0.66 0.33 1.32 0.66 2 1 C0.37660195 2.70884005 -1.29319053 4.37446717 -3 6 C-3.66 6 -4.32 6 -5 6 C-4.75 4.125 -4.75 4.125 -4 2 C-2.0625 0.6875 -2.0625 0.6875 0 0 Z " fill="#5F5C5D" transform="translate(238,154)"/>
<path d="M0 0 C0.99 0 1.98 0 3 0 C3 1.32 3 2.64 3 4 C2.34 4 1.68 4 1 4 C1 4.66 1 5.32 1 6 C-0.65 6 -2.3 6 -4 6 C-2.68 5.34 -1.36 4.68 0 4 C0 2.68 0 1.36 0 0 Z " fill="#141312" transform="translate(282,376)"/>
<path d="M0 0 C0.66 0 1.32 0 2 0 C1.67 2.64 1.34 5.28 1 8 C0.67 7.01 0.34 6.02 0 5 C-0.66 5 -1.32 5 -2 5 C-1.34 3.35 -0.68 1.7 0 0 Z " fill="#333331" transform="translate(292,356)"/>
<path d="M0 0 C2.375 0.6875 2.375 0.6875 5 2 C6.3125 4.625 6.3125 4.625 7 7 C4.03 6.505 4.03 6.505 1 6 C1.99 5.67 2.98 5.34 4 5 C4 4.34 4 3.68 4 3 C2.68 2.67 1.36 2.34 0 2 C0 1.34 0 0.68 0 0 Z " fill="#5E5E5E" transform="translate(288,332)"/>
<path d="M0 0 C2.75 0.25 2.75 0.25 5 1 C2.75 3.0625 2.75 3.0625 0 5 C-2.3125 4.75 -2.3125 4.75 -4 4 C-2.3125 1.9375 -2.3125 1.9375 0 0 Z " fill="#211C1F" transform="translate(273,329)"/>
<path d="M0 0 C0.33 0.99 0.66 1.98 1 3 C1.66 3.33 2.32 3.66 3 4 C2.34 4 1.68 4 1 4 C1 4.99 1 5.98 1 7 C-1.97 6.505 -1.97 6.505 -5 6 C-4.54625 5.566875 -4.0925 5.13375 -3.625 4.6875 C-1.79975666 2.89201658 -1.79975666 2.89201658 0 0 Z " fill="#69696B" transform="translate(252,278)"/>
<path d="M0 0 C1.258125 -0.020625 2.51625 -0.04125 3.8125 -0.0625 C4.52019531 -0.07410156 5.22789062 -0.08570313 5.95703125 -0.09765625 C8 0 8 0 11 1 C10.67 1.99 10.34 2.98 10 4 C9.46375 3.690625 8.9275 3.38125 8.375 3.0625 C5.6015043 1.82172561 2.99957163 1.4090325 0 1 C0 0.67 0 0.34 0 0 Z " fill="#8F8F8F" transform="translate(267,228)"/>
<path d="M0 0 C0.33 0.99 0.66 1.98 1 3 C-0.98 4.32 -2.96 5.64 -5 7 C-5.66 6.67 -6.32 6.34 -7 6 C-5.6875 4.5 -5.6875 4.5 -4 3 C-3.01 3 -2.02 3 -1 3 C-0.67 2.01 -0.34 1.02 0 0 Z " fill="#616061" transform="translate(214,225)"/>
<path d="M0 0 C0.33 0.66 0.66 1.32 1 2 C0.67 2.99 0.34 3.98 0 5 C-0.99 5.33 -1.98 5.66 -3 6 C-3.99 7.485 -3.99 7.485 -5 9 C-5.66 8.34 -6.32 7.68 -7 7 C-6.34 7 -5.68 7 -5 7 C-4.731875 6.401875 -4.46375 5.80375 -4.1875 5.1875 C-3.01506533 3.02775192 -1.80630718 1.64209744 0 0 Z " fill="#89888A" transform="translate(248,216)"/>
<path d="M0 0 C2.31 0 4.62 0 7 0 C6.67 0.66 6.34 1.32 6 2 C5.34 2 4.68 2 4 2 C4 2.66 4 3.32 4 4 C2.68 3.67 1.36 3.34 0 3 C0 2.01 0 1.02 0 0 Z " fill="#434042" transform="translate(253,173)"/>
<path d="M0 0 C1.65 0.33 3.3 0.66 5 1 C4.67 2.65 4.34 4.3 4 6 C1.525 5.01 1.525 5.01 -1 4 C-0.34 3.67 0.32 3.34 1 3 C0.67 2.01 0.34 1.02 0 0 Z " fill="#545253" transform="translate(283,162)"/>
<path d="M0 0 C-1.32 0.33 -2.64 0.66 -4 1 C-4 1.99 -4 2.98 -4 4 C-6.31 4 -8.62 4 -11 4 C-9.71264403 1.42528807 -8.71510189 1.29583343 -6.0625 0.3125 C-5.35222656 0.04050781 -4.64195312 -0.23148437 -3.91015625 -0.51171875 C-2 -1 -2 -1 0 0 Z " fill="#8E8A8B" transform="translate(298,127)"/>
<path d="M0 0 C0 0.99 0 1.98 0 3 C-3 5 -3 5 -5.6875 4.625 C-6.450625 4.41875 -7.21375 4.2125 -8 4 C-8 3.67 -8 3.34 -8 3 C-6.35 3 -4.7 3 -3 3 C-3 2.34 -3 1.68 -3 1 C-2.01 0.67 -1.02 0.34 0 0 Z " fill="#767677" transform="translate(327,330)"/>
<path d="M0 0 C2.05078125 0.03255208 4.1015625 0.06510417 6.15234375 0.09765625 C5.82234375 1.08765625 5.49234375 2.07765625 5.15234375 3.09765625 C2.27734375 3.22265625 2.27734375 3.22265625 -0.84765625 3.09765625 C-1.50765625 2.43765625 -2.16765625 1.77765625 -2.84765625 1.09765625 C-1.84765625 0.09765625 -1.84765625 0.09765625 0 0 Z " fill="#4A484D" transform="translate(227.84765625,317.90234375)"/>
<path d="M0 0 C0.33 0 0.66 0 1 0 C2.3442623 5.37704918 2.3442623 5.37704918 0.6875 8.375 C-1 10 -1 10 -3 10 C-2.01 6.7 -1.02 3.4 0 0 Z " fill="#706C6D" transform="translate(215,156)"/>
<path d="M0 0 C0.33 0.99 0.66 1.98 1 3 C1.66 3 2.32 3 3 3 C3 4.98 3 6.96 3 9 C2.67 8.34 2.34 7.68 2 7 C1.34 7 0.68 7 0 7 C0 4.69 0 2.38 0 0 Z " fill="#686767" transform="translate(241,364)"/>
<path d="M0 0 C0.66 0.66 1.32 1.32 2 2 C0.35 3.32 -1.3 4.64 -3 6 C-3.33 4.35 -3.66 2.7 -4 1 C-2.125 0.375 -2.125 0.375 0 0 Z " fill="#3C3C3D" transform="translate(261,302)"/>
<path d="M0 0 C1.32 0.99 2.64 1.98 4 3 C3.67 3.99 3.34 4.98 3 6 C1.68 5.67 0.36 5.34 -1 5 C-0.67 3.35 -0.34 1.7 0 0 Z " fill="#5A595A" transform="translate(265,185)"/>
<path d="M0 0 C1.32 0.66 2.64 1.32 4 2 C1.44931155 4.35448165 0.28982642 4.98327924 -3.25 5.1875 C-4.1575 5.125625 -5.065 5.06375 -6 5 C-6 4.67 -6 4.34 -6 4 C-4.35 4 -2.7 4 -1 4 C-0.67 2.68 -0.34 1.36 0 0 Z " fill="#959595" transform="translate(271,153)"/>
<path d="M0 0 C0.33 1.65 0.66 3.3 1 5 C-3.875 3.25 -3.875 3.25 -5 1 C-3 0 -3 0 0 0 Z " fill="#615F60" transform="translate(262,151)"/>
<path d="M0 0 C0.33 0.66 0.66 1.32 1 2 C0.38125 2.2475 -0.2375 2.495 -0.875 2.75 C-3.35068687 4.20628639 -3.95125002 5.37812506 -5 8 C-5.33 6.35 -5.66 4.7 -6 3 C-4.02 2.01 -2.04 1.02 0 0 Z " fill="#918E8F" transform="translate(194,141)"/>
<path d="M0 0 C1.98 0 3.96 0 6 0 C2.79663178 2.83374881 0.21912747 3.5205537 -4 4 C-3.67 3.34 -3.34 2.68 -3 2 C-2.01 2 -1.02 2 0 2 C0 1.34 0 0.68 0 0 Z " fill="#888687" transform="translate(299,139)"/>
<path d="M0 0 C0.66 0 1.32 0 2 0 C1.67 0.66 1.34 1.32 1 2 C0.67 1.34 0.34 0.68 0 0 Z " fill="#818181" transform="translate(234,390)"/>
</svg>
