<?xml version="1.0" encoding="UTF-8"?>
<svg version="1.1" xmlns="http://www.w3.org/2000/svg" width="512" height="512">
<path d="M0 0 C7.55724689 0.09581296 12.47049024 4.42270545 17.875 9.3125 C19.6131808 12.78886159 19.33008953 16.511541 18.875 20.3125 C16.45319283 25.24926076 13.4414643 27.40656817 8.875 30.3125 C8.875 30.9725 8.875 31.6325 8.875 32.3125 C9.37 32.68375 9.865 33.055 10.375 33.4375 C12.86819858 36.55399822 12.1847025 39.41024844 11.875 43.3125 C9.875 45.3125 9.875 45.3125 8.01953125 45.33203125 C6.86517578 45.22955078 6.86517578 45.22955078 5.6875 45.125 C-0.70778625 44.94709306 -6.08138839 47.0622612 -12 49.21875 C-15.125 50.3125 -15.125 50.3125 -17.125 50.3125 C-16.795 51.3025 -16.465 52.2925 -16.125 53.3125 C-15.18398438 52.9515625 -14.24296875 52.590625 -13.2734375 52.21875 C-12.01581585 51.74948819 -10.75799246 51.28076681 -9.5 50.8125 C-8.27023437 50.3484375 -7.04046875 49.884375 -5.7734375 49.40625 C-2.26641305 48.35489363 0.25065629 47.92138377 3.875 48.3125 C6.80303342 50.58985933 8.47802636 52.43033637 10 55.8125 C9.875 58.3125 9.875 58.3125 8.1875 60.8125 C2.49075383 65.86916233 -5.73145269 68.29877965 -13.125 69.3125 C-13.125 70.9625 -13.125 72.6125 -13.125 74.3125 C-12.59132813 74.17150879 -12.05765625 74.03051758 -11.5078125 73.88525391 C-9.04701702 73.23546341 -6.58601002 72.58647746 -4.125 71.9375 C-3.28582031 71.71578125 -2.44664062 71.4940625 -1.58203125 71.265625 C0.09617889 70.82330605 1.77497311 70.38319721 3.4543457 69.9453125 C5.00403039 69.54019069 6.55221815 69.12927111 8.09838867 68.7109375 C11.84635637 67.72055793 15.30745046 67.03774689 19.1875 67.0625 C20.41919922 67.05476563 20.41919922 67.05476563 21.67578125 67.046875 C23.875 67.3125 23.875 67.3125 26.875 69.3125 C27.77935644 72.800732 28.29279926 75.20831623 27 78.625 C23.70522478 81.24143915 19.96413418 81.66098177 15.875 82.3125 C15.70350141 84.51258168 15.70350141 84.51258168 17.375 86.8125 C18.875 89.3125 18.875 89.3125 18.875 91.3125 C19.76695068 91.20591064 20.65890137 91.09932129 21.57788086 90.98950195 C24.92556327 90.5990947 28.27428772 90.22673463 31.62524414 89.8659668 C33.06809656 89.70700984 34.51020655 89.54114142 35.95141602 89.36791992 C53.57597418 87.26030378 53.57597418 87.26030378 61 92.9375 C62.43070557 96.82084369 61.91129949 100.35764277 60.875 104.3125 C59.0641026 107.41689555 57.89843442 108.85764026 54.625 110.3125 C51.875 110.3125 51.875 110.3125 48.453125 108.82421875 C42.99495417 106.70547192 37.65295426 106.9839861 31.875 107.125 C30.81410156 107.13853516 29.75320313 107.15207031 28.66015625 107.16601562 C26.06456313 107.20109121 23.47005933 107.25024156 20.875 107.3125 C21.65875 107.869375 22.4425 108.42625 23.25 109 C26.55284655 111.90965053 27.6407679 113.93065601 28.07177734 118.31347656 C28.45141795 127.22057746 28.21488889 134.87265077 22.5 142 C20.1015625 144.57421875 20.1015625 144.57421875 17.875 146.3125 C16.885 146.3125 15.895 146.3125 14.875 146.3125 C14.875 147.3025 14.875 148.2925 14.875 149.3125 C16.36 150.3025 16.36 150.3025 17.875 151.3125 C18.0625 153.9375 18.0625 153.9375 17.875 156.3125 C11.55023504 160.72512672 5.42124902 161.37981754 -2.125 162.3125 C-11.04697681 163.58625707 -11.04697681 163.58625707 -19.875 165.375 C-31.55800757 168.09599622 -31.55800757 168.09599622 -35.125 166.3125 C-35.125 166.9725 -35.125 167.6325 -35.125 168.3125 C-39.19669021 166.95526993 -40.40299428 165.04362698 -42.7109375 161.5078125 C-44.88323378 156.599143 -45.39437571 151.57559137 -46.07543945 146.28393555 C-46.86541134 140.32109324 -48.3007023 135.66892667 -51.125 130.3125 C-51.125 129.6525 -51.125 128.9925 -51.125 128.3125 C-51.785 128.3125 -52.445 128.3125 -53.125 128.3125 C-53.50718767 126.65635343 -53.83895102 124.98792976 -54.125 123.3125 C-53.125 122.3125 -53.125 122.3125 -51.234375 122.2578125 C-46.85816696 122.59109987 -44.65863812 122.89003649 -41.125 125.6875 C-39.125 128.3125 -39.125 128.3125 -38.125 131.3125 C-37.8775 130.405 -37.63 129.4975 -37.375 128.5625 C-34.33938551 124.17772352 -31.41234101 123.82690546 -26.421875 122.390625 C-21.28664244 120.71133094 -16.76134137 118.05049687 -12.125 115.3125 C-16.56617157 115.54213153 -21.00610766 115.78186727 -25.4453125 116.046875 C-28.04774079 116.20196608 -30.63534884 116.3252907 -33.2421875 116.390625 C-42.66760771 116.79170671 -51.76707578 120.63527427 -59.77734375 125.48828125 C-66.86667033 129.35142654 -75.60876408 127.49807215 -83.125 125.3125 C-85.4603898 124.12097459 -87.2872464 123.1502536 -89.125 121.3125 C-89.16580783 119.31291636 -89.16754356 117.31204746 -89.125 115.3125 C-87.61873047 114.96638672 -87.61873047 114.96638672 -86.08203125 114.61328125 C-78.19906477 112.75110975 -70.77733904 110.53517878 -63.25390625 107.484375 C-58.32381494 105.63789885 -53.25826648 104.45014284 -48.125 103.3125 C-48.45886719 102.70277344 -48.79273438 102.09304688 -49.13671875 101.46484375 C-50.125 99.3125 -50.125 99.3125 -49.9375 96.875 C-50.21505195 93.08179 -52.36014834 91.7317452 -55.125 89.3125 C-54.63 87.8275 -54.63 87.8275 -54.125 86.3125 C-51.74829102 85.23754883 -51.74829102 85.23754883 -48.62890625 84.26953125 C-46.95538086 83.74262695 -46.95538086 83.74262695 -45.24804688 83.20507812 C-44.07306641 82.84865234 -42.89808594 82.49222656 -41.6875 82.125 C-40.51638672 81.75697266 -39.34527344 81.38894531 -38.13867188 81.00976562 C-29.46638741 78.3125 -29.46638741 78.3125 -27.125 78.3125 C-27.125 76.9925 -27.125 75.6725 -27.125 74.3125 C-28.300625 74.84875 -29.47625 75.385 -30.6875 75.9375 C-35.09465256 77.59115724 -37.73290208 77.17069527 -42.125 75.3125 C-44.5625 74.0625 -44.5625 74.0625 -46.125 72.3125 C-46.125 70.3325 -46.125 68.3525 -46.125 66.3125 C-42.495 64.3325 -38.865 62.3525 -35.125 60.3125 C-36.98125 60.085625 -38.8375 59.85875 -40.75 59.625 C-46.39336222 58.71112219 -49.22345986 57.43079237 -53.125 53.3125 C-52.795 52.3225 -52.465 51.3325 -52.125 50.3125 C-50.234375 49.6171875 -50.234375 49.6171875 -47.875 49.1875 C-47.06675781 49.0328125 -46.25851563 48.878125 -45.42578125 48.71875 C-44.66652344 48.5846875 -43.90726563 48.450625 -43.125 48.3125 C-42.114375 48.10625 -41.10375 47.9 -40.0625 47.6875 C-39.423125 47.56375 -38.78375 47.44 -38.125 47.3125 C-38.125 46.6525 -38.125 45.9925 -38.125 45.3125 C-38.98738281 44.93544922 -38.98738281 44.93544922 -39.8671875 44.55078125 C-42.41982888 43.15080319 -44.18733122 41.55090451 -46.25 39.5 C-46.93320313 38.83355469 -47.61640625 38.16710937 -48.3203125 37.48046875 C-51.60693996 33.53224745 -52.38504977 30.06436643 -52.25 25 C-52.23195312 24.11699219 -52.21390625 23.23398438 -52.1953125 22.32421875 C-52.17210937 21.66035156 -52.14890625 20.99648437 -52.125 20.3125 C-48.97856854 19.32362154 -47.63072303 19.05963848 -44.625 20.5625 C-42.95833333 21.72916667 -41.29166667 22.89583333 -39.625 24.0625 C-37.19340133 25.5428358 -37.19340133 25.5428358 -34.47265625 25.12890625 C-31.92989331 24.39217106 -31.92989331 24.39217106 -29.5625 22.25 C-27.125 20.3125 -27.125 20.3125 -23.125 20.3125 C-22.135 22.2925 -21.145 24.2725 -20.125 26.3125 C-14.24041664 21.71965445 -6.87267729 15.88576824 -5.125 8.3125 C-5.08611651 5.97949067 -5.0801365 3.64540199 -5.125 1.3125 C-3.58423813 -0.22826187 -2.1405515 0.06893301 0 0 Z M-30.125 57.3125 C-30.785 57.9725 -31.445 58.6325 -32.125 59.3125 C-31.135 59.3125 -30.145 59.3125 -29.125 59.3125 C-29.455 58.6525 -29.785 57.9925 -30.125 57.3125 Z M-10.125 86.3125 C-10.125 89.2825 -10.125 92.2525 -10.125 95.3125 C-6.23040926 93.62872777 -6.23040926 93.62872777 -4.125 91.3125 C-4.125 89.9925 -4.125 88.6725 -4.125 87.3125 C-7.095 86.8175 -7.095 86.8175 -10.125 86.3125 Z M-35.25 92.3125 C-35.81332031 92.6940625 -36.37664062 93.075625 -36.95703125 93.46875 C-38.34914841 94.41255824 -39.73744208 95.36200161 -41.125 96.3125 C-40.465 97.6325 -39.805 98.9525 -39.125 100.3125 C-35.36380524 99.68856349 -32.93539958 97.96476285 -29.875 95.75 C-28.98296875 95.10933594 -28.0909375 94.46867187 -27.171875 93.80859375 C-26.49640625 93.31488281 -25.8209375 92.82117188 -25.125 92.3125 C-25.785 90.9925 -26.445 89.6725 -27.125 88.3125 C-30.43253423 88.3125 -32.56919573 90.48727156 -35.25 92.3125 Z M-6.375 133.6875 C-11.41153206 137.36844372 -15.86201107 138.71226525 -22.125 138.3125 C-23.79459066 137.99413555 -25.46187451 137.66307451 -27.125 137.3125 C-27.15225341 139.0415774 -27.17150987 140.77078176 -27.1875 142.5 C-27.19910156 143.46292969 -27.21070313 144.42585937 -27.22265625 145.41796875 C-27.12986622 148.16826513 -26.74611685 150.63729591 -26.125 153.3125 C-21.0479118 152.00739412 -17.87777235 149.71115997 -14.1875 146.125 C-13.66897461 145.63394775 -13.15044922 145.14289551 -12.61621094 144.63696289 C-11.10995171 143.20470111 -9.61697663 141.75960903 -8.125 140.3125 C-7.35542969 139.58289063 -6.58585937 138.85328125 -5.79296875 138.1015625 C-3.3671397 135.79213406 -3.3671397 135.79213406 -1.125 133.3125 C-1.125 132.6525 -1.125 131.9925 -1.125 131.3125 C-3.69033564 131.3125 -4.37285656 132.12727111 -6.375 133.6875 Z " fill="#3A3A3C" transform="translate(278.125,232.6875)"/>
<path d="M0 0 C3.08386971 -0.43282382 5.02032923 -0.68002939 8 0 C11.63894342 2.84335693 14.43264858 6.05779698 15.73828125 10.52734375 C16.39320803 16.71493557 13.42405701 22.47261725 11 28 C11.48879639 27.73783691 11.97759277 27.47567383 12.48120117 27.20556641 C14.715198 26.0093398 16.95132067 24.81714139 19.1875 23.625 C19.95642578 23.2125 20.72535156 22.8 21.51757812 22.375 C28.29089787 18.77031481 33.21795884 16.37241604 41 17 C43.27377924 18.62638376 43.91083012 19.65686529 44.6171875 22.375 C44.70226562 23.24125 44.78734375 24.1075 44.875 25 C44.97554688 25.86625 45.07609375 26.7325 45.1796875 27.625 C45 30 45 30 43.8984375 31.65625 C41.32896886 33.47496854 38.70737005 34.42709366 35.75 35.5 C34.58082031 35.93828125 33.41164063 36.3765625 32.20703125 36.828125 C29.95603189 37.65065826 27.69890564 38.45652434 25.4375 39.25 C20.72853952 41.64728897 16.73524129 44.81257325 12.57421875 48.0390625 C8.47425682 51.1622505 6.18749856 51.41834666 1 51 C-0.20201713 50.16638633 -1.3889444 49.31072632 -2.5625 48.4375 C-4.53136535 47.17707145 -4.53136535 47.17707145 -7 47 C-13.02305913 49.4359928 -19.16428625 52.83183605 -22.49609375 58.58203125 C-23.29108608 60.9474494 -23.29108608 60.9474494 -23.640625 63.25 C-23.75921875 63.8275 -23.8778125 64.405 -24 65 C-26.72627345 66.36313672 -29.30131364 66.26999661 -32.3203125 66.42578125 C-39.50401801 67.96514672 -45.49832944 72.54922799 -51.375 76.75 C-52.77564699 77.74900956 -54.17915619 78.74402232 -55.5859375 79.734375 C-56.1948584 80.16975586 -56.8037793 80.60513672 -57.43115234 81.05371094 C-59 82 -59 82 -61 82 C-61.11459026 89.41017023 -60.91160286 96.64206267 -60 104 C-59.44570312 103.4946875 -58.89140625 102.989375 -58.3203125 102.46875 C-57.23363281 101.49421875 -57.23363281 101.49421875 -56.125 100.5 C-55.40570313 99.8503125 -54.68640625 99.200625 -53.9453125 98.53125 C-52 97 -52 97 -50 97 C-49.77183594 96.43152344 -49.54367188 95.86304688 -49.30859375 95.27734375 C-47.13921747 91.50198145 -43.70168467 89.10378304 -40.41015625 86.31640625 C-38.02026726 84.01947891 -36.60755927 81.87441196 -35 79 C-34.34 78.34 -33.68 77.68 -33 77 C-31.68 77 -30.36 77 -29 77 C-28.9052491 81.83229566 -28.9625957 86.25758034 -30 91 C-29.67 91.33 -29.34 91.66 -29 92 C-28.32350634 96.7354556 -28.08754177 99.50064509 -30.609375 103.64453125 C-32.64760315 106.19997895 -34.76164396 108.61859113 -37 111 C-37.804375 111.86625 -38.60875 112.7325 -39.4375 113.625 C-40.7059375 114.800625 -40.7059375 114.800625 -42 116 C-42.66773438 116.63808594 -43.33546875 117.27617187 -44.0234375 117.93359375 C-49.69737914 123.21055313 -55.14340221 128.06090366 -63.1875 128.4375 C-67.24787519 127.97155531 -69.00087133 127.74920129 -72 125 C-76.34833878 118.05934458 -76.55542249 111.37056497 -76.375 103.375 C-76.37306641 101.7353125 -76.37306641 101.7353125 -76.37109375 100.0625 C-76.30876976 94.34254253 -75.93268113 89.39604572 -74 84 C-74.61875 83.896875 -75.2375 83.79375 -75.875 83.6875 C-78 83 -78 83 -80 80 C-80.33880814 77.2895349 -80.40568245 75.68458914 -79 73.3125 C-77 72 -77 72 -73.4375 71.25 C-65.08384824 69.42794657 -57.5851851 62.80174279 -52.875 55.875 C-50.4690029 51.52715485 -49.74400619 46.86540889 -49 42 C-50.10794922 42.68449219 -50.10794922 42.68449219 -51.23828125 43.3828125 C-57.81180751 47.10808914 -62.21084987 48.89362471 -69.64453125 46.8984375 C-72.78588668 45.70024223 -74.83260104 44.60087875 -77 42 C-77.39097816 40.01046558 -77.73094754 38.00965716 -78 36 C-76.94941406 35.40832031 -75.89882812 34.81664062 -74.81640625 34.20703125 C-74.14005127 33.82611328 -73.46369629 33.44519531 -72.7668457 33.05273438 C-71.29326361 32.22365064 -69.81913897 31.39553051 -68.34448242 30.56835938 C-65.25645709 28.83602745 -62.17264747 27.10008887 -59.109375 25.32421875 C-57.97242188 24.66873047 -57.97242188 24.66873047 -56.8125 24 C-56.17957031 23.62875 -55.54664063 23.2575 -54.89453125 22.875 C-48.81241889 20.06594192 -40.74549814 19.78370774 -34.42578125 21.8359375 C-29.67590056 24.17554815 -26.45910448 26.87429205 -24.3828125 31.8125 C-23.42752386 37.27129223 -26.59536431 42.27584846 -29 47 C-27.53444684 46.26420788 -26.07775513 45.51074874 -24.625 44.75 C-23.81289062 44.33234375 -23.00078125 43.9146875 -22.1640625 43.484375 C-19.75843886 41.83430824 -19.1921456 40.59372218 -18 38 C-17.175 37.690625 -16.35 37.38125 -15.5 37.0625 C-12.80193503 36.26178227 -12.80193503 36.26178227 -12.0859375 33.76953125 C-11.72757812 32.85558594 -11.36921875 31.94164062 -11 31 C-9.75624435 29.17474821 -8.46069646 27.38408703 -7.125 25.625 C-1.5584009 18.55306321 -1.5584009 18.55306321 1.4375 10.25 C0.92068368 7.5920875 0.09569205 6.65908954 -2 5 C-1.34 3.35 -0.68 1.7 0 0 Z " fill="#424142" transform="translate(271,111)"/>
<path d="M0 0 C5.95434307 0.48180181 11.05026358 1.50411274 15.99609375 5.01953125 C18.52435946 8.81192981 18.36054276 10.50036347 17.99609375 15.01953125 C17.15350875 18.08303395 16.12684223 21.0513165 14.99609375 24.01953125 C15.54136719 24.31085938 16.08664062 24.6021875 16.6484375 24.90234375 C21.53688128 27.55965165 26.19444529 30.41455088 30.796875 33.5390625 C32.92294893 34.97029167 35.0726044 36.34911014 37.24609375 37.70703125 C37.89578125 38.114375 38.54546875 38.52171875 39.21484375 38.94140625 C40.69278312 39.8359485 42.21507405 40.6567255 43.74609375 41.45703125 C46.69981524 43.50822673 48.06624482 46.0041423 49.99609375 49.01953125 C51.32640625 50.34984375 51.32640625 50.34984375 52.68359375 51.70703125 C55.55202193 54.57545943 55.92381604 56.2678431 56.30859375 60.26953125 C55.91530686 64.98897394 54.64075874 67.13031804 51.99609375 71.01953125 C48.86760116 72.58377754 45.55179291 72.20399523 42.12109375 72.20703125 C41.40050781 72.21927734 40.67992187 72.23152344 39.9375 72.24414062 C36.05775359 72.25485816 33.33357668 72.01275022 29.99609375 70.01953125 C28.96484375 69.91640625 27.93359375 69.81328125 26.87109375 69.70703125 C21.69819374 68.78925867 17.57690066 66.5173153 12.99609375 64.01953125 C12.99609375 63.35953125 12.99609375 62.69953125 12.99609375 62.01953125 C11.71734375 61.87515625 10.43859375 61.73078125 9.12109375 61.58203125 C6.73916481 61.31310379 5.15156684 61.09726779 2.99609375 60.01953125 C3.32609375 59.02953125 3.65609375 58.03953125 3.99609375 57.01953125 C10.59609375 56.02953125 17.19609375 55.03953125 23.99609375 54.01953125 C20.45000881 50.47344631 16.89875622 47.06410577 13.18359375 43.70703125 C12.20777344 42.82402344 11.23195313 41.94101563 10.2265625 41.03125 C9.49050781 40.36738281 8.75445312 39.70351562 7.99609375 39.01953125 C4.46952731 40.43165213 3.20748171 41.84785421 1.49609375 45.20703125 C1.07328125 46.01140625 0.65046875 46.81578125 0.21484375 47.64453125 C-0.18734375 48.42828125 -0.58953125 49.21203125 -1.00390625 50.01953125 C-6.47235743 60.29359104 -15.97355467 72.27031716 -27.00390625 77.01953125 C-30.01637762 77.42140843 -33.02971414 77.34409119 -36.06640625 77.33203125 C-36.88173828 77.34814453 -37.69707031 77.36425781 -38.53710938 77.38085938 C-39.32150391 77.38150391 -40.10589844 77.38214844 -40.9140625 77.3828125 C-41.98346069 77.38728394 -41.98346069 77.38728394 -43.07446289 77.3918457 C-45.56127727 76.91197832 -46.46489614 75.9934005 -48.00390625 74.01953125 C-48.0703125 72.03515625 -48.0703125 72.03515625 -47.00390625 70.01953125 C-44.34375 68.37890625 -44.34375 68.37890625 -40.94140625 66.76953125 C-26.8897205 59.65933992 -21.13394259 47.64526958 -14.50390625 33.95703125 C-14.14103516 33.218479 -13.77816406 32.47992676 -13.40429688 31.71899414 C-11.26236618 27.51639608 -11.26236618 27.51639608 -12.00390625 23.01953125 C-13.98516475 22.29907361 -15.98894718 21.63951866 -18.00390625 21.01953125 C-20.81640625 19.70703125 -20.81640625 19.70703125 -23.00390625 18.01953125 C-23.87890625 15.39453125 -23.87890625 15.39453125 -24.00390625 13.01953125 C-22.3836936 11.3993186 -20.61022691 11.84888413 -18.37890625 11.83203125 C-13.87110438 11.86441488 -10.24698476 12.54367786 -6.00390625 14.01953125 C-5.79894531 13.09269531 -5.59398437 12.16585937 -5.3828125 11.2109375 C-5.11339844 10.01339844 -4.84398437 8.81585938 -4.56640625 7.58203125 C-4.29957031 6.38707031 -4.03273438 5.19210938 -3.7578125 3.9609375 C-2.74946064 0.02679786 -2.74946064 0.02679786 0 0 Z " fill="#454445" transform="translate(283.00390625,162.98046875)"/>
<path d="M0 0 C3.64987947 2.49260061 5.17241427 4.5797428 6.5625 8.75 C7.36579321 18.07487544 7.2020959 26.96807489 1.1875 34.4375 C-1.2109375 37.01171875 -1.2109375 37.01171875 -3.4375 38.75 C-4.4275 38.75 -5.4175 38.75 -6.4375 38.75 C-6.4375 39.74 -6.4375 40.73 -6.4375 41.75 C-4.9525 42.74 -4.9525 42.74 -3.4375 43.75 C-3.25 46.375 -3.25 46.375 -3.4375 48.75 C-9.76226496 53.16262672 -15.89125098 53.81731754 -23.4375 54.75 C-32.35947681 56.02375707 -32.35947681 56.02375707 -41.1875 57.8125 C-52.87050757 60.53349622 -52.87050757 60.53349622 -56.4375 58.75 C-56.4375 59.41 -56.4375 60.07 -56.4375 60.75 C-60.50919021 59.39276993 -61.71549428 57.48112698 -64.0234375 53.9453125 C-66.19573378 49.036643 -66.70687571 44.01309137 -67.38793945 38.72143555 C-68.17791134 32.75859324 -69.6132023 28.10642667 -72.4375 22.75 C-72.4375 22.09 -72.4375 21.43 -72.4375 20.75 C-73.0975 20.75 -73.7575 20.75 -74.4375 20.75 C-74.81968767 19.09385343 -75.15145102 17.42542976 -75.4375 15.75 C-74.4375 14.75 -74.4375 14.75 -72.546875 14.6953125 C-68.17066696 15.02859987 -65.97113812 15.32753649 -62.4375 18.125 C-60.4375 20.75 -60.4375 20.75 -59.4375 23.75 C-59.19 22.8425 -58.9425 21.935 -58.6875 21 C-55.64403243 16.60388018 -52.69453445 16.25744677 -47.69140625 14.8125 C-44.46612248 13.75934612 -41.80960535 12.4389815 -38.875 10.75 C-34.38758054 8.17376926 -29.95340757 6.40720935 -25.05859375 4.76171875 C-22.43094505 3.74746985 -20.2560591 2.49391581 -17.875 1 C-11.95710825 -2.43619521 -6.33827196 -2.30482617 0 0 Z M-27.6875 26.125 C-32.72403206 29.80594372 -37.17451107 31.14976525 -43.4375 30.75 C-45.10709066 30.43163555 -46.77437451 30.10057451 -48.4375 29.75 C-48.46475341 31.4790774 -48.48400987 33.20828176 -48.5 34.9375 C-48.51160156 35.90042969 -48.52320313 36.86335938 -48.53515625 37.85546875 C-48.44236622 40.60576513 -48.05861685 43.07479591 -47.4375 45.75 C-42.3604118 44.44489412 -39.19027235 42.14865997 -35.5 38.5625 C-34.98147461 38.07144775 -34.46294922 37.58039551 -33.92871094 37.07446289 C-32.42245171 35.64220111 -30.92947663 34.19710903 -29.4375 32.75 C-28.66792969 32.02039063 -27.89835937 31.29078125 -27.10546875 30.5390625 C-24.6796397 28.22963406 -24.6796397 28.22963406 -22.4375 25.75 C-22.4375 25.09 -22.4375 24.43 -22.4375 23.75 C-25.00283564 23.75 -25.68535656 24.56477111 -27.6875 26.125 Z " fill="#252525" transform="translate(299.4375,340.25)"/>
<path d="M0 0 C7.55724689 0.09581296 12.47049024 4.42270545 17.875 9.3125 C19.6131808 12.78886159 19.33008953 16.511541 18.875 20.3125 C16.45319283 25.24926076 13.4414643 27.40656817 8.875 30.3125 C8.875 30.9725 8.875 31.6325 8.875 32.3125 C9.37 32.68375 9.865 33.055 10.375 33.4375 C12.86819858 36.55399822 12.1847025 39.41024844 11.875 43.3125 C9.875 45.3125 9.875 45.3125 8.01953125 45.33203125 C7.24996094 45.26371094 6.48039062 45.19539063 5.6875 45.125 C-0.70778625 44.94709306 -6.08138839 47.0622612 -12 49.21875 C-15.125 50.3125 -15.125 50.3125 -17.125 50.3125 C-16.795 51.3025 -16.465 52.2925 -16.125 53.3125 C-13.65 52.8175 -13.65 52.8175 -11.125 52.3125 C-11.785 53.9625 -12.445 55.6125 -13.125 57.3125 C-14.48625 57.0340625 -14.48625 57.0340625 -15.875 56.75 C-18.89442789 56.34353855 -20.29674111 56.53229065 -23.125 57.3125 C-24.61 56.8175 -24.61 56.8175 -26.125 56.3125 C-27.011875 56.786875 -27.89875 57.26125 -28.8125 57.75 C-35.14916192 60.73899147 -42.63187156 59.63420801 -49.125 57.3125 C-51.6875 55.1875 -51.6875 55.1875 -53.125 53.3125 C-52.795 52.3225 -52.465 51.3325 -52.125 50.3125 C-50.234375 49.6171875 -50.234375 49.6171875 -47.875 49.1875 C-47.06675781 49.0328125 -46.25851563 48.878125 -45.42578125 48.71875 C-44.28689453 48.51765625 -44.28689453 48.51765625 -43.125 48.3125 C-42.114375 48.10625 -41.10375 47.9 -40.0625 47.6875 C-39.423125 47.56375 -38.78375 47.44 -38.125 47.3125 C-38.125 46.6525 -38.125 45.9925 -38.125 45.3125 C-38.69992188 45.06113281 -39.27484375 44.80976563 -39.8671875 44.55078125 C-42.41982888 43.15080319 -44.18733122 41.55090451 -46.25 39.5 C-46.93320313 38.83355469 -47.61640625 38.16710937 -48.3203125 37.48046875 C-51.60693996 33.53224745 -52.38504977 30.06436643 -52.25 25 C-52.23195312 24.11699219 -52.21390625 23.23398438 -52.1953125 22.32421875 C-52.17210937 21.66035156 -52.14890625 20.99648437 -52.125 20.3125 C-48.97856854 19.32362154 -47.63072303 19.05963848 -44.625 20.5625 C-42.95833333 21.72916667 -41.29166667 22.89583333 -39.625 24.0625 C-37.19340133 25.5428358 -37.19340133 25.5428358 -34.47265625 25.12890625 C-31.92989331 24.39217106 -31.92989331 24.39217106 -29.5625 22.25 C-27.125 20.3125 -27.125 20.3125 -23.125 20.3125 C-22.135 22.2925 -21.145 24.2725 -20.125 26.3125 C-14.24041664 21.71965445 -6.87267729 15.88576824 -5.125 8.3125 C-5.08611651 5.97949067 -5.0801365 3.64540199 -5.125 1.3125 C-3.58423813 -0.22826187 -2.1405515 0.06893301 0 0 Z " fill="#4A4A4B" transform="translate(278.125,232.6875)"/>
<path d="M0 0 C0.66 0.33 1.32 0.66 2 1 C-0.12669835 3.33936818 -2.06224856 4.80653848 -5 6 C-5.99 6 -6.98 6 -8 6 C-8 6.66 -8 7.32 -8 8 C-11.45730521 10.44045073 -14.96678237 11.78065514 -19 13 C-19 13.99 -19 14.98 -19 16 C-19 16.99 -19 17.98 -19 19 C-19.99 19 -20.98 19 -22 19 C-22 19.66 -22 20.32 -22 21 C-22.66 21 -23.32 21 -24 21 C-24 22.32 -24 23.64 -24 25 C-27.96 25.495 -27.96 25.495 -32 26 C-30.13815311 36.21114722 -30.13815311 36.21114722 -25 45 C-25.99 45.495 -25.99 45.495 -27 46 C-27 46.66 -27 47.32 -27 48 C-26.278125 47.95875 -25.55625 47.9175 -24.8125 47.875 C-21.79270631 48.00921305 -19.73064271 48.75170619 -17 50 C-17 49.34 -17 48.68 -17 48 C-13.37 48.33 -9.74 48.66 -6 49 C-6 48.34 -6 47.68 -6 47 C-4.68 47 -3.36 47 -2 47 C-2 46.01 -2 45.02 -2 44 C6.25 44 14.5 44 23 44 C19.98524605 46.00983597 19.08131504 46.28399779 15.6484375 46.52734375 C14.79636719 46.59759766 13.94429688 46.66785156 13.06640625 46.74023438 C11.29573112 46.87001535 9.52489927 46.99767852 7.75390625 47.12304688 C2.46933412 47.56276764 -2.11891922 48.4846525 -7.0847168 50.36889648 C-9.7596597 51.25031489 -12.2065176 51.12415477 -15 51 C-16.60875 51.2784375 -16.60875 51.2784375 -18.25 51.5625 C-21 52 -21 52 -23 51 C-23 51.66 -23 52.32 -23 53 C-27.07169021 51.64276993 -28.27799428 49.73112698 -30.5859375 46.1953125 C-32.75823378 41.286643 -33.26937571 36.26309137 -33.95043945 30.97143555 C-34.74041134 25.00859324 -36.1757023 20.35642667 -39 15 C-39 14.34 -39 13.68 -39 13 C-39.66 13 -40.32 13 -41 13 C-41.38218767 11.34385343 -41.71395102 9.67542976 -42 8 C-41 7 -41 7 -39.109375 6.9453125 C-34.73316696 7.27859987 -32.53363812 7.57753649 -29 10.375 C-27 13 -27 13 -26 16 C-25.7525 15.0925 -25.505 14.185 -25.25 13.25 C-22.21334568 8.86372154 -19.28452672 8.51017491 -14.2890625 7.08203125 C-9.89415273 5.63619989 -6.13613873 3.4423555 -2.1796875 1.07421875 C-1.46039063 0.71972656 -0.74109375 0.36523438 0 0 Z " fill="#353335" transform="translate(266,348)"/>
<path d="M0 0 C0 0.66 0 1.32 0 2 C0.66 2.33 1.32 2.66 2 3 C2 3.99 2 4.98 2 6 C2.66 6.33 3.32 6.66 4 7 C4.625 9.5625 4.625 9.5625 5 12 C4.34 12 3.68 12 3 12 C2.67 11.34 2.34 10.68 2 10 C-2.91319147 11.53537234 -7.32235164 14.41360843 -11 18 C-11 18.99 -11 19.98 -11 21 C-11.33 20.34 -11.66 19.68 -12 19 C-12.66 19 -13.32 19 -14 19 C-14 18.34 -14 17.68 -14 17 C-14.680625 16.95875 -15.36125 16.9175 -16.0625 16.875 C-20.25515787 15.62612319 -22.8592439 12.95973269 -26 10 C-25.67 9.01 -25.34 8.02 -25 7 C-23.0222168 6.0168457 -23.0222168 6.0168457 -20.44921875 5.17578125 C-19.52302734 4.86962891 -18.59683594 4.56347656 -17.64257812 4.24804688 C-16.17981445 3.78495117 -16.17981445 3.78495117 -14.6875 3.3125 C-13.72392578 2.99216797 -12.76035156 2.67183594 -11.76757812 2.34179688 C-7.60224777 0.98799234 -4.42380957 0 0 0 Z " fill="#454548" transform="translate(249,312)"/>
<path d="M0 0 C1.4606285 2.64738916 2 3.89448334 2 7 C3.65 7 5.3 7 7 7 C7.33 7.99 7.66 8.98 8 10 C7.67 10.33 7.34 10.66 7 11 C7.66 11.66 8.32 12.32 9 13 C4.92926875 15.71382083 1.77671888 15.33127641 -3 15.3125 C-4.22976562 15.33666992 -4.22976562 15.33666992 -5.484375 15.36132812 C-6.27328125 15.36197266 -7.0621875 15.36261719 -7.875 15.36328125 C-8.59429687 15.36626221 -9.31359375 15.36924316 -10.0546875 15.37231445 C-12.55256484 14.8942443 -13.45398011 13.98151845 -15 12 C-15.09375 10.04296875 -15.09375 10.04296875 -14 8 C-11.8284583 6.59024914 -9.80909152 5.43763058 -7.5 4.3125 C-3.48964802 2.52082572 -3.48964802 2.52082572 0 0 Z " fill="#4F4D4F" transform="translate(250,225)"/>
<path d="M0 0 C1.32 0 2.64 0 4 0 C4.0947509 4.83229566 4.0374043 9.25758034 3 14 C3.33 14.33 3.66 14.66 4 15 C4.67649366 19.7354556 4.91245823 22.50064509 2.390625 26.64453125 C0.35200245 29.20047343 -1.76039255 31.61885602 -4 34 C-4.76183594 34.82757813 -4.76183594 34.82757813 -5.5390625 35.671875 C-7.56679976 37.78669301 -9.5491891 39.36612607 -12 41 C-12.41176754 37.39703406 -12.1535853 36.21597933 -10 33.1875 C-9.34 32.465625 -8.68 31.74375 -8 31 C-6.68 31.33 -5.36 31.66 -4 32 C-4 31.34 -4 30.68 -4 30 C-3.34 30 -2.68 30 -2 30 C-2 29.01 -2 28.02 -2 27 C-2.99 27.33 -3.98 27.66 -5 28 C-5.33 26.02 -5.66 24.04 -6 22 C-5.34 22 -4.68 22 -4 22 C-3.566875 21.1028125 -3.566875 21.1028125 -3.125 20.1875 C-2 18 -2 18 0 15 C0.45394552 12.72087062 0.45394552 12.72087062 0.625 10.3125 C0.69976562 9.50425781 0.77453125 8.69601563 0.8515625 7.86328125 C0.90054688 7.24839844 0.94953125 6.63351563 1 6 C0.01 6.66 -0.98 7.32 -2 8 C-2.99 7.67 -3.98 7.34 -5 7 C-3.47793991 4.37098712 -2.15634036 2.15634036 0 0 Z " fill="#575555" transform="translate(238,188)"/>
<path d="M0 0 C0.66 0 1.32 0 2 0 C2.33 2.97 2.66 5.94 3 9 C3.66 9 4.32 9 5 9 C5.09796875 9.72445313 5.1959375 10.44890625 5.296875 11.1953125 C6.21692754 17.14392808 7.18992735 21.3009104 11 26 C10.34 26.33 9.68 26.66 9 27 C9 27.66 9 28.32 9 29 C9.721875 28.95875 10.44375 28.9175 11.1875 28.875 C14.20729369 29.00921305 16.26935729 29.75170619 19 31 C19 30.34 19 29.68 19 29 C22.63 29.33 26.26 29.66 30 30 C30 29.34 30 28.68 30 28 C31.32 28 32.64 28 34 28 C34 27.01 34 26.02 34 25 C42.25 25 50.5 25 59 25 C55.98524605 27.00983597 55.08131504 27.28399779 51.6484375 27.52734375 C50.79636719 27.59759766 49.94429688 27.66785156 49.06640625 27.74023438 C47.29573112 27.87001535 45.52489927 27.99767852 43.75390625 28.12304688 C38.46933412 28.56276764 33.88108078 29.4846525 28.9152832 31.36889648 C26.2403403 32.25031489 23.7934824 32.12415477 21 32 C19.39125 32.2784375 19.39125 32.2784375 17.75 32.5625 C15 33 15 33 13 32 C13 32.66 13 33.32 13 34 C8.93520659 32.64506886 7.72808378 30.74151558 5.42578125 27.2109375 C2.60893922 20.8672549 2.09506494 13.88951437 1.26708984 7.04882812 C0.95731988 4.67260369 0.51825896 2.33929732 0 0 Z " fill="#848182" transform="translate(230,367)"/>
<path d="M0 0 C1.2065625 0.0309375 1.2065625 0.0309375 2.4375 0.0625 C1.1175 0.3925 -0.2025 0.7225 -1.5625 1.0625 C-1.52125 1.84625 -1.48 2.63 -1.4375 3.4375 C-1.5987967 8.1151044 -2.55335661 12.50333432 -3.5625 17.0625 C-7.75808737 18.46102912 -9.60816851 16.83513136 -13.5625 15.0625 C-16.34138613 14.37109478 -16.34138613 14.37109478 -18.5625 14.0625 C-17.9025 16.0425 -17.2425 18.0225 -16.5625 20.0625 C-15.5725 20.0625 -14.5825 20.0625 -13.5625 20.0625 C-13.2325 21.0525 -12.9025 22.0425 -12.5625 23.0625 C-16.5877789 21.84555522 -20.21111617 20.64785324 -23.5625 18.0625 C-24.4375 15.4375 -24.4375 15.4375 -24.5625 13.0625 C-22.94228735 11.44228735 -21.16882066 11.89185288 -18.9375 11.875 C-14.42969813 11.90738363 -10.80557851 12.58664661 -6.5625 14.0625 C-6.35753906 13.13566406 -6.15257812 12.20882812 -5.94140625 11.25390625 C-5.67199219 10.05636719 -5.40257812 8.85882813 -5.125 7.625 C-4.85816406 6.43003906 -4.59132813 5.23507813 -4.31640625 4.00390625 C-3.31087027 0.08075293 -3.31087027 0.08075293 0 0 Z " fill="#767476" transform="translate(283.5625,162.9375)"/>
<path d="M0 0 C0.33 0 0.66 0 1 0 C1.32171935 19.58466559 1.32171935 19.58466559 -6.08984375 27.48046875 C-8 29 -8 29 -10 29 C-10 28.34 -10 27.68 -10 27 C-9.34 27 -8.68 27 -8 27 C-8 25.68 -8 24.36 -8 23 C-7.01 23 -6.02 23 -5 23 C-5.83333333 20.83333333 -5.83333333 20.83333333 -8 20 C-6.25 16.125 -6.25 16.125 -4 15 C-3.60843772 12.67493341 -3.60843772 12.67493341 -3.5 10 C-3.34375 7.25 -3.34375 7.25 -3 5 C-2.34 4.67 -1.68 4.34 -1 4 C-0.34786708 1.97536745 -0.34786708 1.97536745 0 0 Z " fill="#5A5A56" transform="translate(305,349)"/>
<path d="M0 0 C-0.33 1.32 -0.66 2.64 -1 4 C-2.051875 3.979375 -3.10375 3.95875 -4.1875 3.9375 C-7.80170018 3.88233273 -7.80170018 3.88233273 -10.5 4.5 C-15.42200139 5.48440028 -20.14458447 5.17707043 -25 4 C-25 3.34 -25 2.68 -25 2 C-21.77125066 1.66254072 -18.5419413 1.33076631 -15.3125 1 C-13.94448242 0.85691406 -13.94448242 0.85691406 -12.54882812 0.7109375 C-11.21948242 0.57558594 -11.21948242 0.57558594 -9.86328125 0.4375 C-9.05157471 0.35371094 -8.23986816 0.26992188 -7.40356445 0.18359375 C-4.92615534 -0.00564055 -2.4836252 -0.03092452 0 0 Z " fill="#5F5F60" transform="translate(322,322)"/>
<path d="M0 0 C-0.33 0.66 -0.66 1.32 -1 2 C-1.33 1.67 -1.66 1.34 -2 1 C-7.62488594 0.59822243 -11.76236196 1.33392953 -17.01953125 3.34375 C-21.28115362 4.75588522 -26.51187723 4 -31 4 C-28.25614011 1.25614011 -25.16189031 0.77429446 -21.5 -0.125 C-20.78110596 -0.30240723 -20.06221191 -0.47981445 -19.3215332 -0.66259766 C-5.75457848 -3.83638565 -5.75457848 -3.83638565 0 0 Z " fill="#5E5E63" transform="translate(305,302)"/>
<path d="M0 0 C1.01085428 3.34386398 1.11543463 6.3748118 1.09765625 9.859375 C1.09443359 10.97441406 1.09121094 12.08945313 1.08789062 13.23828125 C1.07951172 14.39714844 1.07113281 15.55601562 1.0625 16.75 C1.05798828 17.92433594 1.05347656 19.09867188 1.04882812 20.30859375 C1.03705094 23.20578072 1.02060326 26.10286454 1 29 C1.66 29 2.32 29 3 29 C3.66 31.31 4.32 33.62 5 36 C11.44798846 37.94002992 11.44798846 37.94002992 18 37 C18 37.66 18 38.32 18 39 C14.79405565 40.60297218 11.48530796 40.34248691 8 40 C4.09279163 38.66799715 2.6416772 36.75567075 0.87890625 33.17578125 C-1.67368784 27.22588831 -1.48017469 21.50409045 -1.3125 15.125 C-1.30283203 13.99835938 -1.29316406 12.87171875 -1.28320312 11.7109375 C-1.17040802 3.51122407 -1.17040802 3.51122407 0 0 Z " fill="#9B9696" transform="translate(196,199)"/>
<path d="M0 0 C4.31578947 2.31578947 4.31578947 2.31578947 6 4 C6.27314815 9.73611111 6.27314815 9.73611111 6 12 C5.34 12.66 4.68 13.32 4 14 C1.6171875 13.9765625 1.6171875 13.9765625 -1.125 13.625 C-2.03507812 13.51414062 -2.94515625 13.40328125 -3.8828125 13.2890625 C-4.58148438 13.19367188 -5.28015625 13.09828125 -6 13 C-6 12.67 -6 12.34 -6 12 C-3.69 12 -1.38 12 1 12 C1 10.68 1 9.36 1 8 C0.34 7.34 -0.32 6.68 -1 6 C-1 5.01 -1 4.02 -1 3 C-1.33 2.34 -1.66 1.68 -2 1 C-1.34 0.67 -0.68 0.34 0 0 Z " fill="#605F62" transform="translate(284,264)"/>
<path d="M0 0 C0.66 0 1.32 0 2 0 C2.33 2.97 2.66 5.94 3 9 C3.66 9 4.32 9 5 9 C5.16435547 10.10408203 5.16435547 10.10408203 5.33203125 11.23046875 C6.50004021 18.54258486 6.50004021 18.54258486 10 25 C10 25.33 10 25.66 10 26 C8.35 26 6.7 26 5 26 C4.89042969 25.42894531 4.78085938 24.85789062 4.66796875 24.26953125 C3.45557289 18.06955565 2.06467744 11.92705133 0.5859375 5.78515625 C0 3 0 3 0 0 Z " fill="#7F7D7F" transform="translate(230,367)"/>
<path d="M0 0 C0.66 0.33 1.32 0.66 2 1 C-0.12669835 3.33936818 -2.06224856 4.80653848 -5 6 C-5.99 6 -6.98 6 -8 6 C-8 6.66 -8 7.32 -8 8 C-12.56858867 11.78090097 -18.32272986 12.15487222 -24 13 C-23.67 12.01 -23.34 11.02 -23 10 C-20.6640625 9.04296875 -20.6640625 9.04296875 -17.625 8.1875 C-11.99189353 6.4625296 -7.22383743 4.09339835 -2.1796875 1.07421875 C-1.46039063 0.71972656 -0.74109375 0.36523438 0 0 Z " fill="#67666A" transform="translate(266,348)"/>
<path d="M0 0 C0.33 0 0.66 0 1 0 C1 1.65 1 3.3 1 5 C-3.455 6.485 -3.455 6.485 -8 8 C-7.67 8.99 -7.34 9.98 -7 11 C-7.61875 11.12375 -8.2375 11.2475 -8.875 11.375 C-11.19120832 11.87197356 -11.19120832 11.87197356 -13 14 C-15 12 -15 12 -15.03125 10.10546875 C-13.4499723 6.87702678 -10.60109156 5.82354143 -7.5 4.3125 C-3.48964802 2.52082572 -3.48964802 2.52082572 0 0 Z " fill="#838383" transform="translate(250,225)"/>
<path d="M0 0 C1.32 0 2.64 0 4 0 C4.10251672 5.12583611 4.03590199 9.94997778 3 15 C2.34 15 1.68 15 1 15 C1 12.03 1 9.06 1 6 C0.01 6.66 -0.98 7.32 -2 8 C-2.99 7.67 -3.98 7.34 -5 7 C-3.47793991 4.37098712 -2.15634036 2.15634036 0 0 Z " fill="#858384" transform="translate(238,188)"/>
<path d="M0 0 C1.65 0 3.3 0 5 0 C3.68 0.33 2.36 0.66 1 1 C1.061875 2.175625 1.061875 2.175625 1.125 3.375 C0.9637033 8.0526044 0.00914339 12.44083432 -1 17 C-4.62326739 18.2077558 -5.64146369 17.54311128 -9 16 C-9 15.67 -9 15.34 -9 15 C-7.35 15 -5.7 15 -4 15 C-3.8453125 13.7934375 -3.8453125 13.7934375 -3.6875 12.5625 C-2.84899627 8.21752614 -1.47178341 4.16542473 0 0 Z " fill="#666464" transform="translate(281,163)"/>
<path d="M0 0 C-1.33333333 2.66666667 -2.66666667 5.33333333 -4 8 C-4.66 8 -5.32 8 -6 8 C-5.34 6.35 -4.68 4.7 -4 3 C-5.423125 3.99 -5.423125 3.99 -6.875 5 C-10 7 -10 7 -12 7 C-12 6.01 -12 5.02 -12 4 C-11.34 4 -10.68 4 -10 4 C-10 3.01 -10 2.02 -10 1 C-6.78548731 -0.60725635 -3.56387464 -0.05748185 0 0 Z " fill="#666467" transform="translate(281,361)"/>
<path d="M0 0 C0.99 0.33 1.98 0.66 3 1 C3 3 3 5 3 7 C2.01 7 1.02 7 0 7 C0 7.66 0 8.32 0 9 C-1.32 9.33 -2.64 9.66 -4 10 C-4.8125 7.8125 -4.8125 7.8125 -5 5 C-2.5625 2.1875 -2.5625 2.1875 0 0 Z " fill="#565152" transform="translate(244,360)"/>
<path d="M0 0 C0.89203125 0.00902344 1.7840625 0.01804688 2.703125 0.02734375 C3.37859375 0.03894531 4.0540625 0.05054688 4.75 0.0625 C3.76 0.7225 2.77 1.3825 1.75 2.0625 C1.09 2.7225 0.43 3.3825 -0.25 4.0625 C-0.25 4.7225 -0.25 5.3825 -0.25 6.0625 C-8 5.1875 -8 5.1875 -10.25 4.0625 C-9.92 3.0725 -9.59 2.0825 -9.25 1.0625 C-6.21826719 -0.13243974 -3.22540573 -0.04243955 0 0 Z " fill="#7D7B7D" transform="translate(296.25,218.9375)"/>
<path d="M0 0 C2.31 0 4.62 0 7 0 C6.53980469 0.39832031 6.07960937 0.79664063 5.60546875 1.20703125 C3.7325678 3.29866516 3.12610698 5.01421992 2.3125 7.6875 C2.06113281 8.49574219 1.80976563 9.30398437 1.55078125 10.13671875 C1.27814453 11.05904297 1.27814453 11.05904297 1 12 C-1.31 12.33 -3.62 12.66 -6 13 C-6 12.34 -6 11.68 -6 11 C-4.02 11 -2.04 11 0 11 C0 7.37 0 3.74 0 0 Z " fill="#726F72" transform="translate(246,164)"/>
<path d="M0 0 C0.99 0.33 1.98 0.66 3 1 C-0.34003602 5.32239956 -3.32751069 8.17477391 -8 11 C-8.41176754 7.39703406 -8.1535853 6.21597933 -6 3.1875 C-5.34 2.465625 -4.68 1.74375 -4 1 C-2.68 1.33 -1.36 1.66 0 2 C0 1.34 0 0.68 0 0 Z " fill="#767576" transform="translate(234,218)"/>
<path d="M0 0 C0 -0.66 0 -1.32 0 -2 C2.31 -2 4.62 -2 7 -2 C1.78150204 1.47899864 -3.77855342 3.22231918 -10 4 C-9.67 2.35 -9.34 0.7 -9 -1 C-5.20731707 -2.26422764 -3.70731707 -1.23577236 0 0 Z " fill="#524F52" transform="translate(267,280)"/>
<path d="M0 0 C1.42892578 -0.02126953 1.42892578 -0.02126953 2.88671875 -0.04296875 C5.3125 0.1875 5.3125 0.1875 7.3125 2.1875 C6.178125 2.166875 5.04375 2.14625 3.875 2.125 C0.49674326 1.77172523 0.49674326 1.77172523 -0.6875 3.1875 C-2.70714199 3.25994053 -4.72917124 3.27127188 -6.75 3.25 C-7.85472656 3.24097656 -8.95945313 3.23195312 -10.09765625 3.22265625 C-11.37962891 3.20525391 -11.37962891 3.20525391 -12.6875 3.1875 C-9.20145895 -0.29854105 -4.73576033 0.03230396 0 0 Z " fill="#858383" transform="translate(228.6875,131.8125)"/>
<path d="M0 0 C1.65 0 3.3 0 5 0 C4.01 0.495 4.01 0.495 3 1 C3 1.66 3 2.32 3 3 C3.721875 2.9175 4.44375 2.835 5.1875 2.75 C8.83548794 3.07426559 10.34568298 4.57319587 13 7 C10.03 6.505 10.03 6.505 7 6 C7 6.66 7 7.32 7 8 C3.28631113 6.76210371 2.22645819 5.14775123 0 2 C0 1.34 0 0.68 0 0 Z " fill="#878586" transform="translate(236,393)"/>
<path d="M0 0 C1.65 0 3.3 0 5 0 C5 0.66 5 1.32 5 2 C5.99 1.67 6.98 1.34 8 1 C8 1.66 8 2.32 8 3 C7.34 3 6.68 3 6 3 C5.34 4.32 4.68 5.64 4 7 C3.34 7 2.68 7 2 7 C1.34 8.32 0.68 9.64 0 11 C-1.32 10.67 -2.64 10.34 -4 10 C-2.5459375 8.88625 -2.5459375 8.88625 -1.0625 7.75 C1.02387361 6.02690085 1.90112479 5.26131306 2.875 2.6875 C2.91625 2.130625 2.9575 1.57375 3 1 C2.01 0.67 1.02 0.34 0 0 Z " fill="#5A595A" transform="translate(271,319)"/>
<path d="M0 0 C0 0.66 0 1.32 0 2 C-1.65 1.67 -3.3 1.34 -5 1 C-5 4.63 -5 8.26 -5 12 C-5.99 11.67 -6.98 11.34 -8 11 C-7.93999894 9.3739713 -7.8512115 7.74898451 -7.75 6.125 C-7.70359375 5.22007812 -7.6571875 4.31515625 -7.609375 3.3828125 C-7 1 -7 1 -5.140625 -0.3828125 C-3 -1 -3 -1 0 0 Z " fill="#787778" transform="translate(256,369)"/>
<path d="M0 0 C0.33 0.66 0.66 1.32 1 2 C0.0625 4.625 0.0625 4.625 -1 7 C-2.32 7 -3.64 7 -5 7 C-5.20625 7.804375 -5.4125 8.60875 -5.625 9.4375 C-6.07875 10.283125 -6.5325 11.12875 -7 12 C-10.125 12.8125 -10.125 12.8125 -13 13 C-12 11 -12 11 -10.0625 10.125 C-7.84300569 9.17825935 -7.84300569 9.17825935 -7.0625 7 C-5.60431092 4.2551735 -3.82450302 4.08634731 -1 3 C-0.67 2.01 -0.34 1.02 0 0 Z " fill="#817F80" transform="translate(259,144)"/>
<path d="M0 0 C0.33 0.66 0.66 1.32 1 2 C0.0625 4.125 0.0625 4.125 -1 6 C-1.66 6 -2.32 6 -3 6 C-3 6.66 -3 7.32 -3 8 C-4.75 10.1875 -4.75 10.1875 -7 12 C-8.32 11.67 -9.64 11.34 -11 11 C-7.37 7.37 -3.74 3.74 0 0 Z " fill="#787878" transform="translate(273,369)"/>
<path d="M0 0 C0.97023939 3.88095757 1.04359133 5.29999436 0 9 C-0.99 10.485 -0.99 10.485 -2 12 C-5 12 -5 12 -7 11 C-4.69 7.37 -2.38 3.74 0 0 Z " fill="#726F70" transform="translate(220,163)"/>
<path d="M0 0 C3.63 0 7.26 0 11 0 C8.6870518 2.3129482 7.52095125 2.49580975 4.375 3.125 C3.55773437 3.29257812 2.74046875 3.46015625 1.8984375 3.6328125 C0.95871094 3.81457031 0.95871094 3.81457031 0 4 C0 5.32 0 6.64 0 8 C-0.66 8 -1.32 8 -2 8 C-2 6.35 -2 4.7 -2 3 C-1.34 3 -0.68 3 0 3 C0 2.01 0 1.02 0 0 Z " fill="#676767" transform="translate(265,298)"/>
<path d="M0 0 C0.99 0.495 0.99 0.495 2 1 C2.625 3.5625 2.625 3.5625 3 6 C4.32 5.67 5.64 5.34 7 5 C7.625 7.3125 7.625 7.3125 8 10 C7.01 11.485 7.01 11.485 6 13 C6 11.68 6 10.36 6 9 C5.071875 8.8453125 5.071875 8.8453125 4.125 8.6875 C2 8 2 8 0 5 C-0.125 2.3125 -0.125 2.3125 0 0 Z " fill="#777677" transform="translate(191,186)"/>
<path d="M0 0 C1.9609375 0.05078125 1.9609375 0.05078125 4.375 0.3125 C5.16648438 0.39113281 5.95796875 0.46976562 6.7734375 0.55078125 C9 1 9 1 12 3 C12 3.66 12 4.32 12 5 C11.0925 4.649375 10.185 4.29875 9.25 3.9375 C6.12241564 3.03531221 4.94791919 2.86618493 2 4 C2 4.66 2 5.32 2 6 C1.34 6 0.68 6 0 6 C-0.38218767 4.34385343 -0.71395102 2.67542976 -1 1 C-0.67 0.67 -0.34 0.34 0 0 Z " fill="#706D70" transform="translate(225,355)"/>
<path d="M0 0 C0.33 0.99 0.66 1.98 1 3 C-0.14453125 4.82421875 -0.14453125 4.82421875 -1.8125 6.6875 C-2.35519531 7.31011719 -2.89789063 7.93273437 -3.45703125 8.57421875 C-5 10 -5 10 -7 10 C-7 8.02 -7 6.04 -7 4 C-4.69 2.68 -2.38 1.36 0 0 Z " fill="#686467" transform="translate(239,295)"/>
<path d="M0 0 C0 1.33333333 0 2.66666667 0 4 C-4.16138263 4.08159574 -7.9472484 3.98248524 -12 3 C-12 2.34 -12 1.68 -12 1 C-7.95858806 0.36605303 -4.0934693 -0.12404452 0 0 Z " fill="#8C8B8D" transform="translate(309,323)"/>
<path d="M0 0 C0.33 1.98 0.66 3.96 1 6 C0.01 5.67 -0.98 5.34 -2 5 C-2.33 5.66 -2.66 6.32 -3 7 C-3 6.01 -3 5.02 -3 4 C-4.98 4.33 -6.96 4.66 -9 5 C-4.5 0 -4.5 0 0 0 Z " fill="#858383" transform="translate(255,253)"/>
<path d="M0 0 C2.0625 0.4375 2.0625 0.4375 4 1 C4.25 3.3125 4.25 3.3125 4 6 C2 7.8125 2 7.8125 0 9 C-0.66 8.67 -1.32 8.34 -2 8 C-1.125 1.125 -1.125 1.125 0 0 Z " fill="#565655" transform="translate(292,383)"/>
<path d="M0 0 C3.3 0 6.6 0 10 0 C10 0.66 10 1.32 10 2 C10.66 2 11.32 2 12 2 C12 2.66 12 3.32 12 4 C7.71 4 3.42 4 -1 4 C-0.67 2.68 -0.34 1.36 0 0 Z " fill="#676567" transform="translate(239,236)"/>
<path d="M0 0 C0 0.66 0 1.32 0 2 C-1.32 2.33 -2.64 2.66 -4 3 C-4 3.99 -4 4.98 -4 6 C-4.721875 5.95875 -5.44375 5.9175 -6.1875 5.875 C-9.20729369 6.00921305 -11.26935729 6.75170619 -14 8 C-14 7.34 -14 6.68 -14 6 C-12.04414675 4.99515796 -10.08523763 3.99626195 -8.125 3 C-6.48917969 2.1646875 -6.48917969 2.1646875 -4.8203125 1.3125 C-2 0 -2 0 0 0 Z " fill="#787576" transform="translate(306,128)"/>
<path d="M0 0 C4.29 0.66 8.58 1.32 13 2 C12.01 3.485 12.01 3.485 11 5 C11 5.99 11 6.98 11 8 C10.67 7.34 10.34 6.68 10 6 C9.34 6 8.68 6 8 6 C8 5.34 8 4.68 8 4 C7.236875 3.896875 6.47375 3.79375 5.6875 3.6875 C3 3 3 3 0 0 Z " fill="#838284" transform="translate(227,325)"/>
<path d="M0 0 C0.66 0 1.32 0 2 0 C2 0.66 2 1.32 2 2 C3.32 2 4.64 2 6 2 C6 2.99 6 3.98 6 5 C6.99 5.66 7.98 6.32 9 7 C2.47692308 6.38461538 2.47692308 6.38461538 0.0625 4.4375 C-0.288125 3.963125 -0.63875 3.48875 -1 3 C-0.67 2.01 -0.34 1.02 0 0 Z " fill="#575455" transform="translate(224,319)"/>
<path d="M0 0 C0.60546875 1.80078125 0.60546875 1.80078125 1 4 C-1.96296296 9.59670782 -1.96296296 9.59670782 -5.25 10.875 C-5.8275 10.91625 -6.405 10.9575 -7 11 C-5.22054913 6.95579349 -2.60470327 3.53921513 0 0 Z " fill="#6F6D6E" transform="translate(267,133)"/>
<path d="M0 0 C0.66 0.33 1.32 0.66 2 1 C-0.12669835 3.33936818 -2.06224856 4.80653848 -5 6 C-5.99 6 -6.98 6 -8 6 C-8 6.66 -8 7.32 -8 8 C-9.65 8 -11.3 8 -13 8 C-9.10904843 4.59541738 -4.88634235 1.75822032 0 0 Z " fill="#807F80" transform="translate(266,348)"/>
<path d="M0 0 C-1 2 -1 2 -3 3.125 C-7.04017477 4.30338431 -10.82206849 4.16384045 -15 4 C-11.2354727 0.2354727 -5.16743168 -0.32296448 0 0 Z " fill="#838385" transform="translate(289,302)"/>
<path d="M0 0 C1.32 0.33 2.64 0.66 4 1 C4 2.65 4 4.3 4 6 C0.85262818 5.30058404 -2.02588876 4.23921302 -5 3 C-5 2.67 -5 2.34 -5 2 C-3.35 2 -1.7 2 0 2 C0 1.34 0 0.68 0 0 Z " fill="#737272" transform="translate(301,224)"/>
<path d="M0 0 C5.28 0 10.56 0 16 0 C13.3218366 2.6781634 11.76387529 2.72119442 8 3 C5.25091894 2.51050535 2.68769171 1.78777171 0 1 C0 0.67 0 0.34 0 0 Z " fill="#747476" transform="translate(199,156)"/>
<path d="M0 0 C0 0.66 0 1.32 0 2 C3.3 2 6.6 2 10 2 C10 2.33 10 2.66 10 3 C7.73044814 3.22185844 5.45926245 3.42705515 3.1875 3.625 C1.29064453 3.79902344 1.29064453 3.79902344 -0.64453125 3.9765625 C-4 4 -4 4 -7 2 C-2.25 0 -2.25 0 0 0 Z " fill="#999697" transform="translate(252,345)"/>
<path d="M0 0 C4.42857143 5.14285714 4.42857143 5.14285714 5 9 C3.35 9 1.7 9 0 9 C-1.15941038 5.52176885 -0.70820884 3.54104422 0 0 Z " fill="#5C5B5C" transform="translate(235,384)"/>
<path d="M0 0 C1.66611905 -0.042721 3.33382885 -0.04063832 5 0 C6 1 6 1 6.0625 4.5625 C6.041875 5.696875 6.02125 6.83125 6 8 C5.01 8 4.02 8 3 8 C3.33 6.02 3.66 4.04 4 2 C2.68 2.33 1.36 2.66 0 3 C0 2.01 0 1.02 0 0 Z " fill="#5F5D60" transform="translate(247,305)"/>
<path d="M0 0 C1.32 0.33 2.64 0.66 4 1 C4 1.66 4 2.32 4 3 C2.5390625 4.2890625 2.5390625 4.2890625 0.625 5.625 C-0.00148437 6.07101563 -0.62796875 6.51703125 -1.2734375 6.9765625 C-3 8 -3 8 -5 8 C-5 6 -5 6 -3 4 C-2.67 3.34 -2.34 2.68 -2 2 C-1.34 2 -0.68 2 0 2 C0 1.34 0 0.68 0 0 Z " fill="#797979" transform="translate(220,229)"/>
<path d="M0 0 C0.33 0 0.66 0 1 0 C1.08131463 1.43655854 1.13933559 2.8744483 1.1875 4.3125 C1.22230469 5.11300781 1.25710937 5.91351563 1.29296875 6.73828125 C0.93801608 9.47851584 0.10633718 10.29171079 -2 12 C-2.33 9.69 -2.66 7.38 -3 5 C-2.01 4.67 -1.02 4.34 0 4 C0 2.68 0 1.36 0 0 Z " fill="#8C8788" transform="translate(241,203)"/>
<path d="M0 0 C2 0.375 2 0.375 4 1 C4.99 0.67 5.98 0.34 7 0 C6.625 1.9375 6.625 1.9375 6 4 C5.01 4.495 5.01 4.495 4 5 C4 4.34 4 3.68 4 3 C1.69 3 -0.62 3 -3 3 C-1.75 1.4375 -1.75 1.4375 0 0 Z " fill="#484648" transform="translate(277,358)"/>
<path d="M0 0 C-0.33 0.99 -0.66 1.98 -1 3 C-4.96 3 -8.92 3 -13 3 C-13 2.67 -13 2.34 -13 2 C-11.21089097 1.47044766 -9.41860852 0.9516063 -7.625 0.4375 C-6.62726563 0.14746094 -5.62953125 -0.14257812 -4.6015625 -0.44140625 C-2 -1 -2 -1 0 0 Z " fill="#747479" transform="translate(210,344)"/>
<path d="M0 0 C0.99 0 1.98 0 3 0 C2.38479725 3.99881788 0.39731331 6.80358226 -2 10 C-2.66 10 -3.32 10 -4 10 C-3.6875 8.0625 -3.6875 8.0625 -3 6 C-2.01 5.67 -1.02 5.34 0 5 C0 3.35 0 1.7 0 0 Z " fill="#787575" transform="translate(278,213)"/>
<path d="M0 0 C0.33 0.99 0.66 1.98 1 3 C-3.455 6.96 -3.455 6.96 -8 11 C-8.99 10.67 -9.98 10.34 -11 10 C-9.71372289 8.82739389 -8.42080217 7.6620717 -7.125 6.5 C-6.40570313 5.8503125 -5.68640625 5.200625 -4.9453125 4.53125 C-3 3 -3 3 -1 3 C-0.67 2.01 -0.34 1.02 0 0 Z " fill="#7B7879" transform="translate(222,205)"/>
<path d="M0 0 C2.97 0.495 2.97 0.495 6 1 C6 1.99 6 2.98 6 4 C6.66 4 7.32 4 8 4 C8 4.99 8 5.98 8 7 C4.2047869 5.50902342 2.38957269 3.24299151 0 0 Z " fill="#8A8A8A" transform="translate(291,201)"/>
<path d="M0 0 C0.66 0 1.32 0 2 0 C1.55149342 1.81495662 1.09090429 3.62693134 0.625 5.4375 C0.24214844 6.95150391 0.24214844 6.95150391 -0.1484375 8.49609375 C-1 11 -1 11 -3 12 C-2.88541307 10.56163249 -2.75790884 9.12429034 -2.625 7.6875 C-2.55539062 6.88699219 -2.48578125 6.08648437 -2.4140625 5.26171875 C-2 3 -2 3 0 0 Z " fill="#878686" transform="translate(299,176)"/>
<path d="M0 0 C2 1 2 1 4 4 C3.01 4.33 2.02 4.66 1 5 C0.34 5.66 -0.32 6.32 -1 7 C-1.66 6.34 -2.32 5.68 -3 5 C-2.75 2.9375 -2.75 2.9375 -2 1 C-1.34 0.67 -0.68 0.34 0 0 Z " fill="#929191" transform="translate(238,232)"/>
<path d="M0 0 C1.32 0 2.64 0 4 0 C4 0.66 4 1.32 4 2 C4.66 2.33 5.32 2.66 6 3 C4 6 4 6 0.875 6.6875 C-0.07375 6.790625 -1.0225 6.89375 -2 7 C-2 6.34 -2 5.68 -2 5 C-0.35 4.67 1.3 4.34 3 4 C2.01 2.68 1.02 1.36 0 0 Z " fill="#7E767C" transform="translate(304,213)"/>
<path d="M0 0 C2.475 0.99 2.475 0.99 5 2 C2.31158141 4.25245881 0.35358125 5.88213958 -3 7 C-2.67 5.35 -2.34 3.7 -2 2 C-1.34 2 -0.68 2 0 2 C0 1.34 0 0.68 0 0 Z " fill="#6C6B6C" transform="translate(220,181)"/>
<path d="M0 0 C1.98 0.495 1.98 0.495 4 1 C3.34 1 2.68 1 2 1 C2 1.66 2 2.32 2 3 C4.31 3 6.62 3 9 3 C9 3.66 9 4.32 9 5 C1.25 4.125 1.25 4.125 -1 3 C-0.67 2.01 -0.34 1.02 0 0 Z " fill="#898889" transform="translate(287,220)"/>
<path d="M0 0 C3.96 1.98 7.92 3.96 12 6 C8.16380575 6.95904856 6.67568464 6.91892116 3 6 C2.67 5.01 2.34 4.02 2 3 C1.34 2.67 0.68 2.34 0 2 C0 1.34 0 0.68 0 0 Z " fill="#8C8C8C" transform="translate(315,198)"/>
<path d="M0 0 C1.65 0 3.3 0 5 0 C4 3 4 3 1 5 C0.01 4.67 -0.98 4.34 -2 4 C-1.34 2.68 -0.68 1.36 0 0 Z " fill="#666163" transform="translate(235,191)"/>
<path d="M0 0 C0.33 0.99 0.66 1.98 1 3 C2.65 2.67 4.3 2.34 6 2 C6 2.66 6 3.32 6 4 C5.34 4 4.68 4 4 4 C4 5.65 4 7.3 4 9 C1.43135272 7.71567636 1.053461 6.63365249 0 4 C0 2.68 0 1.36 0 0 Z " fill="#676669" transform="translate(228,328)"/>
<path d="M0 0 C1.32 0.99 2.64 1.98 4 3 C3.625 5.4375 3.625 5.4375 3 8 C2.01 8.495 2.01 8.495 1 9 C1 7.35 1 5.7 1 4 C0.34 3.67 -0.32 3.34 -1 3 C-0.67 2.01 -0.34 1.02 0 0 Z " fill="#7A7A7C" transform="translate(284,284)"/>
<path d="M0 0 C0.99 0.495 0.99 0.495 2 1 C3.67654729 0.72057545 5.34608154 0.39171753 7 0 C6.34 1.65 5.68 3.3 5 5 C3.35 4.67 1.7 4.34 0 4 C0 2.68 0 1.36 0 0 Z " fill="#777678" transform="translate(260,285)"/>
<path d="M0 0 C1.65 0 3.3 0 5 0 C4.67 0.66 4.34 1.32 4 2 C3.34 2 2.68 2 2 2 C2.99 3.32 3.98 4.64 5 6 C2 6 2 6 0.3125 4.5 C-0.120625 4.005 -0.55375 3.51 -1 3 C-0.67 2.01 -0.34 1.02 0 0 Z " fill="#A79797" transform="translate(226,283)"/>
<path d="M0 0 C2.125 0.9375 2.125 0.9375 4 2 C2.75 3.5625 2.75 3.5625 1 5 C-1.1875 4.6875 -1.1875 4.6875 -3 4 C-2.67 3.01 -2.34 2.02 -2 1 C-1.34 0.67 -0.68 0.34 0 0 Z " fill="#7B7A7B" transform="translate(255,235)"/>
<path d="M0 0 C0.66 0.33 1.32 0.66 2 1 C1.01 1.66 0.02 2.32 -1 3 C-0.34414811 6.60992379 -0.34414811 6.60992379 1 10 C-0.9375 9.375 -0.9375 9.375 -3 8 C-3.75 4.875 -3.75 4.875 -4 2 C-2.125 0.9375 -2.125 0.9375 0 0 Z " fill="#978C94" transform="translate(197,145)"/>
<path d="M0 0 C0 0.66 0 1.32 0 2 C-2.97 2.66 -5.94 3.32 -9 4 C-8.67 3.01 -8.34 2.02 -8 1 C-2.59770115 -1.29885057 -2.59770115 -1.29885057 0 0 Z " fill="#383437" transform="translate(216,138)"/>
<path d="M0 0 C2.31 0 4.62 0 7 0 C3.32740617 2.44839588 0.45351799 4 -4 4 C-4 3.34 -4 2.68 -4 2 C-2.68 2 -1.36 2 0 2 C0 1.34 0 0.68 0 0 Z " fill="#999899" transform="translate(267,278)"/>
<path d="M0 0 C0.99 0 1.98 0 3 0 C3 1.32 3 2.64 3 4 C1.02 4.66 -0.96 5.32 -3 6 C-1.125 1.125 -1.125 1.125 0 0 Z " fill="#686162" transform="translate(238,203)"/>
<path d="M0 0 C0 0.66 0 1.32 0 2 C-2.97 3.32 -5.94 4.64 -9 6 C-9.33 5.01 -9.66 4.02 -10 3 C-8.70990357 2.49596232 -7.41786211 1.99690074 -6.125 1.5 C-5.04605469 1.08234375 -5.04605469 1.08234375 -3.9453125 0.65625 C-2 0 -2 0 0 0 Z " fill="#848282" transform="translate(246,157)"/>
<path d="M0 0 C2.97 0 5.94 0 9 0 C8.67 0.66 8.34 1.32 8 2 C4.71585695 2.95067299 3.30306592 3.10102197 0 2 C0 1.34 0 0.68 0 0 Z " fill="#746C72" transform="translate(265,345)"/>
<path d="M0 0 C0.33 0.99 0.66 1.98 1 3 C1.66 3 2.32 3 3 3 C3.33 5.31 3.66 7.62 4 10 C1 8 1 8 0.48828125 6.0546875 C0.32552083 4.03645833 0.16276042 2.01822917 0 0 Z " fill="#746E71" transform="translate(196,225)"/>
<path d="M0 0 C2.97 0.33 5.94 0.66 9 1 C8.67 1.66 8.34 2.32 8 3 C4.7 3 1.4 3 -2 3 C-1.34 2.67 -0.68 2.34 0 2 C0 1.34 0 0.68 0 0 Z " fill="#717171" transform="translate(249,396)"/>
<path d="M0 0 C-0.99 0.33 -1.98 0.66 -3 1 C-3 1.66 -3 2.32 -3 3 C-5.31 3 -7.62 3 -10 3 C-3.66666667 -1.22222222 -3.66666667 -1.22222222 0 0 Z " fill="#3D3B3C" transform="translate(251,287)"/>
<path d="M0 0 C-0.99 0 -1.98 0 -3 0 C-3 0.66 -3 1.32 -3 2 C-5.31 2.33 -7.62 2.66 -10 3 C-10 2.34 -10 1.68 -10 1 C-3.71428571 -1.42857143 -3.71428571 -1.42857143 0 0 Z " fill="#6E6B6E" transform="translate(274,268)"/>
<path d="M0 0 C0.66 0.99 1.32 1.98 2 3 C-0.97 5.475 -0.97 5.475 -4 8 C-4.66 7.67 -5.32 7.34 -6 7 C-4.02 4.69 -2.04 2.38 0 0 Z " fill="#7C7B7D" transform="translate(259,215)"/>
<path d="M0 0 C0.99 0 1.98 0 3 0 C2.50168276 3.68754757 1.89932357 5.60490662 -1 8 C-0.67 5.36 -0.34 2.72 0 0 Z " fill="#4A4748" transform="translate(236,199)"/>
<path d="M0 0 C0 3.59857954 -0.95830515 5.09451118 -3 8 C-3.66 8 -4.32 8 -5 8 C-4.75 5.125 -4.75 5.125 -4 2 C-1.9375 0.625 -1.9375 0.625 0 0 Z " fill="#8F888E" transform="translate(280,361)"/>
<path d="M0 0 C0 0.99 0 1.98 0 3 C-0.99 3.495 -0.99 3.495 -2 4 C-2 4.99 -2 5.98 -2 7 C-2.99 6.01 -3.98 5.02 -5 4 C-3 1 -3 1 0 0 Z " fill="#797778" transform="translate(244,229)"/>
</svg>
