<?xml version="1.0" encoding="UTF-8"?>
<svg version="1.1" xmlns="http://www.w3.org/2000/svg" width="180" height="180">
<path d="M0 0 C6.93702513 5.94237815 11.564183 13.32521857 12.3984375 22.51171875 C12.51945267 34.86736746 10.32262864 45.13127396 2.0625 54.8125 C-7.68256955 64.28354299 -21.38217781 70.94433338 -35.1875 71 C-36.54875 70.9071875 -36.54875 70.9071875 -37.9375 70.8125 C-37.98285889 71.37630371 -38.02821777 71.94010742 -38.07495117 72.52099609 C-38.73462803 79.9037626 -39.9263715 87.14748531 -41.25 94.4375 C-41.45044922 95.613125 -41.65089844 96.78875 -41.85742188 98 C-43.60118797 107.6096088 -45.67570341 115.0116641 -53.9375 120.8125 C-60.61936383 123.03978794 -67.8428301 122.74093041 -74.25 119.8125 C-82.69122533 115.00249199 -87.8672606 107.36536035 -90.75146484 98.23608398 C-92.80865684 90.60131231 -93.41118874 83.5138599 -93.3125 75.625 C-93.30234863 74.44317139 -93.29219727 73.26134277 -93.28173828 72.04370117 C-92.8824597 49.38232031 -86.90673853 26.71213195 -71.0234375 9.71484375 C-52.78802535 -6.91557894 -21.63980805 -15.43137224 0 0 Z M-61.5 22.3125 C-75.78324297 39.53065591 -78.21226687 63.27425135 -76.9375 84.8125 C-75.99751546 91.46150826 -74.56233377 97.77959266 -69.9375 102.8125 C-67.30983611 103.77469702 -67.30983611 103.77469702 -64.9375 103.8125 C-61.64508519 96.26031452 -60.44784555 88.4015535 -59.08984375 80.33203125 C-58.8307183 78.83072152 -58.57073967 77.32955883 -58.30995178 75.82853699 C-57.62858535 71.89759031 -56.95557751 67.96526745 -56.28533936 64.03240967 C-55.21077518 57.72807609 -54.12888614 51.42504575 -53.036623 45.1237545 C-52.65853445 42.93044379 -52.28739881 40.73603361 -51.91673279 38.54145813 C-51.68428357 37.19270865 -51.45155607 35.84400709 -51.21850586 34.49536133 C-50.91897255 32.73619133 -50.91897255 32.73619133 -50.61338806 30.94148254 C-49.02649753 23.59506965 -49.02649753 23.59506965 -46.1328125 21.515625 C-43.59100268 20.70152221 -41.47983086 20.54657564 -38.8125 20.5625 C-37.94367188 20.55734375 -37.07484375 20.5521875 -36.1796875 20.546875 C-33.9375 20.8125 -33.9375 20.8125 -31.9375 22.8125 C-30.78597963 26.67483039 -31.03539395 29.72420393 -31.71484375 33.6640625 C-31.89853516 34.76234375 -32.08222656 35.860625 -32.27148438 36.9921875 C-32.47064453 38.12914063 -32.66980469 39.26609375 -32.875 40.4375 C-33.26103398 42.70019421 -33.64523526 44.96320208 -34.02734375 47.2265625 C-34.20128662 48.2263916 -34.37522949 49.2262207 -34.55444336 50.25634766 C-35.01160094 52.8761961 -35.01160094 52.8761961 -34.9375 55.8125 C-26.08969225 54.74115793 -19.94966032 51.71907716 -13.5625 45.5 C-9.44417909 38.6889308 -8.00465646 31.72196209 -8.9375 23.8125 C-10.6286104 17.84387508 -13.74062951 14.07189645 -18.9375 10.8125 C-34.76720059 4.37069129 -50.29902637 10.68931672 -61.5 22.3125 Z " fill="#000000" transform="translate(130.9375,33.1875)"/>
</svg>
