<svg height="1800" width="1800" xmlns="http://www.w3.org/2000/svg"><path d="m0 0c66.86021044-.06039235 66.86021044-.06039235 87.55950928-.07695007.73821818-.000592 1.47643636-.00118401 2.23702479-.00179395 24.87269074-.01989215 49.74538231-.03563707 74.61807775-.0482854.81237244-.00041417 1.62474487-.00082834 2.46173466-.00125506 17.6591193-.00898073 35.31823885-.01729099 52.97735879-.02491151 8.66123242-.00374169 17.32246476-.0076314 25.98369707-.01159893.86185267-.00039228 1.72370534-.00078456 2.61167475-.00118872 27.88684363-.01276213 55.77366892-.0352796 83.66050146-.06290802 28.6803334-.02836266 57.36065666-.04677967 86.04100385-.05285331 4.05982431-.00086434 8.11964858-.00184125 12.17947284-.00288676.79895628-.00020227 1.59791256-.00040454 2.42107965-.00061294 12.81130483-.00353191 25.62257813-.01741011 38.43387016-.03525143 12.90976157-.01775424 25.81949217-.02438487 38.7292655-.02000803 6.98257112.00206738 13.96505857-.00051373 20.94761261-.01711229 6.41261211-.01476024 12.82507196-.01523304 19.23769155-.00508026 2.30062063.001252 4.60125136-.00241566 6.90185255-.01195287 21.52516332-.08392904 43.00418791 1.68960768 64.18607274 5.62464955 1.13888672.20834473 2.27777344.41668945 3.45117188.63134766 26.14821825 4.98870959 51.40951695 13.56513347 75.36132812 25.11865234 1.0837793.52134521 1.0837793.52134521 2.18945312 1.05322266 16.76103673 8.18246162 32.83458015 18.57615814 46.81054688 30.94677734.763125.65484375 1.52625 1.3096875 2.3125 1.984375 18.10453171 15.84146525 33.30544784 33.38454864 45.6875 54.015625.3707666.61133789.7415332 1.22267578 1.12353516 1.85253906 32.49851893 54.0303455 38.03230494 121.59141105 23.87646484 182.14746094-6.52938796 25.93123447-17.40259649 51.20595363-33 73-.68578125.96035156-1.3715625 1.92070313-2.078125 2.91015625-12.31360195 16.80939546-26.35083925 32.38909018-42.921875 45.08984375-.53254395.41427246-1.06508789.82854492-1.61376953 1.25537109-44.62160716 34.56351045-100.53853489 52.30241725-156.38623047 56.74462891-.93804977.08009811-1.87609955.16019623-2.84257507.24272156-12.26064976.94005396-24.51839224.98252585-36.80976868 1.07368469-2.35511096.02061365-4.71021859.04161113-7.06532288.06297302-6.14993056.0547658-12.29989194.10437255-18.44987487.15284729-6.29509165.05055071-12.59013945.10606019-18.88519288.16113282-12.3157176.10702372-24.63147354.20858869-36.94726562.30664062.48323227.4529393.96646454.9058786 1.46434021 1.37254333 2.21988399 2.08182264 4.43832671 4.16517512 6.65675354 6.24855042.76002319.71232788 1.52004639 1.42465576 2.30310059 2.15856934 4.28565206 4.02696544 8.50603862 8.09858686 12.63830566 12.28283691 2.83540401 2.86936095 5.67484636 5.63999565 8.75 8.25 3.94151502 3.35638289 7.54888008 7.01067934 11.1875 10.6875 4.16646205 4.21011278 8.3528541 8.27241218 12.87890625 12.09765625 3.59923741 3.22804534 6.94777586 6.71008085 10.34619141 10.14697266 2.82246624 2.84209509 5.65073966 5.60527231 8.71240234 8.19287109 3.90519979 3.30822658 7.46530926 6.92763741 11.0625 10.5625 5.34465194 5.41494868 5.34465194 5.41494868 11 10.5 4.55858949 3.85122216 8.67102171 8.14663131 12.86499023 12.38452148 3.54958795 3.57246085 7.16658856 6.96152253 11.01391602 10.21313477 3.59923741 3.22804534 6.94777586 6.71008085 10.34619141 10.14697266 2.82246624 2.84209509 5.65073966 5.60527231 8.71240234 8.19287109 3.90519979 3.30822658 7.46530926 6.92763741 11.0625 10.5625 5.34465194 5.41494868 5.34465194 5.41494868 11 10.5 4.55858949 3.85122216 8.67102171 8.14663131 12.86499023 12.38452148 3.54958795 3.57246085 7.16658856 6.96152253 11.01391602 10.21313477 3.59923741 3.22804534 6.94777586 6.71008085 10.34619141 10.14697266 2.82246624 2.84209509 5.65073966 5.60527231 8.71240234 8.19287109 3.90519979 3.30822658 7.46530926 6.92763741 11.0625 10.5625 5.34465194 5.41494868 5.34465194 5.41494868 11 10.5 4.55858949 3.85122216 8.67102171 8.14663131 12.86499023 12.38452148 3.54958795 3.57246085 7.16658856 6.96152253 11.01391602 10.21313477 3.59923741 3.22804534 6.94777586 6.71008085 10.34619141 10.14697266 2.82246624 2.84209509 5.65073966 5.60527231 8.71240234 8.19287109 3.90519979 3.30822658 7.46530926 6.92763741 11.0625 10.5625 5.34465194 5.41494868 5.34465194 5.41494868 11 10.5 4.55858949 3.85122216 8.67102171 8.14663131 12.86499023 12.38452148 3.54958795 3.57246085 7.16658856 6.96152253 11.01391602 10.21313477 3.59923741 3.22804534 6.94777586 6.71008085 10.34619141 10.14697266 2.82246624 2.84209509 5.65073966 5.60527231 8.71240234 8.19287109 3.90519979 3.30822658 7.46530926 6.92763741 11.0625 10.5625 5.34465194 5.41494868 5.34465194 5.41494868 11 10.5 4.55858949 3.85122216 8.67102171 8.14663131 12.86499023 12.38452148 3.54958795 3.57246085 7.16658856 6.96152253 11.01391602 10.21313477 3.59923741 3.22804534 6.94777586 6.71008085 10.34619141 10.14697266 2.82246624 2.84209509 5.65073966 5.60527231 8.71240234 8.19287109 4.57286851 3.87383129 8.7065766 8.18178393 12.91845703 12.43798828 3.62914924 3.65261989 7.32906663 7.13257951 11.25732422 10.46435547 3.80994812 3.35243882 7.43677925 6.93869373 10.88671875 10.66015625v1c-39.3559209.16022001-78.71179928.28356654-118.06798115.35745731-4.64628547.00875495-9.29257028.0178152-13.93885479.02706417-.92499209.00183618-1.84998419.00367235-2.80300635.00556417-14.97763715.03045972-29.95508624.08565197-44.93261182.14998392-15.36819555.06545947-30.73629259.10434163-46.10462183.11854989-9.48329139.00960521-18.96605123.03994206-28.44917899.09679581-6.50284884.03700041-13.00542286.04818582-19.50836933.03909437-3.7521494-.00448402-7.50336998.00239062-11.25535423.03992868-4.07033557.04042526-8.13869577.02647176-12.20918655.0073433-1.18289124.02038989-2.36578248.04077978-3.58451891.06178754-6.90968252-.08788488-10.65549936-1.09417808-15.53870869-6.10284078-.53051043-.59424036-1.06102086-1.18848073-1.60760736-1.80072838-1.03679123-1.02578462-2.07759953-2.04755054-3.125-3.0625-.96028808-.97724969-1.91861726-1.95642804-2.875-2.9375-3.24215227-3.28673187-6.47950983-6.50758336-10-9.5-3.52077694-2.9926604-6.7554753-6.2153265-10-9.5-3.22398087-3.26382615-6.43517847-6.46830141-9.9375-9.4375-4.3411307-3.68860166-8.28084341-7.75493757-12.28271484-11.80224609-3.43999004-3.46395514-6.9652346-6.73142775-10.68994141-9.88916016-3.3648045-3.01260066-6.49529563-6.25681417-9.66821289-9.46899414-2.72487165-2.74551788-5.47195411-5.39487437-8.42163086-7.90209961-4.0895362-3.47610577-7.8096054-7.28249656-11.578125-11.09765625-2.72495501-2.74559861-5.47210973-5.39504327-8.421875-7.90234375-4.0895362-3.47610577-7.8096054-7.28249656-11.578125-11.09765625-2.72495501-2.74559861-5.47210973-5.39504327-8.421875-7.90234375-4.0895362-3.47610577-7.8096054-7.28249656-11.578125-11.09765625-2.72495501-2.74559861-5.47210973-5.39504327-8.421875-7.90234375-3.52077694-2.9926604-6.7554753-6.2153265-10-9.5-3.22398087-3.26382615-6.43517847-6.46830141-9.9375-9.4375-4.3411307-3.68860166-8.28084341-7.75493757-12.28271484-11.80224609-3.43999004-3.46395514-6.9652346-6.73142775-10.68994141-9.88916016-3.3648045-3.01260066-6.49529563-6.25681417-9.66821289-9.46899414-2.72487165-2.74551788-5.47195411-5.39487437-8.42163086-7.90209961-4.0895362-3.47610577-7.8096054-7.28249656-11.578125-11.09765625-2.72495501-2.74559861-5.47210973-5.39504327-8.421875-7.90234375-4.0895362-3.47610577-7.8096054-7.28249656-11.578125-11.09765625-2.72495501-2.74559861-5.47210973-5.39504327-8.421875-7.90234375-4.0895362-3.47610577-7.8096054-7.28249656-11.578125-11.09765625-2.72495501-2.74559861-5.47210973-5.39504327-8.421875-7.90234375-3.52077694-2.9926604-6.7554753-6.2153265-10-9.5-3.22398087-3.26382615-6.43517847-6.46830141-9.9375-9.4375-4.3411307-3.68860166-8.28084341-7.75493757-12.28271484-11.80224609-3.43999004-3.46395514-6.9652346-6.73142775-10.68994141-9.88916016-3.36557439-3.01328997-6.49673983-6.25830365-9.67041016-9.47119141-2.70372108-2.72418444-5.4269309-5.35340428-8.35693359-7.83740234-21.8364109-18.79474867-38.44983955-42.6214604-40.875-72.0234375-.61281227-10.62958936 1.4386788-20.84690721 5.8125-30.5390625.59748047-1.33611328.59748047-1.33611328 1.20703125-2.69921875 9.76716717-19.73136654 29.382785-32.52653756 49.73736858-39.44676685 1.04809704-.34478913 1.04809704-.34478913 2.11736775-.6965437.76790517-.25371966 1.53581034-.50743932 2.32698536-.76884746 10.21926696-3.31064912 20.61170693-5.99264175 30.99796581-8.72065449 2.2484367-.59518241 4.4967294-1.19090905 6.74488831-1.78713989 4.7399328-1.25605619 9.48073154-2.50876507 14.22227478-3.75872803 7.3841329-1.9468878 14.76585454-3.90280371 22.14709472-5.86062622 8.5478423-2.26687956 17.09592864-4.53282828 25.64463616-6.79644299 16.74768898-4.43470865 33.49419983-8.87356403 50.22709846-13.36380481 2.54679084-.68311915 5.09457272-1.36210931 7.64300537-2.03912354 16.56150278-4.40032509 33.11719301-8.83328511 48.60928345-16.31210327 1.17973389-.56678467 1.17973389-.56678467 2.38330078-1.14501953 12.98958724-6.40938767 24.30151064-14.89117914 34.99169922-24.60498047.87269531-.78890625 1.74539063-1.5778125 2.64453125-2.390625 17.44467631-16.59304645 27.96084089-37.65078962 34.35546875-60.609375.19352051-.68932617.38704102-1.37865234.58642578-2.08886719 5.45172732-20.63012765 4.16038476-45.52577447-1.58642578-65.91113281-.18191895-.67369629-.36383789-1.34739258-.55126953-2.04150391-8.00779046-28.98977583-28.89142606-52.81077597-54.54199219-67.88378906-14.66019985-8.26302173-30.38454639-13.92695288-46.84423828-17.32470703-.72485596-.15114258-1.44971191-.30228516-2.1965332-.45800781-15.05622225-2.8715559-30.26357802-3.59026547-45.55119324-3.57046509-1.79831433-.00501837-3.59662641-.01089859-5.39493543-.01755273-4.8825641-.01562778-9.76507041-.01922105-14.6476565-.0206486-5.28739367-.00372454-10.57475672-.01889485-15.86213219-.03261471-9.14118307-.02218153-18.28235511-.03724933-27.42355919-.0473671-13.21634324-.01463872-26.43264804-.04018984-39.64896862-.06833128-21.44705103-.04537404-42.89410762-.08202749-64.34118374-.11313768-20.82325211-.03022411-41.64649065-.06459203-62.46972656-.10449219-1.28539035-.00246155-2.57078069-.00492309-3.89512225-.00745924-6.44897686-.01237535-12.89795356-.02483174-19.34693019-.0373284-53.42817021-.10342711-106.85634991-.19105929-160.28455889-.27259517 0-44.88 0-89.76 0-136z" transform="translate(450 450)"/></svg>